<?xml version="1.0" encoding="UTF-8" standalone="no"?>
<svg
   xmlns:osb="http://www.openswatchbook.org/uri/2009/osb"
   xmlns:dc="http://purl.org/dc/elements/1.1/"
   xmlns:cc="http://creativecommons.org/ns#"
   xmlns:rdf="http://www.w3.org/1999/02/22-rdf-syntax-ns#"
   xmlns:svg="http://www.w3.org/2000/svg"
   xmlns="http://www.w3.org/2000/svg"
   xmlns:sodipodi="http://sodipodi.sourceforge.net/DTD/sodipodi-0.dtd"
   xmlns:inkscape="http://www.inkscape.org/namespaces/inkscape"
   id="Layer_2"
   data-name="Layer 2"
   viewBox="0 0 2399.0648 597.97076"
   version="1.1"
   sodipodi:docname="devopzilla-new-logo-vertical.svg"
   width="2399.0647"
   height="597.97076"
   inkscape:version="0.92.5 (2060ec1f9f, 2020-04-08)">
  <metadata
     id="metadata42">
    <rdf:RDF>
      <cc:Work
         rdf:about="">
        <dc:format>image/svg+xml</dc:format>
        <dc:type
           rdf:resource="http://purl.org/dc/dcmitype/StillImage" />
        <dc:title></dc:title>
      </cc:Work>
    </rdf:RDF>
  </metadata>
  <sodipodi:namedview
     pagecolor="#ffffff"
     bordercolor="#666666"
     borderopacity="1"
     objecttolerance="10"
     gridtolerance="10"
     guidetolerance="10"
     inkscape:pageopacity="0"
     inkscape:pageshadow="2"
     inkscape:window-width="2560"
     inkscape:window-height="1334"
     id="namedview40"
     showgrid="false"
     fit-margin-top="0"
     fit-margin-left="0"
     fit-margin-right="0"
     fit-margin-bottom="0"
     inkscape:zoom="0.53588673"
     inkscape:cx="989.84738"
     inkscape:cy="299.13407"
     inkscape:window-x="0"
     inkscape:window-y="54"
     inkscape:window-maximized="1"
     inkscape:current-layer="Layer_2" />
  <defs
     id="defs9">
    <linearGradient
       id="linearGradient6227"
       osb:paint="solid">
      <stop
         style="stop-color:#0082a0;stop-opacity:1;"
         offset="0"
         id="stop6225" />
    </linearGradient>
    <linearGradient
       id="linearGradient6201"
       osb:paint="solid">
      <stop
         style="stop-color:#0082a0;stop-opacity:1;"
         offset="0"
         id="stop6199" />
    </linearGradient>
    <style
       id="style2">.cls-1{fill:#aef4f2;}.cls-2{fill:url(#linear-gradient);}.cls-3{fill:#fff;}</style>
    <linearGradient
       id="linear-gradient"
       x1="1771.84"
       y1="386.01001"
       x2="2197.7"
       y2="386.01001"
       gradientUnits="userSpaceOnUse"
       gradientTransform="translate(-1694.8832,-87.029407)">
      <stop
         offset="0"
         stop-color="#0082a0"
         id="stop4" />
      <stop
         offset="1"
         stop-color="#2ff4f4"
         id="stop6" />
    </linearGradient>
  </defs>
  <path
     class="cls-1"
     d="M 64.236737,588.3406 0.70673816,444.4206 a 7.11,7.11 0 0 1 2.44999994,-9 7.67,7.67 0 0 1 4.42,-1.49 7.1,7.1 0 0 1 4.8899999,2 l 81.859999,74.5 0.29,0.26 -30.35,77.69 z"
     id="path11"
     inkscape:connector-curvature="0"
     style="fill:#aef4f2" />
  <path
     class="cls-1"
     d="m 450.24674,586.3206 -63.35,-91.83 -205.54,103.48 h 262.76 a 7.4,7.4 0 0 0 6.1,-11.6 z"
     id="path13"
     inkscape:connector-curvature="0"
     style="fill:#aef4f2" />
  <polygon
     class="cls-1"
     points="1898.93,344.07 1898.67,343.76 1898.67,235.53 2077.81,324.41 2077.81,557.61 1898.93,344.08 "
     id="polygon15"
     transform="translate(-1694.8832,-87.029407)"
     style="fill:#aef4f2" />
  <path
     class="cls-2"
     d="m 192.11674,155.6806 -0.18,0.1 -61.37,34.44 a 10.74,10.74 0 0 0 0,18.7 l 61.41,34.77 0.25,0.14 z m 174.76,-149.7100028 a 10.73,10.73 0 0 0 -18.67,-1 l -30.45,48.0800018 a 8.12,8.12 0 0 0 6.47,12.46 v 0 l 60.24,2.87 a 8.12,8.12 0 0 0 7.66,-11.74 z m 67.43,79.0000018 a 8.09,8.09 0 0 0 -5.56,-2.59 l -10.85,-0.52 v 0.1 l -132.32,-6.39 a 8.13,8.13 0 0 0 -5.66,1.94 l -70.8,60.460001 v 0 l 185.66,92.83 51,25.49 a 8.14,8.14 0 0 0 10.85,-3.52 l 45.3,-87 a 8.11,8.11 0 0 0 -1.25,-9.28 z m -231.52,-38.16 a 11.29,11.29 0 0 0 -3.77,-0.68 10.77,10.77 0 0 0 -10.5,12.84 l 10.6,55.130001 a 8.13,8.13 0 0 0 13.26,4.64 l 45.29,-38.690001 a 8.13,8.13 0 0 0 -2.46,-13.8 z m 157.85,415.570001 -152.03,-181.41 a 8.13,8.13 0 0 0 -13.81,2.29 l -86.49,223.91 -30.790003,79.7 a 8.12,8.12 0 0 0 7.6,11.1 h 68.000003 a 8.17,8.17 0 0 0 3.66,-0.86 l 222.73,-112.14 v 0 z"
     id="path17"
     style="fill:url(#linear-gradient)"
     inkscape:connector-curvature="0" />
  <path
     class="cls-3"
     d="m 618.67089,216.50246 h 88.2453 c 92.081,0 153.05291,57.1362 153.05291,140.2632 0,81.8565 -61.39541,141.1102 -153.05291,141.1102 h -88.2453 z m 87.8218,240.8747 c 65.2311,0 107.00031,-41.7813 107.00031,-100.6115 0,-59.6893 -41.34571,-99.3289 -107.00031,-99.3289 h -42.592 v 199.9404 z"
     id="path19"
     style="fill:#13afc1;fill-opacity:1;stroke-width:1.21000004"
     inkscape:connector-curvature="0" />
  <path
     class="cls-3"
     d="m 921.8001,407.92446 c 5.5418,34.0978 32.3917,54.9945 68.2077,54.9945 21.78,0 42.2048,-8.107 60.9598,-24.7324 l 21.3202,30.6977 c -23.8733,22.5907 -51.5823,33.6743 -83.5626,33.6743 -63.9485,0 -112.53,-47.311 -112.53,-109.1299 -1.2826,-60.1128 49.0292,-110.8481 108.2829,-109.5655 55.418,0 96.8,41.3578 96.8,95.9167 a 133.463,133.463 0 0 1 -3.4001,28.1446 z m 114.6717,-34.969 c -0.4235,-31.9682 -24.2968,-51.1467 -53.7119,-51.1467 -29.4151,0 -53.24,20.0376 -60.1128,51.1467 z"
     id="path21"
     style="fill:#13afc1;fill-opacity:1;stroke-width:1.21000004"
     inkscape:connector-curvature="0" />
  <path
     class="cls-3"
     d="m 1296.1135,288.54586 -101.0228,214.0127 h -15.367 l -101.4585,-214.0127 h 47.7466 l 61.3833,138.5571 60.9355,-138.5571 z"
     id="path23"
     style="fill:#13afc1;fill-opacity:1;stroke-width:1.21000004"
     inkscape:connector-curvature="0" />
  <path
     class="cls-3"
     d="m 1403.985,283.86316 c 60.9598,-1.2826 112.53,49.8762 111.32,109.142 1.21,59.29 -50.3118,110.836 -111.32,109.5534 -60.0644,1.2947 -111.6951,-50.2997 -110.4125,-109.5534 -1.2826,-60.1128 50.3481,-110.0011 110.4125,-109.142 z m 0.4356,40.9101 c -37.0865,0 -65.2311,29.8386 -65.2311,68.6433 0,38.8047 28.1446,67.76 64.8076,67.76 37.0865,0 65.219,-29.8507 65.219,-67.76 -0.012,-38.7926 -28.5681,-68.6433 -64.7955,-68.6433 z"
     id="path25"
     style="fill:#13afc1;fill-opacity:1;stroke-width:1.21000004"
     inkscape:connector-curvature="0" />
  <path
     class="cls-3"
     d="m 1659.7911,502.55856 c -28.5681,0 -53.24,-11.0836 -69.9138,-30.25 v 102.3176 h -44.77 v -286.0803 h 41.7813 v 29.4151 c 15.3428,-21.78 42.2048,-34.0978 72.9025,-34.0978 59.29,0 102.7411,47.3231 102.7411,109.142 0.048,62.6538 -43.5116,109.5534 -102.7411,109.5534 z m -7.26,-177.7732 c -32.8152,0 -63.0894,22.6028 -63.0894,68.2198 0,45.98 30.25,68.6312 63.0894,68.6312 35.816,0 63.9485,-28.1325 63.9485,-68.2077 0,-40.0752 -27.709,-68.6554 -63.9485,-68.6554 z"
     id="path27"
     style="fill:#13afc1;fill-opacity:1;stroke-width:1.21000004"
     inkscape:connector-curvature="0" />
  <path
     class="cls-3"
     d="m 1947.5654,459.08326 v 38.7926 h -177.7248 v -12.3662 l 109.5534,-158.1591 h -99.7524 v -38.8047 h 167.1131 v 12.7897 l -110.0374,157.7477 z"
     id="path29"
     style="fill:#13afc1;fill-opacity:1;stroke-width:1.21000004"
     inkscape:connector-curvature="0" />
  <path
     class="cls-3"
     d="m 1990.6293,180.69856 a 30.0201,30.0201 0 0 1 30.25,29.8386 c 0,16.6254 -13.6488,29.4151 -30.25,29.4151 -17.0489,0 -30.6977,-12.7897 -30.6977,-29.4151 0,-16.6254 13.6488,-29.8386 30.6977,-29.8386 z m -22.5907,107.8473 h 44.77 v 209.33 h -44.77 z"
     id="path31"
     style="fill:#13afc1;fill-opacity:1;stroke-width:1.21000004"
     inkscape:connector-curvature="0" />
  <path
     class="cls-3"
     d="m 2056.2839,178.13336 h 44.77 v 319.7425 h -44.77 z"
     id="path33"
     style="fill:#13afc1;fill-opacity:1;stroke-width:1.21000004"
     inkscape:connector-curvature="0" />
  <path
     class="cls-3"
     d="m 2144.5292,178.13336 h 44.77 v 319.7425 h -44.77 z"
     id="path35"
     style="fill:#13afc1;fill-opacity:1;stroke-width:1.21000004"
     inkscape:connector-curvature="0" />
  <path
     class="cls-3"
     d="m 2399.0406,497.87586 h -41.7813 v -23.4498 c -15.3428,18.3315 -38.3691,28.1325 -66.9251,28.1325 -43.9109,0 -72.9025,-24.2968 -72.9025,-60.5 0,-36.2032 29.8386,-59.6772 77.1617,-59.6772 h 59.29 v -13.6851 c 0,-28.9795 -16.2019,-44.77 -44.77,-44.77 -23.4498,0 -40.4987,10.2245 -57.9832,31.1212 l -26.0029,-26.4385 c 20.8967,-30.25 52.03,-44.77 88.2453,-44.77 51.5823,0 85.6922,31.1212 85.6922,87.3862 z m -45.1935,-83.1391 h -53.7119 c -23.8733,0 -37.0865,8.47 -37.0865,25.5794 0,17.4845 14.9193,27.709 36.663,27.709 30.25,0 54.1354,-20.8846 54.1354,-49.4527 z"
     id="path37"
     style="fill:#13afc1;fill-opacity:1;stroke-width:1.21000004"
     inkscape:connector-curvature="0" />
</svg>
