<?xml version="1.0" encoding="UTF-8"?>
<svg width="38.485mm" height="35.608mm" version="1.1" viewBox="0 0 38.485 35.608" xmlns="http://www.w3.org/2000/svg" xmlns:cc="http://creativecommons.org/ns#" xmlns:dc="http://purl.org/dc/elements/1.1/" xmlns:rdf="http://www.w3.org/1999/02/22-rdf-syntax-ns#">
<metadata>
<rdf:RDF>
<cc:Work rdf:about="">
<dc:format>image/svg+xml</dc:format>
<dc:type rdf:resource="http://purl.org/dc/dcmitype/StillImage"/>
<dc:title/>
</cc:Work>
</rdf:RDF>
</metadata>
<g transform="translate(-154.44 -105.91)">
<path d="m75.541 237.12 0.06637 4.8358 5.8827-3.1088 0.45751-2.3045 2.0118-1.0564 1.4525 5.7135-2.2111 9.1405 1.4966 5.1562-4.9502 6.3728 1.5251 2.1846 4.3622-1.7642 5.5875 1.092 4.3575-3.3609 8.2793-0.42012 5.0112 4.7053 5.1564-2.3526-3.8492-0.25206-3.1229-4.8733-7.1173-4.9573-5.3017-0.84022c4.4262-2.0483 4.4262-2.0483 0 0l6.9427-8.6093-4.9355 0.25019 1.2627-3.3464-3.1245 0.53057 1.3799-4.0331-4.1396 1.6804 1.1343-3.0336-2.6888 0.0268 0.18224-2.6138-2.0273 0.22908-0.52225-2.6746-1.9054 0.34143-1.4707-0.25583-1.5809-0.82387-4.4117 1.8306-1.162 1.0923-1.4525 2.4366 0.19775 2.3026z" fill="none"/>
<path d="m86.531 235-1.1188 6.2038 0.86159 6.7146-3.0727 2.4259 2.9436 0.56393-1.4471 4.5923 5.773 1.5744-10.723 4.7984 5.8873 0.42043 4.836-5.2635 0.75155 6.3555 3.4134-12.351 0.94413 8.9904 4.3575-8.1502 3.9218 7.7301 3.1955-2.7727 1.8156 7.478 1.3073-2.6047" fill="none"/>
<path d="m86.531 235 0.61799 6.122-1.7368 0.0818" fill="none"/>
<path d="m94.636 251.03-2.2802-9.1635-5.2065-0.74896 7.4867 9.9124-4.1649 6.0405-4.326-6.1667 8.4909 0.12619" fill="none"/>
<path d="m94.781 239.86-7.6319 1.2625 9.0118-5.2956" fill="none"/>
<path d="m92.355 241.87 5.55-2.5421" fill="none"/>
<path d="m101.58 242.42-8.3653 2.8527 3.4297-2.6025-4.2873-0.80436" fill="none"/>
<path d="m101.58 242.42-1.641 9.4495" fill="none"/>
<path d="m93.155 234.47-6.4298 2.5588 5.2956 0.47482-4.8722 3.6152" fill="none"/>
<path d="m90.649 231.88-4.1179 3.1139 3.9356-0.50005-3.7411 2.5321" fill="none"/>
<path d="m88.099 229.44-1.5684 5.5593 2.0906-2.8848" fill="none"/>
<path d="m75.541 237.12 5.949 1.727" fill="none"/>
<path d="m76.314 236.36 2.4163-2.1477 2.7602 4.6344" fill="none"/>
<path d="m78.73 234.21 5.2295 1.2735 0.76352-5.964z" fill="none"/>
<path d="m81.948 236.54-3.2177-2.3299" fill="none"/>
<path d="m83.96 235.49 2.5713-0.49029" fill="none"/>
<path d="m78.066 231.73-0.37928 0.45969 0.39734 0.397 0.36122-0.52238z" fill="none"/>
<path d="m77.687 232.19 0.75856-0.12538" fill="none"/>
<path d="m86.145 250.9 0.12908-2.9899 8.3618 3.1161" fill="none"/>
<path d="m87.149 241.12-0.87516 6.7964" fill="none"/>
<path d="m86.194 229.78 0.33702 5.2179-1.8078-5.4737" fill="none"/>
<path d="m83.142 228.7-4.4121 5.5144 3.9e-4 -3.6838" fill="none"/>
<path d="m76.116 234.06 2.6141 0.15489" fill="none"/>
<path d="m87.051 234.43c0.02725-0.0521 1.4437-2.0239 1.5644-2.1778 0.03656-0.0466 1.6769-0.27472 1.709-0.23768 0.01305 0.0151-3.2422 2.4754-3.2752 2.4754-0.01622 0-0.01536-0.027 0.0019-0.0599z" fill="#2ca089"/>
<path d="m87.563 236.58c0-0.0105 0.65698-0.46194 1.4599-1.0041l1.4599-0.9857 1.1045-0.0142c0.60748-7e-3 1.1011-0.0105 1.097-5e-3 -0.01095 0.0125-5.0834 2.0278-5.104 2.0278-0.0095 0-0.01738-8e-3 -0.01738-0.0184z" fill="#2ca089"/>
<path d="m88.847 239.98c0-0.0105 0.72062-0.55356 1.6014-1.2074l1.6014-1.1888 1.3906-0.56568c0.76483-0.31113 1.4044-0.56023 1.4212-0.55355 0.03055 0.0121-5.9364 3.534-5.9875 3.534-0.01485 0-0.02697-8e-3 -0.02697-0.0186z" fill="#2ca089"/>
<path d="m89.903 241.43c-1.2073-0.17851-2.1799-0.32682-2.1613-0.32955 0.27172-0.0399 5.2945-0.87148 7.0031-1.1594 1.2507-0.21072 2.301-0.3768 2.3341-0.36906 0.11018 0.0258-4.6863 2.1948-4.8394 2.1884-0.07772-3e-3 -1.1291-0.15192-2.3364-0.33045z" fill="#2ca089"/>
<path d="m93.799 244.94c0.02163-0.0229 0.68234-0.52649 1.4682-1.1192l1.4289-1.0776 1.7602-0.0807c0.96812-0.0443 1.928-0.0913 2.133-0.10418 0.36168-0.0229 0.26689 0.0128-3.1891 1.199-1.959 0.67241-3.5796 1.2229-3.6012 1.2234-0.02487 4.5e-4 -0.02487-0.0145 0-0.0408z" fill="#2ca089"/>
<path d="m86.557 234.25c-0.0617-0.73848-0.28505-4.3677-0.26987-4.3853 0.02659-0.0308 1.6585-0.31547 1.6781-0.29279 0.0097 0.0112-0.29161 1.1169-0.66964 2.4571-0.37803 1.3402-0.69301 2.4582-0.69996 2.4845-0.0069 0.0264-0.02432-0.0922-0.03866-0.26354z" fill="#2ca089"/>
<path d="m79.464 233.43c0.77882-1.0045 3.6828-4.5957 3.7163-4.5957 0.06504 0 1.3593 0.68016 1.3578 0.71357-0.0012 0.0294-5.1106 4.0374-5.1933 4.0738-0.02455 0.0108 0.02911-0.0754 0.11921-0.19167z" fill="#2ca089"/>
<path d="m80.259 236.63c-0.65737-1.1055-1.1862-2.0205-1.1753-2.0331 0.01544-0.0179 2.684 1.8912 2.7611 1.9752 0.01349 0.0147-0.36355 2.0276-0.3861 2.0613-0.0023 3e-3 -0.54236-0.89779-1.1997-2.0033z" fill="#2ca089"/>
<path d="m80.567 235.44c-0.76163-0.5532-1.3552-1.0058-1.319-1.0058 0.05525 0 4.3296 1.0295 4.4381 1.0689 0.026 9e-3 -1.4427 0.80971-1.709 0.93116-0.01395 6e-3 -0.64853-0.44105-1.4102-0.99427z" fill="#2ca089"/>
<path d="m75.671 241.28c-0.0031-0.29867-0.01695-1.3301-0.03106-2.292-0.01411-0.96191-0.02506-1.7532-0.0244-1.7584 7.8e-4 -5e-3 1.2729 0.36228 2.8272 0.81658l2.8259 0.82599-2.7595 1.4595c-1.5177 0.80269-2.776 1.4666-2.7961 1.4754-0.02011 8e-3 -0.03902-0.2284-0.04201-0.52708z" fill="#2ca089"/>
<path d="m84.776 238.4c-0.33577-1.3229-0.63636-2.5046-0.66798-2.6259l-0.05749-0.22068 1.1796-0.22704c0.64879-0.12486 1.1854-0.21962 1.1926-0.21057 0.01485 0.0189-0.99798 5.6453-1.021 5.6719-0.0083 9e-3 -0.28991-1.0648-0.62568-2.3877z" fill="#2ca089"/>
<path d="m106.37 261.85c-1.2861-1.2075-2.3428-2.2139-2.3482-2.2363-6e-3 -0.0225 0.66659-0.6259 1.4933-1.341l1.5031-1.3002 0.85507 3.525c0.47028 1.9388 0.8506 3.5302 0.84515 3.5365-6e-3 6e-3 -1.0622-0.97653-2.3483-2.1841z" fill="#2ca089"/>
<path d="m95.773 259.82c0.03286-0.0593 0.97916-1.8286 2.1029-3.9318 1.6396-3.0686 2.0532-3.8116 2.0939-3.7614 0.05122 0.0631 3.6953 7.2368 3.7313 7.3453 0.0145 0.0438-0.15515 0.0668-0.67645 0.0918-0.38272 0.0184-2.1468 0.10775-3.9203 0.19865-1.7734 0.0908-3.2619 0.16526-3.3078 0.16526-0.07651 0-0.07844-8e-3 -0.02362-0.1078z" fill="#2ca089"/>
<path d="m91.383 263.08c0.0099-0.033 0.73403-2.6536 1.6091-5.8237 1.0083-3.6527 1.6013-5.7324 1.619-5.6781 0.01544 0.0471 0.21642 1.9077 0.44664 4.1346s0.42767 4.0971 0.43878 4.156c0.01797 0.0954-0.20523 0.28099-2.0303 1.689-1.1278 0.87007-2.0619 1.582-2.0759 1.582-0.014 0-0.01731-0.027-0.0074-0.0599z" fill="#2ca089"/>
<path d="m91.235 262.85c-0.01333-0.0659-0.16507-1.3273-0.33718-2.8031-0.1721-1.4758-0.32339-2.7426-0.33618-2.8151-0.01695-0.0961-0.0068-0.13178 0.03757-0.13178 0.03345 0 0.05822-0.0335 0.05506-0.0744-0.0062-0.08 3.7143-5.51 3.7323-5.4472 0.0077 0.0266-2.9647 10.859-3.1127 11.343-8e-3 0.0264-0.02553-6e-3 -0.0389-0.0718z" fill="#2ca089"/>
<path d="m87.46 256.17c-2.0231-0.55763-2.6476-0.74642-2.6376-0.79733 0.02031-0.10345 1.347-4.3074 1.3553-4.2946 0.03753 0.0577 3.9811 5.6862 4.0282 5.7493 0.05663 0.0759 0.05509 0.0834-0.01633 0.0786-0.04339-3e-3 -1.2717-0.33406-2.7296-0.73589z" fill="#2ca089"/>
<path d="m80.156 261.47c0.05781-0.0725 1.1091-1.4255 2.3361-3.0068 1.227-1.5812 2.2409-2.8723 2.2531-2.8691 3.0074 0.80852 5.4191 1.4838 5.3956 1.5107-0.03862 0.0444-9.9849 4.4968-10.046 4.4968-0.0244 0 0.0031-0.0593 0.06071-0.13177z" fill="#2ca089"/>
<path d="m85.878 244.27c-0.20897-1.6281-0.37282-2.9683-0.36411-2.9784 0.01708-0.0198 1.5254-0.10219 1.5409-0.0841 0.01676 0.0194-0.73637 5.8483-0.76707 5.9368-0.01692 0.0487-0.19406-1.1941-0.40972-2.8743z" fill="#2ca089"/>
<path d="m90.888 245.94c-2.4281-3.216-3.5076-4.6786-3.4583-4.6858 0.03941-5e-3 1.1512 0.1455 2.4707 0.33598l2.3991 0.34633 1.0689 4.288c0.5879 2.3584 1.0646 4.3111 1.0592 4.3394-0.0053 0.0284-1.5982-2.0524-3.5396-4.6239z" fill="#2ca089"/>
<path d="m93.98 248.1-0.68644-2.7683 3.9726-1.3544c2.1849-0.74489 3.9817-1.3438 3.9929-1.3309 0.0149 0.0172-5.7434 7.2032-6.4841 8.0918l-0.10844 0.13006z" fill="#37c8ab"/>
<path d="m94.595 242.21c-1.0642-0.2012-1.9215-0.37897-1.9052-0.39504 0.05181-0.0508 5.0223-2.3103 5.0393-2.2907 0.02689 0.0311-1.116 3.0291-1.1591 3.0408-0.02202 6e-3 -0.91077-0.15382-1.975-0.35502z" fill="#37c8ab"/>
<path d="m87.653 240.93c0.03757-0.0474 8.3296-4.9159 8.3441-4.8991 0.0063 7e-3 -0.27662 0.85321-0.62865 1.8799l-0.64004 1.8667-3.4275 0.56788c-1.8851 0.31233-3.4834 0.57957-3.5517 0.59386-0.06834 0.0143-0.11167 0.0105-0.09629-9e-3z" fill="#37c8ab"/>
<path d="m89.414 237.19c-1.2259-0.11289-2.2366-0.21419-2.246-0.22513-0.0094-0.0109 1.291-0.5404 2.89-1.1766 1.5989-0.63623 2.915-1.1476 2.9247-1.1365 0.0096 0.0111-0.21223 0.63548-0.49306 1.3874l-0.51059 1.3671-0.16806-5e-3c-0.09243-3e-3 -1.171-0.0979-2.3969-0.21076z" fill="#37c8ab"/>
<path d="m86.859 234.86c0.06915-0.0851 3.6591-2.7664 3.6767-2.7461 0.01185 0.0138-0.01275 0.53939-0.05471 1.1681l-0.07628 1.1432-1.5968 0.20333c-0.87825 0.11183-1.6807 0.2154-1.7832 0.23016-0.10251 0.0147-0.17706 0.0153-0.16567 1e-3z" fill="#37c8ab"/>
<path d="m86.775 234.46c-0.0023-0.0636 1.2982-4.672 1.3135-4.6543 0.0067 7e-3 0.11232 0.52432 0.23468 1.1479l0.22246 1.1338-0.80559 1.1151c-0.88448 1.2243-0.96252 1.326-0.96508 1.2575z" fill="#37c8ab"/>
<path d="m78.472 237.89c-1.5034-0.44121-2.7293-0.81687-2.7242-0.83478 0.02116-0.0737 0.638-0.65143 1.7651-1.653l1.1946-1.0616 0.07172 0.10854c0.03945 0.0597 0.59035 0.98182 1.2242 2.0492 0.63389 1.0673 1.1882 1.9999 1.2318 2.0724 0.05566 0.0925 0.06303 0.13026 0.02471 0.12668-0.03001-3e-3 -1.2847-0.36609-2.7881-0.80731z" fill="#37c8ab"/>
<path d="m84.753 250.56c-0.71422-0.13886-1.3055-0.2605-1.314-0.2703-0.0084-9e-3 0.6029-0.50638 1.3586-1.1035 0.7557-0.59714 1.3796-1.0792 1.3864-1.0713 0.01504 0.0174-0.10445 2.6751-0.12088 2.6883-0.0064 5e-3 -0.59594-0.10429-1.3102-0.24316z" fill="#37c8ab"/>
<path d="m88.726 250.86c-1.3537-0.0224-2.47-0.0507-2.4806-0.063-0.03227-0.0374 0.08629-2.7558 0.12022-2.7558 0.04428 0 7.6341 2.8307 7.6553 2.8551 0.02444 0.0282-2.4075 0.0114-5.2949-0.0363z" fill="#37c8ab"/>
<path d="m82.897 262.01c-1.4847-0.10657-2.7083-0.20428-2.7192-0.21716-0.01084-0.0128 2.189-1.0112 4.8885-2.2186 2.6995-1.2074 4.9151-2.1872 4.9235-2.1775 0.01231 0.0143-2.7496 3.0403-4.0799 4.47l-0.31351 0.33694z" fill="#37c8ab"/>
<path d="m102.03 255.83c-1.0093-1.9921-1.828-3.6302-1.8194-3.6402 0.015-0.0173 6.6014 4.5505 6.6693 4.6253 0.029 0.032-2.843 2.5657-2.9661 2.6166-0.0287 0.0119-0.80733-1.477-1.8838-3.6018z" fill="#37c8ab"/>
<path d="m108.87 264c-0.0701-0.21854-1.5973-6.5775-1.5873-6.609 0.0158-0.0498 2.7808 4.2612 2.7786 4.3323-9.2e-4 0.0445-1.1037 2.2652-1.154 2.3246-9e-3 0.0105-0.0256-0.0112-0.0374-0.0479z" fill="#37c8ab"/>
<path d="m95.169 255.44c-0.24722-2.359-0.44291-4.2954-0.43488-4.3032 0.01485-0.0144 4.9916 0.77171 5.0464 0.79706 0.02764 0.0128-4.033 7.6463-4.1221 7.749-0.02573 0.0296-0.20057-1.486-0.48949-4.2429z" fill="#37c8ab"/>
<path d="m85.677 240.13c0.09693-0.53742 0.32345-1.7947 0.50336-2.794 0.17991-0.99927 0.33177-1.7863 0.33746-1.7489 0.06516 0.42762 0.53845 5.3936 0.51642 5.4185-0.01637 0.0186-0.36811 0.0489-0.78163 0.0676l-0.75186 0.0339z" fill="#37c8ab"/>
<path d="m81.454 234.8c-1.3212-0.32478-2.4346-0.59744-2.4742-0.6059-0.04295-9e-3 1.0742-0.91198 2.7673-2.2363 1.5617-1.2215 2.8469-2.2122 2.8561-2.2015 0.02405 0.0278-0.69791 5.6453-0.72475 5.6393-0.01228-3e-3 -1.1033-0.27076-2.4245-0.59553z" fill="#37c8ab"/>
<path d="m109.11 263.99c0.0331-0.0593 0.29047-0.5683 0.57198-1.1311 0.28152-0.56283 0.53435-1.0333 0.56183-1.0455 0.0275-0.0122 0.81772 0.0278 1.7561 0.089l1.7061 0.11113-2.2923 1.0435c-1.2607 0.57391-2.3084 1.0429-2.3281 1.0422-0.0197-9.1e-4 -9e-3 -0.0498 0.0243-0.10911z" fill="#87decd"/>
<path d="m97.325 251.38c-1.3621-0.21821-2.4849-0.40647-2.4952-0.41836-0.01029-0.0119 1.4676-1.8654 3.2841-4.119 1.8166-2.2535 3.3069-4.0738 3.3119-4.0451 0.0188 0.10789-1.5433 8.958-1.5829 8.9683-0.02274 6e-3 -1.1559-0.16769-2.5179-0.38588z" fill="#87decd"/>
<path d="m93.177 244.87c-0.3742-1.4958-0.71668-2.8883-0.71173-2.894 0.01949-0.0223 3.9197 0.73131 3.9199 0.75735 2.02e-4 0.031-3.0839 2.3882-3.1245 2.3882-0.01138 0-0.04898-0.1132-0.0836-0.25156z" fill="#87decd"/>
<path d="m87.191 240.88c0-0.0394-0.08354-0.89512-0.18564-1.9015-0.1021-1.0064-0.17876-1.8378-0.17035-1.8475 0.01395-0.0162 4.8494 0.40904 4.9228 0.43284 0.03122 0.0105-4.4989 3.3879-4.5437 3.3879-0.01271 0-0.02308-0.0322-0.02308-0.0717z" fill="#87decd"/>
<path d="m86.701 235.98c-0.04985-0.49001-0.08536-0.89701-0.07892-0.90447 0.01695-0.0196 3.4387-0.45115 3.4523-0.4354 0.01072 0.0124-2.8676 1.9763-3.1515 2.1504l-0.1312 0.0805z" fill="#87decd"/>
<path d="m88.377 253.96c-1.1354-1.6214-2.0579-2.9532-2.0501-2.9595 0.01922-0.0156 7.9432 0.10686 8.0549 0.12447 0.07429 0.0118-0.23355 0.48139-1.8932 2.8883-1.09 1.5809-1.9966 2.8789-2.0146 2.8846-0.01801 5e-3 -0.96167-1.3164-2.097-2.9378z" fill="#87decd"/>
<path d="m83.993 252.81c-0.38058-1.3043-0.6881-2.3711-0.68338-2.3706 0.11112 9e-3 2.6949 0.52767 2.708 0.54279 0.02214 0.0256-1.2816 4.198-1.312 4.1988-0.01138 2.4e-4 -0.33209-1.0666-0.71267-2.3709z" fill="#87decd"/>
<path d="m83.353 250.03c0.01251-0.0494 0.47517-1.9626 1.0281-4.2515 0.55294-2.2889 1.01-4.1433 1.0156-4.1208 0.05481 0.21735 0.79256 6.2225 0.76696 6.2428-0.50058 0.39761-2.7371 2.1543-2.7772 2.1814-0.04136 0.0279-0.05019 0.0142-0.03344-0.0519z" fill="#87decd"/>
<path d="m90.34 249.34c-2.1743-0.81188-3.959-1.496-3.966-1.5203-0.01407-0.0488 0.80502-6.4418 0.8289-6.4694 0.015-0.0173 7.0613 9.2873 7.1235 9.4066 0.0182 0.035 0.0182 0.0626 0 0.0613-0.0182-1e-3 -1.8121-0.66644-3.9864-1.4783z" fill="#87decd"/>
<path d="m88.467 262.76c-1.428-0.28084-2.5978-0.53218-2.5996-0.55854-0.0031-0.0455 4.5206-5.0056 4.5448-4.9833 0.01275 0.0118 0.71329 5.906 0.7133 6.0015 4e-6 0.033-0.01395 0.0579-0.03106 0.0554-0.01708-2e-3 -1.1994-0.23425-2.6274-0.5151z" fill="#87decd"/>
<path d="m80.599 262.96c-0.37952-0.54634-0.68704-0.9952-0.68338-0.99744 0.0051-3e-3 4.0643 0.28959 5.1704 0.37282 0.1744 0.0131-0.0012 0.0931-1.7602 0.80152-1.0747 0.43282-1.9726 0.79359-1.9954 0.80171-0.02276 8e-3 -0.35193-0.43225-0.73144-0.97861z" fill="#87decd"/>
<path d="m84.061 235.25c0.0134-0.0892 0.17266-1.3242 0.35387-2.7444 0.18122-1.4202 0.33497-2.5886 0.34168-2.5963 0.01563-0.0181 1.647 4.9228 1.6468 4.9876-8.6e-5 0.0268-0.50803 0.14312-1.1288 0.25864-0.62074 0.11553-1.1532 0.22054-1.1833 0.23335-0.04128 0.0176-0.04871-0.0165-0.03029-0.13884z" fill="#87decd"/>
<path d="m85.612 231.98c-0.42044-1.2716-0.74823-2.3197-0.72841-2.3292 0.0198-9e-3 0.30502 0.031 0.63379 0.0898 0.5396 0.0966 0.59947 0.11693 0.61524 0.2089 0.03087 0.18008 0.28048 4.3001 0.26182 4.3217-0.0099 0.0114-0.36199-1.0196-0.78244-2.2912z" fill="#87decd"/>
<path d="m78.793 232.31 0.01087-1.7203 2.0041-0.83086c1.1022-0.45698 2.01-0.82406 2.0172-0.81573 0.0092 0.0107-3.5385 4.4762-4.0049 5.041-0.02323 0.0282-0.03384-0.62591-0.02721-1.6741z" fill="#87decd"/>
<path d="m76.367 236.08c-0.03679-0.15312-0.16634-1.8826-0.14304-1.9096 0.02814-0.0326 1.9993 0.0732 2.1569 0.11575 0.10784 0.0291 0.04636 0.0927-0.9091 0.94116-0.56362 0.50048-1.0381 0.91652-1.0544 0.92457-0.01629 8e-3 -0.03898-0.0243-0.0504-0.0718z" fill="#87decd"/>
<path d="m77.051 234.03-0.80027-0.0521 0.68429-1.15 0.68429-1.15 0.49681-0.46718c0.27324-0.25696 0.50715-0.46719 0.51979-0.46719 0.01263 0 0.023 0.75469 0.023 1.6771v1.6771l-0.40381-7e-3c-0.2221-4e-3 -0.76394-0.0312-1.2041-0.0599zm1.2747-1.6686c0.11493-0.16433 0.20836-0.30988 0.20762-0.32344-7.8e-4 -0.0136-0.10791-0.11609-0.23815-0.22785l-0.2368-0.2032-0.23906 0.28946-0.23907 0.28946 0.23907 0.23675c0.13149 0.13021 0.2522 0.23694 0.26825 0.23717 0.01606 2.4e-4 0.12322-0.13402 0.23815-0.29835z" fill="#87decd"/>
<path d="m78.836 232.26 9e-3 -1.6737 0.78692-0.32736c1.9728-0.82072 3.0166-1.2393 3.0541-1.2248 0.03512 0.0136-2.6287 3.4095-3.5426 4.5163l-0.31654 0.38333z" fill="#008066"/>
<path d="m77.968 231.95 0.11063-0.12954 0.20032 0.1864-0.0917 0.0173c-0.05044 9e-3 -0.14529 0.0259-0.21079 0.0364l-0.11909 0.0191z" fill="#008066"/>
<path d="m77.959 232.36c-0.06091-0.0587-0.11144-0.11438-0.11228-0.12366-7.79e-4 -9e-3 0.07083-0.0254 0.15925-0.0358 0.08842-0.0105 0.18488-0.0258 0.21436-0.0343 0.07681-0.0221 0.06621 0.0139-0.04899 0.16623l-0.1016 0.13434z" fill="#fff"/>
<path d="m93.354 249.15c-1.8791-2.456-4.5296-5.9773-5.5091-7.3191-0.3391-0.46454-0.36646-0.51519-0.28491-0.52729 0.04962-7e-3 0.46255 0.0381 0.91763 0.10103 2.2404 0.31001 3.7433 0.53246 3.7815 0.55974 0.04432 0.0317 2.1409 8.4429 2.1126 8.4756-9e-3 0.0105-0.46689-0.57016-1.0177-1.29z" fill="#37c8ab"/>
<path d="m85.928 232.88c-0.48012-1.4296-1.0072-3.0814-1.0072-3.1565 0-0.0263 0.03911-0.0477 0.08691-0.0477 0.15074 2e-5 1.0502 0.18049 1.0818 0.21707 0.0166 0.0192 0.05565 0.40557 0.08675 0.85852 0.07593 1.1063 0.20977 3.4108 0.19882 3.4235-0.0048 5e-3 -0.20601-0.57712-0.44707-1.2949z" fill="#37c8ab"/>
<path d="m79.518 233.4c0.06243-0.0934 0.70392-0.90296 1.4252-1.7986 1.5566-1.933 2.2154-2.7258 2.2649-2.7258 0.06713 0 1.2885 0.6336 1.2879 0.66812-3.9e-4 0.0262-0.91407 0.75041-3.4269 2.7168-0.85584 0.66973-1.5667 1.2177-1.5797 1.2177-0.01298 0-1.04e-4 -0.0352 0.02865-0.0782z" fill="#008066"/>
<path d="m80.955 263.43c-0.6122-0.84936-0.98664-1.4016-0.96628-1.4252 0.02035-0.0235 5.0935 0.33478 5.1165 0.36137 0.02062 0.0238-3.6938 1.5442-3.7728 1.5442-0.01715 0-0.18701-0.21617-0.37744-0.48038z" fill="#008066"/>
<path d="m89.247 262.9c-2.0787-0.41569-3.2059-0.65106-3.2948-0.68801-0.05515-0.0229 0.22632-0.35471 1.3519-1.5936 1.3822-1.5213 2.4907-2.732 2.8944-3.1612l0.19828-0.21078 0.0228 0.14647c0.05406 0.34711 0.68143 5.6667 0.68143 5.778 0 0.0433-0.03664 0.0645-0.10622 0.0616-0.05842-2e-3 -0.84492-0.15204-1.7478-0.33259z" fill="#2ca089"/>
<path d="m109.1 264.06c0-0.035 0.9197-1.8365 1.0518-2.0602l0.11349-0.19225 0.25747 0.0241c0.1416 0.0132 0.83973 0.0565 1.5514 0.0962 0.71166 0.0397 1.3419 0.0852 1.4005 0.10124 0.087 0.0237-0.21544 0.17518-1.6416 0.82213-2.3962 1.0871-2.7331 1.2361-2.7331 1.2088z" fill="#2ca089"/>
<path d="m83.392 249.94c0.01525-0.0712 0.23636-0.99424 0.49136-2.051 0.94704-3.9251 1.4671-6.0336 1.4965-6.0679 0.01664-0.0194 0.04997 0.12137 0.074 0.31281 0.4599 3.6618 0.70941 5.7412 0.69114 5.7598-0.01882 0.0191-2.6784 2.1048-2.7269 2.1384-0.04331 0.03-0.04846 0.012-0.02619-0.0921z" fill="#2ca089"/>
<path d="m84.577 254.74c-0.30366-1.0014-1.2389-4.2498-1.2274-4.2631 0.02491-0.0288 2.6527 0.50933 2.6527 0.54327 0 0.0542-1.2629 4.0848-1.2916 4.122-0.0046 6e-3 -0.06482-0.17495-0.13372-0.40217z" fill="#2ca089"/>
<path d="m76.996 234.02c-0.38177-0.022-0.69413-0.0536-0.69413-0.07s0.29824-0.53204 0.66276-1.1458l0.66276-1.1159 0.48211-0.44994c0.26516-0.24746 0.49428-0.44163 0.50915-0.43147 0.01489 0.0105 0.02705 0.7495 0.02705 1.643v1.6245l-0.47778-7e-3c-0.26278-4e-3 -0.79014-0.0252-1.1719-0.0473zm1.3411-1.6604c0.11021-0.16296 0.20038-0.30953 0.20038-0.3257 0-0.0162-0.10698-0.12028-0.23774-0.23135l-0.23774-0.20197-0.50508 0.58434 0.23992 0.23548c0.13196 0.12952 0.26241 0.23548 0.2899 0.23548 0.02748 0 0.14015-0.13332 0.25036-0.29628z" fill="#018066" fill-opacity=".99433"/>
<path d="m76.374 236.11c0-0.0109-0.02339-0.28986-0.05199-0.61979-0.09761-1.1261-0.1034-1.2746-0.05047-1.2945 0.05569-0.0209 1.1607 0.0229 1.7357 0.0689 0.26203 0.0209 0.38499 0.0464 0.37637 0.0781-0.01614 0.0593-0.44246 0.45747-1.2595 1.1762-0.58642 0.51583-0.75003 0.64478-0.75003 0.59111z" fill="#018066" fill-opacity=".99433"/>
<path d="m85.137 250.61c-0.38673-0.0768-0.91004-0.18072-1.1629-0.23102-0.25286-0.0503-0.45975-0.10527-0.45975-0.12212 0-0.0414 2.6321-2.1408 2.6532-2.1163 0.0136 0.0159-0.09522 2.5057-0.11215 2.5657-0.02054 0.0728-0.1192 0.0624-0.91844-0.0962z" fill="#018066" fill-opacity=".99433"/>
<path d="m88.186 250.84c-1.05-0.0198-1.9165-0.0447-1.9257-0.0555-0.01988-0.023 0.0632-2.1494 0.09712-2.4856l0.02355-0.23336 1.0637 0.39264c1.1968 0.44177 5.1499 1.9194 5.9497 2.2239l0.52285 0.19909-1.9111-3e-3c-1.0511-1e-3 -2.7702-0.0189-3.8201-0.0386z" fill="#018066" fill-opacity=".99433"/>
<text x="9.1960649" y="259.11206" fill="#018066" fill-opacity=".99914" font-family="sans-serif" font-size="10.583px" letter-spacing="0px" stroke-width=".26458" word-spacing="0px" style="line-height:1.25" xml:space="preserve"><tspan x="9.1960649" y="259.11206" fill="#018066" fill-opacity=".99914" font-family="Roboto" font-size="25.4px" stroke-width=".26458" style="font-feature-settings:normal;font-variant-caps:normal;font-variant-ligatures:normal;font-variant-numeric:normal">Devop     illa</tspan></text>
<text x="107.40511" y="250.23949" fill="#000000" font-family="sans-serif" font-size="10.583px" letter-spacing="0px" stroke-width=".26458" word-spacing="0px" style="line-height:1.25" xml:space="preserve"><tspan x="107.40511" y="250.23949" stroke-width=".26458"> </tspan></text>
<path d="m78.215 190.56 0.06637 4.8358 5.8827-3.1088 0.45751-2.3045 2.0118-1.0564 1.4525 5.7135-2.2111 9.1405 1.4966 5.1562-4.9502 6.3728 1.5251 2.1846 4.3621-1.7642 5.5875 1.092 4.3575-3.3609 8.2793-0.42012 5.0112 4.7053 5.1564-2.3526-3.8492-0.25206-3.1229-4.8733-7.1173-4.9573-5.3017-0.84022c4.4262-2.0483 4.4262-2.0483 0 0l6.9427-8.6093-4.9355 0.25019 1.2627-3.3464-3.1245 0.53057 1.3799-4.0331-4.1396 1.6804 1.1343-3.0336-2.6888 0.0268 0.18224-2.6138-2.0273 0.22908-0.52225-2.6746-1.9054 0.34143-1.4707-0.25583-1.5809-0.82387-4.4117 1.8306-1.162 1.0923-1.4525 2.4366 0.19775 2.3026z" fill="none"/>
<path d="m89.205 188.44-1.1188 6.2038 0.86159 6.7146-3.0727 2.4259 2.9436 0.56393-1.4471 4.5923 5.773 1.5744-10.723 4.7984 5.8873 0.42043 4.836-5.2635 0.75155 6.3555 3.4134-12.351 0.94414 8.9904 4.3575-8.1502 3.9218 7.7301 3.1955-2.7727 1.8156 7.478 1.3073-2.6047" fill="none"/>
<path d="m89.205 188.44 0.61799 6.122-1.7368 0.0818" fill="none"/>
<path d="m97.309 204.47-2.2802-9.1635-5.2065-0.74896 7.4867 9.9124-4.1649 6.0405-4.326-6.1667 8.4909 0.12619" fill="none"/>
<path d="m97.455 193.3-7.6319 1.2625 9.0118-5.2956" fill="none"/>
<path d="m95.029 195.31 5.55-2.5421" fill="none"/>
<path d="m104.25 195.86-8.3653 2.8527 3.4297-2.6025-4.2873-0.80436" fill="none"/>
<path d="m104.25 195.86-1.641 9.4495" fill="none"/>
<path d="m95.829 187.91-6.4298 2.5588 5.2956 0.47482-4.8722 3.6152" fill="none"/>
<path d="m93.323 185.32-4.1179 3.1139 3.9356-0.50005-3.7411 2.5321" fill="none"/>
<path d="m90.773 182.88-1.5684 5.5593 2.0906-2.8848" fill="none"/>
<path d="m78.215 190.56 5.949 1.727" fill="none"/>
<path d="m78.988 189.8 2.4163-2.1477 2.7602 4.6344" fill="none"/>
<path d="m81.404 187.65 5.2295 1.2735 0.76352-5.964z" fill="none"/>
<path d="m84.622 189.98-3.2177-2.3299" fill="none"/>
<path d="m86.633 188.93 2.5713-0.49029" fill="none"/>
<path d="m80.74 185.17-0.37928 0.45969 0.39734 0.397 0.36122-0.52238z" fill="none"/>
<path d="m80.36 185.63 0.75856-0.12538" fill="none"/>
<path d="m88.819 204.34 0.12908-2.9899 8.3618 3.1161" fill="none"/>
<path d="m89.823 194.56-0.87516 6.7964" fill="none"/>
<path d="m88.868 183.22 0.33702 5.2179-1.8078-5.4737" fill="none"/>
<path d="m85.816 182.14-4.4121 5.5144 2.65e-4 -3.6838" fill="none"/>
<path d="m78.79 187.5 2.6141 0.15489" fill="none"/>
<path d="m89.725 187.87c0.02725-0.0521 1.4437-2.0239 1.5644-2.1778 0.03656-0.0466 1.6769-0.27472 1.709-0.23768 0.01304 0.0151-3.2422 2.4754-3.2752 2.4754-0.01622 0-0.01537-0.027 0.0019-0.0599z" fill="#2ca089"/>
<path d="m90.237 190.02c0-0.0105 0.65698-0.46194 1.4599-1.0041l1.4599-0.9857 1.1045-0.0142c0.60749-7e-3 1.1011-0.0105 1.097-5e-3 -0.01095 0.0125-5.0834 2.0278-5.104 2.0278-0.0095 0-0.01738-8e-3 -0.01738-0.0184z" fill="#2ca089"/>
<path d="m91.521 193.42c0-0.0105 0.72062-0.55356 1.6014-1.2074l1.6014-1.1888 1.3906-0.56568c0.76483-0.31113 1.4044-0.56023 1.4212-0.55355 0.03055 0.0121-5.9364 3.534-5.9875 3.534-0.01484 0-0.02697-8e-3 -0.02697-0.0186z" fill="#2ca089"/>
<path d="m92.577 194.87c-1.2073-0.17851-2.1799-0.32682-2.1613-0.32955 0.27172-0.0399 5.2945-0.87148 7.0031-1.1594 1.2507-0.21072 2.301-0.3768 2.3341-0.36906 0.11019 0.0258-4.6863 2.1948-4.8394 2.1884-0.07772-3e-3 -1.1291-0.15192-2.3364-0.33045z" fill="#2ca089"/>
<path d="m96.472 198.38c0.02162-0.0229 0.68234-0.52649 1.4682-1.1192l1.4289-1.0776 1.7602-0.0807c0.96812-0.0443 1.928-0.0913 2.133-0.10418 0.36168-0.0229 0.26689 0.0128-3.1891 1.199-1.959 0.67241-3.5796 1.2229-3.6012 1.2234-0.02487 4.5e-4 -0.02487-0.0145 0-0.0408z" fill="#2ca089"/>
<path d="m89.231 187.69c-0.0617-0.73848-0.28505-4.3677-0.26987-4.3853 0.02659-0.0308 1.6585-0.31547 1.6781-0.29279 0.0097 0.0112-0.29161 1.1169-0.66964 2.4571-0.37803 1.3402-0.69301 2.4582-0.69996 2.4845-0.0069 0.0264-0.02432-0.0922-0.03866-0.26354z" fill="#2ca089"/>
<path d="m82.138 186.87c0.77882-1.0045 3.6828-4.5957 3.7163-4.5957 0.06504 0 1.3593 0.68016 1.3578 0.71357-0.0013 0.0294-5.1106 4.0374-5.1933 4.0738-0.02455 0.0108 0.02911-0.0754 0.11921-0.19167z" fill="#2ca089"/>
<path d="m82.933 190.07c-0.65737-1.1055-1.1862-2.0205-1.1753-2.0331 0.01545-0.0179 2.684 1.8912 2.7611 1.9752 0.01349 0.0147-0.36355 2.0276-0.3861 2.0613-0.0024 3e-3 -0.54236-0.89779-1.1997-2.0033z" fill="#2ca089"/>
<path d="m83.24 188.88c-0.76163-0.5532-1.3552-1.0058-1.319-1.0058 0.05525 0 4.3296 1.0295 4.4381 1.0689 0.02601 9e-3 -1.4427 0.80971-1.709 0.93116-0.01394 6e-3 -0.64853-0.44105-1.4102-0.99427z" fill="#2ca089"/>
<path d="m78.345 194.72c-0.0031-0.29867-0.01696-1.3301-0.03106-2.292-0.0141-0.96191-0.02506-1.7532-0.02439-1.7584 7.94e-4 -5e-3 1.2729 0.36228 2.8272 0.81658l2.8259 0.82599-2.7595 1.4595c-1.5177 0.80269-2.776 1.4666-2.7961 1.4754-0.02011 8e-3 -0.03902-0.2284-0.04201-0.52708z" fill="#2ca089"/>
<path d="m87.45 191.84c-0.33577-1.3229-0.63636-2.5046-0.66798-2.6259l-0.05749-0.22068 1.1796-0.22704c0.64879-0.12486 1.1854-0.21962 1.1926-0.21057 0.01484 0.0189-0.99798 5.6453-1.021 5.6719-0.0083 9e-3 -0.28991-1.0648-0.62568-2.3877z" fill="#2ca089"/>
<path d="m109.04 215.29c-1.2861-1.2075-2.3428-2.2139-2.3482-2.2363-6e-3 -0.0225 0.66659-0.6259 1.4933-1.341l1.5031-1.3002 0.85507 3.525c0.47028 1.9388 0.8506 3.5302 0.84515 3.5365-6e-3 6e-3 -1.0622-0.97653-2.3483-2.1841z" fill="#2ca089"/>
<path d="m98.446 213.26c0.0329-0.0593 0.97916-1.8286 2.1029-3.9318 1.6396-3.0686 2.0532-3.8116 2.0939-3.7614 0.0512 0.0631 3.6953 7.2368 3.7313 7.3453 0.0145 0.0438-0.15515 0.0668-0.67645 0.0918-0.38272 0.0184-2.1468 0.10775-3.9203 0.19865-1.7734 0.0908-3.2619 0.16526-3.3078 0.16526-0.0765 0-0.0784-8e-3 -0.0236-0.1078z" fill="#2ca089"/>
<path d="m94.057 216.52c0.0099-0.033 0.73403-2.6536 1.6091-5.8237 1.0083-3.6527 1.6013-5.7324 1.619-5.6781 0.01542 0.0471 0.21642 1.9077 0.44664 4.1346 0.23023 2.2269 0.42767 4.0971 0.43878 4.156 0.018 0.0954-0.20523 0.28099-2.0303 1.689-1.1277 0.87007-2.0619 1.582-2.0759 1.582-0.014 0-0.0173-0.027-0.0074-0.0599z" fill="#2ca089"/>
<path d="m93.909 216.29c-0.01333-0.0659-0.16507-1.3273-0.33718-2.8031-0.1721-1.4758-0.32339-2.7426-0.33618-2.8151-0.01696-0.0961-0.0068-0.13178 0.03757-0.13178 0.03345 0 0.05822-0.0335 0.05506-0.0744-0.0062-0.08 3.7143-5.51 3.7323-5.4472 0.0077 0.0266-2.9647 10.859-3.1127 11.343-8e-3 0.0264-0.02553-6e-3 -0.0389-0.0718z" fill="#2ca089"/>
<path d="m90.133 209.61c-2.0231-0.55763-2.6476-0.74642-2.6376-0.79733 0.02032-0.10345 1.347-4.3074 1.3553-4.2946 0.03753 0.0577 3.9811 5.6862 4.0282 5.7493 0.05663 0.0759 0.05509 0.0834-0.01632 0.0786-0.04339-3e-3 -1.2717-0.33406-2.7296-0.73589z" fill="#2ca089"/>
<path d="m82.83 214.91c0.05781-0.0725 1.1091-1.4255 2.3361-3.0068 1.227-1.5812 2.2409-2.8723 2.2531-2.8691 3.0074 0.80852 5.4191 1.4838 5.3956 1.5107-0.03862 0.0444-9.9849 4.4968-10.046 4.4968-0.02439 0 0.0031-0.0593 0.06071-0.13177z" fill="#2ca089"/>
<path d="m88.552 197.72c-0.20896-1.6281-0.37281-2.9683-0.36411-2.9784 0.01709-0.0198 1.5254-0.10219 1.5409-0.0841 0.01675 0.0194-0.73637 5.8483-0.76707 5.9368-0.01691 0.0487-0.19406-1.1941-0.40972-2.8743z" fill="#2ca089"/>
<path d="m93.562 199.38c-2.4281-3.216-3.5076-4.6786-3.4583-4.6858 0.03941-5e-3 1.1512 0.1455 2.4707 0.33598l2.3991 0.34633 1.0689 4.288c0.5879 2.3584 1.0646 4.3111 1.0592 4.3394-0.0053 0.0284-1.5982-2.0524-3.5396-4.6239z" fill="#2ca089"/>
<path d="m96.654 201.54-0.68644-2.7683 3.9726-1.3544c2.1849-0.74489 3.9817-1.3438 3.9929-1.3309 0.0149 0.0172-5.7434 7.2032-6.4841 8.0918l-0.10844 0.13006z" fill="#37c8ab"/>
<path d="m97.269 195.65c-1.0642-0.2012-1.9215-0.37897-1.9052-0.39504 0.05181-0.0508 5.0223-2.3103 5.0393-2.2907 0.0269 0.0311-1.116 3.0291-1.1591 3.0408-0.022 6e-3 -0.91077-0.15382-1.975-0.35502z" fill="#37c8ab"/>
<path d="m90.327 194.37c0.03757-0.0474 8.3296-4.9159 8.3441-4.8991 6e-3 7e-3 -0.27662 0.85321-0.62865 1.8799l-0.64003 1.8667-3.4275 0.56788c-1.8851 0.31233-3.4834 0.57957-3.5517 0.59386-0.06834 0.0143-0.11167 0.0105-0.09629-9e-3z" fill="#37c8ab"/>
<path d="m92.088 190.63c-1.2259-0.11289-2.2366-0.21419-2.246-0.22513-0.0094-0.0109 1.291-0.5404 2.89-1.1766 1.5989-0.63623 2.915-1.1476 2.9247-1.1365 0.0096 0.0111-0.21223 0.63548-0.49306 1.3874l-0.51059 1.3671-0.16806-5e-3c-0.09243-3e-3 -1.171-0.0979-2.3969-0.21076z" fill="#37c8ab"/>
<path d="m89.533 188.3c0.06915-0.0851 3.6591-2.7664 3.6767-2.7461 0.01185 0.0138-0.01275 0.53939-0.05471 1.1681l-0.07628 1.1432-1.5968 0.20333c-0.87825 0.11183-1.6807 0.2154-1.7832 0.23016-0.10251 0.0147-0.17706 0.0153-0.16567 1e-3z" fill="#37c8ab"/>
<path d="m89.448 187.9c-0.0024-0.0636 1.2982-4.672 1.3135-4.6543 0.0067 7e-3 0.11233 0.52432 0.23468 1.1479l0.22246 1.1338-0.80559 1.1151c-0.88448 1.2243-0.96252 1.326-0.96508 1.2575z" fill="#37c8ab"/>
<path d="m81.146 191.33c-1.5034-0.44121-2.7293-0.81687-2.7242-0.83478 0.02117-0.0737 0.638-0.65143 1.7651-1.653l1.1946-1.0616 0.07172 0.10854c0.03945 0.0597 0.59036 0.98182 1.2242 2.0492 0.63389 1.0673 1.1882 1.9999 1.2318 2.0724 0.05566 0.0925 0.06303 0.13026 0.02471 0.12668-0.03001-3e-3 -1.2847-0.36609-2.7881-0.80731z" fill="#37c8ab"/>
<path d="m87.427 204c-0.71422-0.13886-1.3055-0.2605-1.314-0.2703-0.0084-9e-3 0.6029-0.50638 1.3586-1.1035 0.7557-0.59714 1.3796-1.0792 1.3864-1.0713 0.01503 0.0174-0.10445 2.6751-0.12088 2.6883-0.0064 5e-3 -0.59594-0.10429-1.3102-0.24316z" fill="#37c8ab"/>
<path d="m91.4 204.3c-1.3537-0.0224-2.47-0.0507-2.4806-0.063-0.03227-0.0374 0.08629-2.7558 0.12022-2.7558 0.04428 0 7.6341 2.8307 7.6553 2.8551 0.02445 0.0282-2.4075 0.0114-5.2949-0.0363z" fill="#37c8ab"/>
<path d="m85.57 215.45c-1.4847-0.10657-2.7083-0.20428-2.7192-0.21716-0.01085-0.0128 2.189-1.0112 4.8885-2.2186 2.6995-1.2074 4.9151-2.1872 4.9235-2.1775 0.0123 0.0143-2.7496 3.0403-4.0799 4.47l-0.31351 0.33694z" fill="#37c8ab"/>
<path d="m104.7 209.27c-1.0093-1.9921-1.828-3.6302-1.8194-3.6402 0.015-0.0173 6.6014 4.5505 6.6693 4.6253 0.029 0.032-2.843 2.5657-2.9661 2.6166-0.0287 0.0119-0.80733-1.477-1.8838-3.6018z" fill="#37c8ab"/>
<path d="m111.55 217.44c-0.0701-0.21854-1.5973-6.5775-1.5873-6.609 0.0158-0.0498 2.7808 4.2612 2.7786 4.3323-8e-4 0.0445-1.1037 2.2652-1.154 2.3246-9e-3 0.0105-0.0256-0.0112-0.0374-0.0479z" fill="#37c8ab"/>
<path d="m97.843 208.88c-0.24722-2.359-0.44291-4.2954-0.43488-4.3032 0.01484-0.0144 4.9916 0.77171 5.0464 0.79706 0.0276 0.0128-4.033 7.6463-4.1221 7.749-0.0257 0.0296-0.20057-1.486-0.48949-4.2429z" fill="#37c8ab"/>
<path d="m88.35 193.57c0.09693-0.53742 0.32345-1.7947 0.50336-2.794 0.17991-0.99927 0.33177-1.7863 0.33746-1.7489 0.06516 0.42762 0.53845 5.3936 0.51642 5.4185-0.01638 0.0186-0.36811 0.0489-0.78163 0.0676l-0.75186 0.0339z" fill="#37c8ab"/>
<path d="m84.128 188.24c-1.3212-0.32478-2.4346-0.59744-2.4742-0.6059-0.04295-9e-3 1.0742-0.91198 2.7673-2.2363 1.5617-1.2215 2.8469-2.2122 2.8561-2.2015 0.02405 0.0278-0.6979 5.6453-0.72475 5.6393-0.01228-3e-3 -1.1033-0.27076-2.4245-0.59553z" fill="#37c8ab"/>
<path d="m111.78 217.43c0.0331-0.0593 0.29047-0.5683 0.57198-1.1311 0.28152-0.56283 0.53435-1.0333 0.56183-1.0455 0.0275-0.0122 0.81772 0.0278 1.7561 0.089l1.7061 0.11113-2.2923 1.0435c-1.2607 0.57391-2.3084 1.0429-2.3281 1.0422-0.0197-7.9e-4 -9e-3 -0.0498 0.0243-0.10911z" fill="#87decd"/>
<path d="m99.999 204.82c-1.3621-0.21821-2.4849-0.40647-2.4952-0.41836-0.01029-0.0119 1.4676-1.8654 3.2842-4.119 1.8166-2.2535 3.3069-4.0738 3.3119-4.0451 0.0188 0.10789-1.5433 8.958-1.5829 8.9683-0.0228 6e-3 -1.1559-0.16769-2.5179-0.38588z" fill="#87decd"/>
<path d="m95.851 198.31c-0.37421-1.4958-0.71668-2.8883-0.71173-2.894 0.0195-0.0223 3.9197 0.73131 3.9199 0.75735 2e-4 0.031-3.0839 2.3882-3.1245 2.3882-0.01138 0-0.04898-0.1132-0.0836-0.25156z" fill="#87decd"/>
<path d="m89.864 194.32c0-0.0394-0.08354-0.89512-0.18564-1.9015-0.1021-1.0064-0.17876-1.8378-0.17035-1.8475 0.01394-0.0162 4.8494 0.40904 4.9228 0.43284 0.03122 0.0105-4.4989 3.3879-4.5437 3.3879-0.0127 0-0.02307-0.0322-0.02307-0.0717z" fill="#87decd"/>
<path d="m89.375 189.42c-0.04985-0.49001-0.08536-0.89701-0.07892-0.90447 0.01696-0.0196 3.4387-0.45115 3.4523-0.4354 0.01072 0.0124-2.8676 1.9763-3.1515 2.1504l-0.1312 0.0805z" fill="#87decd"/>
<path d="m91.051 207.4c-1.1354-1.6214-2.0579-2.9532-2.0501-2.9595 0.01924-0.0156 7.9432 0.10686 8.0549 0.12447 0.07429 0.0118-0.23354 0.48139-1.8932 2.8883-1.09 1.5809-1.9966 2.8789-2.0146 2.8846-0.01802 5e-3 -0.96166-1.3164-2.097-2.9378z" fill="#87decd"/>
<path d="m86.667 206.25c-0.38058-1.3043-0.6881-2.3711-0.68338-2.3706 0.11112 9e-3 2.6949 0.52767 2.708 0.54279 0.02214 0.0256-1.2816 4.198-1.312 4.1988-0.01138 2.4e-4 -0.33209-1.0666-0.71267-2.3709z" fill="#87decd"/>
<path d="m86.026 203.47c0.01251-0.0494 0.47516-1.9626 1.0281-4.2515 0.55293-2.2889 1.01-4.1433 1.0156-4.1208 0.05481 0.21735 0.79256 6.2225 0.76696 6.2428-0.50059 0.39761-2.7371 2.1543-2.7772 2.1814-0.04136 0.0279-0.05019 0.0142-0.03344-0.0519z" fill="#87decd"/>
<path d="m93.014 202.78c-2.1743-0.81188-3.959-1.496-3.966-1.5203-0.01408-0.0488 0.80502-6.4418 0.8289-6.4694 0.015-0.0173 7.0613 9.2873 7.1235 9.4066 0.0182 0.035 0.0182 0.0626 0 0.0613-0.0182-1e-3 -1.8121-0.66644-3.9864-1.4783z" fill="#87decd"/>
<path d="m91.14 216.2c-1.428-0.28084-2.5978-0.53218-2.5996-0.55854-0.0031-0.0455 4.5206-5.0056 4.5448-4.9833 0.01275 0.0118 0.71329 5.906 0.7133 6.0015 3e-6 0.033-0.01394 0.0579-0.03106 0.0554-0.01709-2e-3 -1.1994-0.23425-2.6274-0.5151z" fill="#87decd"/>
<path d="m83.272 216.4c-0.37952-0.54634-0.68704-0.9952-0.68338-0.99744 0.0051-3e-3 4.0643 0.28959 5.1704 0.37282 0.1744 0.0131-0.0013 0.0931-1.7602 0.80152-1.0747 0.43282-1.9726 0.79359-1.9954 0.80171-0.02275 8e-3 -0.35193-0.43225-0.73144-0.97861z" fill="#87decd"/>
<path d="m86.735 188.69c0.01341-0.0892 0.17266-1.3242 0.35388-2.7444 0.18122-1.4202 0.33497-2.5886 0.34168-2.5963 0.01564-0.0181 1.647 4.9228 1.6468 4.9876-8.7e-5 0.0268-0.50803 0.14312-1.1288 0.25864-0.62074 0.11553-1.1532 0.22054-1.1833 0.23335-0.04128 0.0176-0.04871-0.0165-0.03029-0.13884z" fill="#87decd"/>
<path d="m88.285 185.42c-0.42044-1.2716-0.74823-2.3197-0.72841-2.3292 0.01979-9e-3 0.30502 0.031 0.63379 0.0898 0.5396 0.0966 0.59947 0.11693 0.61524 0.2089 0.03087 0.18008 0.28048 4.3001 0.26182 4.3217-0.0099 0.0114-0.362-1.0196-0.78244-2.2912z" fill="#87decd"/>
<path d="m81.466 185.75 0.01087-1.7203 2.0041-0.83086c1.1022-0.45698 2.01-0.82406 2.0172-0.81573 0.0092 0.0107-3.5385 4.4762-4.0049 5.041-0.02323 0.0282-0.03384-0.62591-0.02721-1.6741z" fill="#87decd"/>
<path d="m79.041 189.52c-0.03679-0.15312-0.16634-1.8826-0.14304-1.9096 0.02814-0.0326 1.9993 0.0732 2.1569 0.11575 0.10784 0.0291 0.04636 0.0927-0.9091 0.94116-0.56362 0.50048-1.0381 0.91652-1.0544 0.92457-0.0163 8e-3 -0.03898-0.0243-0.0504-0.0718z" fill="#87decd"/>
<path d="m79.724 187.47-0.80027-0.0521 0.6843-1.15 0.68429-1.15 0.4968-0.46718c0.27325-0.25696 0.50715-0.46719 0.51979-0.46719 0.01262 0 0.02299 0.75469 0.02299 1.6771v1.6771l-0.40381-7e-3c-0.2221-4e-3 -0.76394-0.0312-1.2041-0.0599zm1.2747-1.6686c0.11493-0.16433 0.20836-0.30988 0.20762-0.32344-7.94e-4 -0.0136-0.10791-0.11609-0.23815-0.22785l-0.2368-0.2032-0.23906 0.28946-0.23907 0.28946 0.23907 0.23675c0.13149 0.13021 0.2522 0.23694 0.26825 0.23717 0.01606 2.4e-4 0.12321-0.13402 0.23815-0.29835z" fill="#87decd"/>
<path d="m81.51 185.7 9e-3 -1.6737 0.78692-0.32736c1.9728-0.82072 3.0166-1.2393 3.0541-1.2248 0.03512 0.0136-2.6287 3.4095-3.5426 4.5163l-0.31653 0.38333z" fill="#008066"/>
<path d="m80.642 185.39 0.11063-0.12954 0.10016 0.0932 0.10016 0.0932-0.0917 0.0173c-0.05044 9e-3 -0.14529 0.0259-0.21079 0.0364l-0.11909 0.0191z" fill="#008066"/>
<path d="m80.633 185.81c-0.06091-0.0587-0.11144-0.11438-0.11228-0.12366-7.94e-4 -9e-3 0.07083-0.0254 0.15925-0.0358 0.08842-0.0105 0.18488-0.0258 0.21436-0.0343 0.07681-0.0221 0.06621 0.0139-0.04899 0.16623l-0.10159 0.13434z" fill="#fff"/>
<path d="m96.027 202.59c-1.8791-2.456-4.5296-5.9773-5.5091-7.3191-0.3391-0.46454-0.36646-0.51519-0.28491-0.52729 0.04962-7e-3 0.46255 0.0381 0.91763 0.10103 2.2404 0.31001 3.7433 0.53246 3.7815 0.55974 0.04432 0.0317 2.1409 8.4429 2.1126 8.4756-9e-3 0.0105-0.46689-0.57016-1.0177-1.29z" fill="#37c8ab"/>
<path d="m88.602 186.32c-0.48012-1.4296-1.0072-3.0814-1.0072-3.1565 0-0.0263 0.03911-0.0477 0.08691-0.0477 0.15074 2e-5 1.0502 0.18049 1.0818 0.21707 0.01659 0.0192 0.05565 0.40557 0.08675 0.85852 0.07593 1.1063 0.20976 3.4108 0.19882 3.4235-0.0048 5e-3 -0.20601-0.57712-0.44707-1.2949z" fill="#37c8ab"/>
<path d="m82.191 186.84c0.06243-0.0934 0.70392-0.90296 1.4252-1.7986 1.5566-1.933 2.2154-2.7258 2.2649-2.7258 0.06713 0 1.2885 0.6336 1.2879 0.66812-2.65e-4 0.0262-0.91407 0.75041-3.4269 2.7168-0.85584 0.66973-1.5667 1.2177-1.5797 1.2177-0.01299 0-1.03e-4 -0.0352 0.02865-0.0782z" fill="#008066"/>
<path d="m83.629 216.87c-0.6122-0.84936-0.98663-1.4016-0.96628-1.4252 0.02035-0.0235 5.0935 0.33478 5.1165 0.36137 0.02061 0.0238-3.6938 1.5442-3.7728 1.5442-0.01714 0-0.18701-0.21617-0.37744-0.48038z" fill="#008066"/>
<path d="m91.921 216.34c-2.0787-0.41569-3.2059-0.65106-3.2948-0.68801-0.05515-0.0229 0.22632-0.35471 1.3519-1.5936 1.3822-1.5213 2.4907-2.732 2.8944-3.1612l0.19828-0.21078 0.02281 0.14647c0.05406 0.34711 0.68143 5.6667 0.68143 5.778 0 0.0433-0.03664 0.0645-0.10622 0.0616-0.05842-2e-3 -0.84492-0.15204-1.7478-0.33259z" fill="#2ca089"/>
<path d="m111.77 217.5c0-0.035 0.9197-1.8365 1.0518-2.0602l0.11349-0.19225 0.25747 0.0241c0.1416 0.0132 0.83973 0.0565 1.5514 0.0962 0.71166 0.0397 1.3419 0.0852 1.4005 0.10124 0.087 0.0237-0.21544 0.17518-1.6416 0.82212-2.3962 1.0871-2.7331 1.2361-2.7331 1.2089z" fill="#2ca089"/>
<path d="m86.066 203.38c0.01524-0.0712 0.23637-0.99424 0.49136-2.051 0.94704-3.9251 1.4671-6.0336 1.4965-6.0679 0.01664-0.0194 0.04997 0.12137 0.074 0.31281 0.4599 3.6618 0.70941 5.7412 0.69114 5.7598-0.01881 0.0191-2.6784 2.1048-2.7269 2.1384-0.04331 0.03-0.04846 0.012-0.02619-0.0921z" fill="#2ca089"/>
<path d="m87.251 208.18c-0.30366-1.0014-1.2389-4.2498-1.2274-4.2631 0.0249-0.0288 2.6527 0.50933 2.6527 0.54327 0 0.0542-1.2629 4.0848-1.2916 4.122-0.0046 6e-3 -0.06482-0.17495-0.13372-0.40217z" fill="#2ca089"/>
<path d="m79.67 187.46c-0.38177-0.022-0.69413-0.0536-0.69413-0.07s0.29824-0.53204 0.66276-1.1458l0.66276-1.1159 0.48211-0.44994c0.26516-0.24746 0.49428-0.44163 0.50915-0.43147 0.0149 0.0105 0.02705 0.7495 0.02705 1.643v1.6245l-0.47778-7e-3c-0.26278-4e-3 -0.79014-0.0252-1.1719-0.0473zm1.3411-1.6604c0.11021-0.16296 0.20038-0.30953 0.20038-0.3257 0-0.0162-0.10698-0.12028-0.23774-0.23135l-0.23774-0.20197-0.50508 0.58434 0.23992 0.23548c0.13196 0.12952 0.26241 0.23548 0.2899 0.23548 0.02748 0 0.14015-0.13332 0.25036-0.29628z" fill="#018066" fill-opacity=".99433"/>
<path d="m79.048 189.55c0-0.0109-0.02339-0.28986-0.05199-0.61979-0.09761-1.1261-0.1034-1.2746-0.05047-1.2945 0.05569-0.0209 1.1607 0.0229 1.7357 0.0689 0.26203 0.0209 0.38498 0.0464 0.37637 0.0781-0.01614 0.0593-0.44246 0.45747-1.2595 1.1762-0.58642 0.51583-0.75003 0.64478-0.75003 0.59111z" fill="#018066" fill-opacity=".99433"/>
<path d="m87.81 204.05c-0.38673-0.0768-0.91004-0.18072-1.1629-0.23102-0.25286-0.0503-0.45975-0.10527-0.45975-0.12212 0-0.0414 2.6321-2.1408 2.6532-2.1163 0.0136 0.0159-0.09522 2.5057-0.11215 2.5657-0.02053 0.0728-0.11919 0.0624-0.91844-0.0962z" fill="#018066" fill-opacity=".99433"/>
<path d="m90.859 204.28c-1.05-0.0198-1.9165-0.0447-1.9257-0.0555-0.01987-0.023 0.0632-2.1494 0.09712-2.4856l0.02355-0.23336 1.0637 0.39264c1.1968 0.44177 5.1499 1.9194 5.9497 2.2239l0.52285 0.19909-1.9111-3e-3c-1.0511-1e-3 -2.7702-0.0189-3.8201-0.0386z" fill="#018066" fill-opacity=".99433"/>
<text x="11.214893" y="212.55254" fill="#018066" fill-opacity=".99914" font-family="sans-serif" font-size="10.583px" letter-spacing="0px" stroke-width=".26458" word-spacing="0px" style="line-height:1.25" xml:space="preserve"><tspan x="11.214893" y="212.55254" fill="#018066" fill-opacity=".99914" font-family="Righteous" font-size="25.4px" stroke-width=".26458" style="font-feature-settings:normal;font-variant-caps:normal;font-variant-ligatures:normal;font-variant-numeric:normal">Devop    illa</tspan></text>
<text x="110.07885" y="203.67996" fill="#000000" font-family="sans-serif" font-size="10.583px" letter-spacing="0px" stroke-width=".26458" word-spacing="0px" style="line-height:1.25" xml:space="preserve"><tspan x="110.07885" y="203.67996" stroke-width=".26458"> </tspan></text>
<flowRoot fill="#000000" font-family="sans-serif" font-size="40px" letter-spacing="0px" word-spacing="0px" style="line-height:1.25" xml:space="preserve"><flowRegion><rect x="21.782" y="128.18" width="570.3" height="271.78"/></flowRegion><flowPara/></flowRoot>
<path d="m70.026 123.63 0.06637 4.8358 5.8827-3.1088 0.45751-2.3045 2.0118-1.0564 1.4525 5.7135-2.2111 9.1405 1.4966 5.1562-4.9502 6.3728 1.5251 2.1846 4.3621-1.7642 5.5875 1.092 4.3575-3.3609 8.2793-0.42012 5.0111 4.7053 5.1564-2.3526-3.8492-0.25206-3.1229-4.8733-7.1173-4.9573-5.3017-0.84022c4.4262-2.0483 4.4262-2.0483 0 0l6.9427-8.6093-4.9355 0.25019 1.2627-3.3464-3.1245 0.53057 1.3799-4.0331-4.1396 1.6804 1.1343-3.0336-2.6888 0.0268 0.18225-2.6138-2.0273 0.22908-0.52225-2.6746-1.9054 0.34143-1.4707-0.25583-1.5809-0.82387-4.4117 1.8306-1.162 1.0923-1.4525 2.4366 0.19775 2.3026z" fill="none"/>
<path d="m81.016 121.5-1.1188 6.2038 0.86159 6.7146-3.0727 2.4259 2.9436 0.56393-1.4471 4.5923 5.773 1.5744-10.723 4.7984 5.8873 0.42043 4.836-5.2635 0.75156 6.3555 3.4134-12.351 0.94414 8.9904 4.3575-8.1502 3.9218 7.7301 3.1955-2.7727 1.8156 7.478 1.3073-2.6047" fill="none"/>
<path d="m81.016 121.5 0.61799 6.122-1.7368 0.0818" fill="none"/>
<path d="m89.12 137.54-2.2802-9.1635-5.2065-0.74896 7.4867 9.9124-4.1649 6.0405-4.326-6.1667 8.4909 0.12619" fill="none"/>
<path d="m89.266 126.36-7.6319 1.2625 9.0118-5.2956" fill="none"/>
<path d="m86.84 128.38 5.55-2.5421" fill="none"/>
<path d="m96.063 128.93-8.3653 2.8527 3.4297-2.6025-4.2873-0.80436" fill="none"/>
<path d="m96.063 128.93-1.641 9.4495" fill="none"/>
<path d="m87.64 120.98-6.4298 2.5588 5.2956 0.47482-4.8722 3.6152" fill="none"/>
<path d="m85.134 118.39-4.1179 3.1139 3.9356-0.50005-3.7411 2.5321" fill="none"/>
<path d="m82.584 115.95-1.5684 5.5593 2.0906-2.8848" fill="none"/>
<path d="m70.026 123.63 5.949 1.727" fill="none"/>
<path d="m70.799 122.87 2.4163-2.1477 2.7602 4.6344" fill="none"/>
<path d="m73.215 120.72 5.2295 1.2735 0.76352-5.964z" fill="none"/>
<path d="m76.433 123.05-3.2177-2.3299" fill="none"/>
<path d="m78.444 121.99 2.5713-0.49029" fill="none"/>
<path d="m72.55 118.23-0.37928 0.45969 0.39734 0.397 0.36122-0.52238z" fill="none"/>
<path d="m72.171 118.69 0.75856-0.12538" fill="none"/>
<path d="m80.629 137.41 0.12908-2.9899 8.3618 3.1161" fill="none"/>
<path d="m81.634 127.63-0.87516 6.7964" fill="none"/>
<path d="m80.679 116.29 0.33702 5.2179-1.8078-5.4737" fill="none"/>
<path d="m77.627 115.21-4.4121 5.5144 2.65e-4 -3.6838" fill="none"/>
<path d="m70.601 120.57 2.6141 0.15489" fill="none"/>
<path d="m81.536 120.93c0.02725-0.0521 1.4437-2.0239 1.5644-2.1778 0.03656-0.0466 1.6769-0.27472 1.709-0.23768 0.01304 0.0151-3.2422 2.4754-3.2752 2.4754-0.01622 0-0.01537-0.027 0.0019-0.0599z" fill="#2ca089"/>
<path d="m82.048 123.08c0-0.0105 0.65698-0.46194 1.4599-1.0041l1.4599-0.9857 1.1045-0.0142c0.60749-7e-3 1.1011-0.0105 1.097-5e-3 -0.01095 0.0125-5.0834 2.0278-5.104 2.0278-0.0095 0-0.01738-8e-3 -0.01738-0.0184z" fill="#2ca089"/>
<path d="m83.332 126.49c0-0.0105 0.72062-0.55356 1.6014-1.2074l1.6014-1.1888 1.3906-0.56568c0.76483-0.31113 1.4044-0.56023 1.4212-0.55355 0.03055 0.0121-5.9364 3.534-5.9875 3.534-0.01484 0-0.02697-8e-3 -0.02697-0.0186z" fill="#2ca089"/>
<path d="m84.388 127.94c-1.2073-0.17851-2.1799-0.32682-2.1613-0.32955 0.27172-0.0399 5.2945-0.87148 7.0031-1.1594 1.2507-0.21072 2.301-0.3768 2.3341-0.36906 0.11019 0.0258-4.6863 2.1948-4.8394 2.1884-0.07772-3e-3 -1.1291-0.15192-2.3364-0.33045z" fill="#2ca089"/>
<path d="m88.283 131.45c0.02162-0.0229 0.68234-0.52649 1.4682-1.1192l1.4289-1.0776 1.7602-0.0807c0.96812-0.0443 1.928-0.0913 2.133-0.10418 0.36168-0.0229 0.26689 0.0128-3.1891 1.199-1.959 0.67241-3.5796 1.2229-3.6012 1.2234-0.02487 4.5e-4 -0.02487-0.0145 0-0.0408z" fill="#2ca089"/>
<path d="m81.042 120.75c-0.0617-0.73848-0.28505-4.3677-0.26987-4.3853 0.02659-0.0308 1.6585-0.31547 1.6781-0.29279 0.0097 0.0112-0.2916 1.1169-0.66964 2.4571-0.37803 1.3402-0.69301 2.4582-0.69996 2.4845-0.0069 0.0264-0.02432-0.0922-0.03866-0.26354z" fill="#2ca089"/>
<path d="m73.949 119.94c0.77882-1.0045 3.6828-4.5957 3.7163-4.5957 0.06504 0 1.3593 0.68016 1.3578 0.71357-0.0013 0.0294-5.1106 4.0374-5.1933 4.0738-0.02455 0.0108 0.02911-0.0754 0.11921-0.19167z" fill="#2ca089"/>
<path d="m74.744 123.14c-0.65737-1.1055-1.1862-2.0205-1.1753-2.0331 0.01545-0.0179 2.684 1.8912 2.7611 1.9752 0.01349 0.0147-0.36355 2.0276-0.3861 2.0613-0.0024 3e-3 -0.54236-0.89779-1.1997-2.0033z" fill="#2ca089"/>
<path d="m75.051 121.95c-0.76163-0.5532-1.3552-1.0058-1.319-1.0058 0.05525 0 4.3296 1.0295 4.4381 1.0689 0.02601 9e-3 -1.4427 0.80971-1.709 0.93116-0.01394 6e-3 -0.64853-0.44105-1.4102-0.99427z" fill="#2ca089"/>
<path d="m70.156 127.79c-0.0031-0.29867-0.01696-1.3301-0.03106-2.292-0.0141-0.96191-0.02506-1.7532-0.02439-1.7584 7.94e-4 -5e-3 1.2729 0.36228 2.8272 0.81658l2.8259 0.82599-2.7595 1.4595c-1.5177 0.80269-2.776 1.4666-2.7961 1.4754-0.02011 8e-3 -0.03902-0.2284-0.04201-0.52708z" fill="#2ca089"/>
<path d="m79.261 124.91c-0.33577-1.3229-0.63636-2.5046-0.66798-2.6259l-0.05749-0.22068 1.1796-0.22704c0.64879-0.12486 1.1854-0.21962 1.1926-0.21057 0.01484 0.0189-0.99798 5.6453-1.021 5.6719-0.0083 9e-3 -0.28991-1.0648-0.62568-2.3877z" fill="#2ca089"/>
<path d="m100.85 148.36c-1.2861-1.2075-2.3428-2.2139-2.3482-2.2363-6e-3 -0.0225 0.66659-0.6259 1.4933-1.341l1.5031-1.3002 0.85507 3.525c0.47028 1.9388 0.8506 3.5302 0.84515 3.5365-6e-3 6e-3 -1.0622-0.97653-2.3483-2.1841z" fill="#2ca089"/>
<path d="m90.257 146.33c0.0329-0.0593 0.97916-1.8286 2.1029-3.9318 1.6396-3.0686 2.0532-3.8116 2.0939-3.7614 0.0512 0.0631 3.6953 7.2368 3.7313 7.3453 0.0145 0.0438-0.15515 0.0668-0.67645 0.0918-0.38272 0.0184-2.1468 0.10775-3.9203 0.19865-1.7734 0.0908-3.2619 0.16526-3.3078 0.16526-0.0765 0-0.0784-8e-3 -0.0236-0.1078z" fill="#2ca089"/>
<path d="m85.868 149.59c0.0099-0.033 0.73403-2.6536 1.6091-5.8237 1.0083-3.6527 1.6013-5.7324 1.619-5.6781 0.01543 0.0471 0.21642 1.9077 0.44664 4.1346 0.23023 2.2269 0.42767 4.0971 0.43878 4.156 0.01799 0.0954-0.20523 0.28099-2.0303 1.689-1.1277 0.87007-2.0619 1.582-2.0759 1.582-0.014 0-0.0173-0.027-0.0074-0.0599z" fill="#2ca089"/>
<path d="m85.72 149.36c-0.01333-0.0659-0.16507-1.3273-0.33718-2.8031-0.1721-1.4758-0.32339-2.7426-0.33618-2.8151-0.01696-0.0961-0.0068-0.13178 0.03757-0.13178 0.03345 0 0.05822-0.0335 0.05506-0.0744-0.0062-0.08 3.7143-5.51 3.7323-5.4472 0.0077 0.0266-2.9647 10.859-3.1127 11.343-8e-3 0.0264-0.02553-6e-3 -0.0389-0.0718z" fill="#2ca089"/>
<path d="m81.944 142.68c-2.0231-0.55763-2.6476-0.74642-2.6376-0.79733 0.02032-0.10345 1.347-4.3074 1.3553-4.2946 0.03753 0.0577 3.9811 5.6862 4.0282 5.7493 0.05663 0.0759 0.05509 0.0834-0.01632 0.0786-0.04339-3e-3 -1.2717-0.33406-2.7296-0.73589z" fill="#2ca089"/>
<path d="m74.641 147.98c0.05781-0.0725 1.1091-1.4255 2.3361-3.0068 1.227-1.5812 2.2409-2.8723 2.2531-2.8691 3.0074 0.80852 5.4191 1.4838 5.3956 1.5107-0.03862 0.0444-9.9849 4.4968-10.046 4.4968-0.02439 0 0.0031-0.0593 0.06071-0.13177z" fill="#2ca089"/>
<path d="m80.363 130.78c-0.20896-1.6281-0.37281-2.9683-0.36411-2.9784 0.01709-0.0198 1.5254-0.10219 1.5409-0.0841 0.01675 0.0194-0.73637 5.8483-0.76708 5.9368-0.01691 0.0487-0.19406-1.1941-0.40972-2.8743z" fill="#2ca089"/>
<path d="m85.372 132.45c-2.4281-3.216-3.5076-4.6786-3.4583-4.6858 0.03941-5e-3 1.1512 0.1455 2.4707 0.33598l2.3991 0.34633 1.0689 4.288c0.5879 2.3584 1.0646 4.3111 1.0592 4.3394-0.0053 0.0284-1.5982-2.0524-3.5396-4.6239z" fill="#2ca089"/>
<path d="m88.465 134.61-0.68644-2.7683 3.9726-1.3544c2.1849-0.74489 3.9817-1.3438 3.9929-1.3309 0.0149 0.0172-5.7434 7.2032-6.4841 8.0918l-0.10844 0.13006z" fill="#37c8ab"/>
<path d="m89.08 128.72c-1.0642-0.2012-1.9215-0.37897-1.9052-0.39504 0.05181-0.0508 5.0223-2.3103 5.0393-2.2907 0.0269 0.0311-1.116 3.0291-1.1591 3.0408-0.02199 6e-3 -0.91077-0.15382-1.975-0.35502z" fill="#37c8ab"/>
<path d="m82.138 127.44c0.03757-0.0474 8.3296-4.9159 8.3441-4.8991 6e-3 7e-3 -0.27662 0.85321-0.62865 1.8799l-0.64003 1.8667-3.4275 0.56788c-1.8851 0.31233-3.4834 0.57957-3.5517 0.59386-0.06834 0.0143-0.11167 0.0105-0.09629-9e-3z" fill="#37c8ab"/>
<path d="m83.899 123.7c-1.2259-0.11289-2.2366-0.21419-2.246-0.22513-0.0094-0.0109 1.291-0.5404 2.89-1.1766 1.5989-0.63623 2.915-1.1476 2.9247-1.1365 0.0096 0.0111-0.21223 0.63548-0.49306 1.3874l-0.51059 1.3671-0.16806-5e-3c-0.09243-3e-3 -1.171-0.0979-2.3969-0.21076z" fill="#37c8ab"/>
<path d="m81.344 121.37c0.06915-0.0851 3.6591-2.7664 3.6767-2.7461 0.01185 0.0138-0.01275 0.53939-0.05471 1.1681l-0.07628 1.1432-1.5968 0.20333c-0.87825 0.11183-1.6807 0.2154-1.7832 0.23016-0.10251 0.0147-0.17706 0.0153-0.16567 1e-3z" fill="#37c8ab"/>
<path d="m81.259 120.97c-0.0024-0.0636 1.2982-4.672 1.3135-4.6543 0.0067 7e-3 0.11233 0.52432 0.23468 1.1479l0.22246 1.1338-0.80559 1.1151c-0.88448 1.2243-0.96252 1.326-0.96508 1.2575z" fill="#37c8ab"/>
<path d="m72.957 124.4c-1.5034-0.44121-2.7293-0.81687-2.7242-0.83478 0.02117-0.0737 0.638-0.65143 1.7651-1.653l1.1946-1.0616 0.07172 0.10854c0.03945 0.0597 0.59035 0.98182 1.2242 2.0492 0.63389 1.0673 1.1882 1.9999 1.2318 2.0724 0.05566 0.0925 0.06303 0.13026 0.02471 0.12668-0.03001-3e-3 -1.2847-0.36609-2.7881-0.80731z" fill="#37c8ab"/>
<path d="m79.238 137.06c-0.71422-0.13886-1.3055-0.2605-1.314-0.2703-0.0084-9e-3 0.6029-0.50638 1.3586-1.1035 0.7557-0.59714 1.3796-1.0792 1.3864-1.0713 0.01503 0.0174-0.10445 2.6751-0.12088 2.6883-0.0064 5e-3 -0.59594-0.10429-1.3102-0.24316z" fill="#37c8ab"/>
<path d="m83.211 137.37c-1.3537-0.0224-2.47-0.0507-2.4806-0.063-0.03227-0.0374 0.08629-2.7558 0.12022-2.7558 0.04428 0 7.6341 2.8307 7.6553 2.8551 0.02445 0.0282-2.4075 0.0114-5.2949-0.0363z" fill="#37c8ab"/>
<path d="m77.381 148.52c-1.4847-0.10657-2.7083-0.20428-2.7192-0.21716-0.01085-0.0128 2.189-1.0112 4.8885-2.2186 2.6995-1.2074 4.9151-2.1872 4.9235-2.1775 0.0123 0.0143-2.7496 3.0403-4.0799 4.47l-0.31351 0.33694z" fill="#37c8ab"/>
<path d="m96.51 142.33c-1.0093-1.9921-1.828-3.6302-1.8194-3.6402 0.015-0.0173 6.6014 4.5505 6.6693 4.6253 0.029 0.032-2.843 2.5657-2.9661 2.6166-0.0287 0.0119-0.80733-1.477-1.8838-3.6018z" fill="#37c8ab"/>
<path d="m103.36 150.51c-0.0701-0.21854-1.5973-6.5775-1.5873-6.609 0.0158-0.0498 2.7808 4.2612 2.7786 4.3323-7.9e-4 0.0445-1.1037 2.2652-1.154 2.3246-9e-3 0.0105-0.0256-0.0112-0.0374-0.0479z" fill="#37c8ab"/>
<path d="m89.654 141.95c-0.24722-2.359-0.44291-4.2954-0.43488-4.3032 0.01484-0.0144 4.9916 0.77171 5.0464 0.79706 0.0276 0.0128-4.033 7.6463-4.1221 7.749-0.02569 0.0296-0.20057-1.486-0.48949-4.2429z" fill="#37c8ab"/>
<path d="m80.161 126.64c0.09693-0.53742 0.32345-1.7947 0.50336-2.794 0.17991-0.99927 0.33177-1.7863 0.33746-1.7489 0.06516 0.42762 0.53845 5.3936 0.51642 5.4185-0.01638 0.0186-0.36811 0.0489-0.78163 0.0676l-0.75186 0.0339z" fill="#37c8ab"/>
<path d="m75.939 121.3c-1.3212-0.32478-2.4346-0.59744-2.4742-0.6059-0.04295-9e-3 1.0742-0.91198 2.7673-2.2363 1.5617-1.2215 2.8469-2.2122 2.8561-2.2015 0.02405 0.0278-0.6979 5.6453-0.72475 5.6393-0.01228-3e-3 -1.1033-0.27076-2.4245-0.59553z" fill="#37c8ab"/>
<path d="m103.59 150.5c0.0331-0.0593 0.29047-0.5683 0.57198-1.1311 0.28152-0.56283 0.53436-1.0333 0.56184-1.0455 0.0275-0.0122 0.81772 0.0278 1.7561 0.089l1.7061 0.11113-2.2923 1.0435c-1.2608 0.57391-2.3084 1.0429-2.3281 1.0422-0.0197-7.9e-4 -9e-3 -0.0498 0.0243-0.10911z" fill="#87decd"/>
<path d="m91.81 137.89c-1.3621-0.21821-2.4849-0.40647-2.4952-0.41836-0.01029-0.0119 1.4676-1.8654 3.2842-4.119 1.8166-2.2535 3.3069-4.0738 3.3119-4.0451 0.01881 0.10789-1.5433 8.958-1.5829 8.9683-0.02281 6e-3 -1.1559-0.16769-2.5179-0.38588z" fill="#87decd"/>
<path d="m87.661 131.38c-0.3742-1.4958-0.71668-2.8883-0.71173-2.894 0.0195-0.0223 3.9197 0.73131 3.9199 0.75735 1.98e-4 0.031-3.0839 2.3882-3.1245 2.3882-0.01138 0-0.04898-0.1132-0.0836-0.25156z" fill="#87decd"/>
<path d="m81.675 127.39c0-0.0394-0.08354-0.89512-0.18564-1.9015-0.1021-1.0064-0.17876-1.8378-0.17035-1.8475 0.01394-0.0162 4.8494 0.40904 4.9228 0.43284 0.03122 0.0105-4.4989 3.3879-4.5437 3.3879-0.0127 0-0.02307-0.0322-0.02307-0.0717z" fill="#87decd"/>
<path d="m81.186 122.49c-0.04985-0.49001-0.08536-0.89701-0.07892-0.90447 0.01696-0.0196 3.4387-0.45115 3.4523-0.4354 0.01072 0.0124-2.8676 1.9763-3.1515 2.1504l-0.1312 0.0805z" fill="#87decd"/>
<path d="m82.862 140.47c-1.1354-1.6214-2.0579-2.9532-2.0501-2.9595 0.01923-0.0156 7.9432 0.10686 8.0549 0.12447 0.07429 0.0118-0.23354 0.48139-1.8932 2.8883-1.09 1.5809-1.9966 2.8789-2.0146 2.8846-0.01802 5e-3 -0.96166-1.3164-2.097-2.9378z" fill="#87decd"/>
<path d="m78.478 139.32c-0.38058-1.3043-0.6881-2.3711-0.68338-2.3706 0.11112 9e-3 2.6949 0.52767 2.708 0.54279 0.02215 0.0256-1.2816 4.198-1.312 4.1988-0.01138 2.4e-4 -0.33209-1.0666-0.71267-2.3709z" fill="#87decd"/>
<path d="m77.837 136.54c0.01252-0.0494 0.47516-1.9626 1.0281-4.2515 0.55293-2.2889 1.01-4.1433 1.0156-4.1208 0.05481 0.21735 0.79256 6.2225 0.76696 6.2428-0.50059 0.39761-2.7371 2.1543-2.7772 2.1814-0.04136 0.0279-0.05019 0.0142-0.03344-0.0519z" fill="#87decd"/>
<path d="m84.825 135.85c-2.1743-0.81188-3.959-1.496-3.966-1.5203-0.01408-0.0488 0.80502-6.4418 0.8289-6.4694 0.015-0.0173 7.0613 9.2873 7.1235 9.4066 0.0182 0.035 0.0182 0.0626 0 0.0613-0.0182-1e-3 -1.8121-0.66644-3.9864-1.4783z" fill="#87decd"/>
<path d="m82.951 149.27c-1.428-0.28084-2.5978-0.53218-2.5996-0.55854-0.0031-0.0455 4.5206-5.0056 4.5448-4.9833 0.01275 0.0118 0.71329 5.906 0.7133 6.0015 3e-6 0.033-0.01394 0.0579-0.03106 0.0554-0.01709-2e-3 -1.1994-0.23425-2.6274-0.5151z" fill="#87decd"/>
<path d="m75.083 149.47c-0.37952-0.54634-0.68704-0.9952-0.68338-0.99744 0.0051-3e-3 4.0643 0.28959 5.1704 0.37282 0.1744 0.0131-0.0013 0.0931-1.7602 0.80152-1.0747 0.43282-1.9726 0.79359-1.9954 0.80171-0.02275 8e-3 -0.35193-0.43225-0.73144-0.97861z" fill="#87decd"/>
<path d="m78.546 121.76c0.01341-0.0892 0.17266-1.3242 0.35388-2.7444 0.18122-1.4202 0.33497-2.5886 0.34168-2.5963 0.01564-0.0181 1.647 4.9228 1.6468 4.9876-8.8e-5 0.0268-0.50803 0.14312-1.1288 0.25864-0.62074 0.11553-1.1532 0.22054-1.1833 0.23335-0.04128 0.0176-0.04871-0.0165-0.03029-0.13884z" fill="#87decd"/>
<path d="m80.096 118.49c-0.42044-1.2716-0.74823-2.3197-0.72841-2.3292 0.01979-9e-3 0.30502 0.031 0.63379 0.0898 0.5396 0.0966 0.59947 0.11693 0.61524 0.2089 0.03087 0.18008 0.28048 4.3001 0.26182 4.3217-0.0099 0.0114-0.362-1.0196-0.78244-2.2912z" fill="#87decd"/>
<path d="m73.277 118.81 0.01087-1.7203 2.0041-0.83086c1.1022-0.45698 2.01-0.82406 2.0172-0.81573 0.0092 0.0107-3.5385 4.4762-4.0049 5.041-0.02323 0.0282-0.03384-0.62591-0.02721-1.6741z" fill="#87decd"/>
<path d="m70.852 122.59c-0.03679-0.15312-0.16634-1.8826-0.14304-1.9096 0.02814-0.0326 1.9993 0.0732 2.1569 0.11575 0.10784 0.0291 0.04636 0.0927-0.9091 0.94116-0.56362 0.50048-1.0381 0.91652-1.0544 0.92457-0.0163 8e-3 -0.03898-0.0243-0.0504-0.0718z" fill="#87decd"/>
<path d="m71.535 120.54-0.80027-0.0521 0.68429-1.15 0.68429-1.15 0.4968-0.46718c0.27325-0.25696 0.50715-0.46719 0.51979-0.46719 0.01262 0 0.02299 0.75469 0.02299 1.6771v1.6771l-0.40381-7e-3c-0.2221-4e-3 -0.76394-0.0312-1.2041-0.0599zm1.2747-1.6686c0.11493-0.16433 0.20836-0.30988 0.20762-0.32344-7.94e-4 -0.0136-0.10791-0.11609-0.23815-0.22785l-0.2368-0.2032-0.23906 0.28946-0.23907 0.28946 0.23907 0.23675c0.13149 0.13021 0.2522 0.23694 0.26825 0.23717 0.01606 2.4e-4 0.12321-0.13402 0.23815-0.29835z" fill="#87decd"/>
<path d="m73.321 118.77 9e-3 -1.6737 0.78692-0.32736c1.9728-0.82072 3.0166-1.2393 3.0541-1.2248 0.03512 0.0136-2.6287 3.4095-3.5426 4.5163l-0.31653 0.38333z" fill="#008066"/>
<path d="m72.453 118.46 0.11063-0.12954 0.20032 0.1864-0.0917 0.0173c-0.05044 9e-3 -0.14529 0.0259-0.21079 0.0364l-0.11909 0.0191z" fill="#008066"/>
<path d="m72.444 118.87c-0.06091-0.0587-0.11144-0.11438-0.11228-0.12366-7.94e-4 -9e-3 0.07083-0.0254 0.15925-0.0358 0.08842-0.0105 0.18488-0.0258 0.21436-0.0343 0.07681-0.0221 0.06621 0.0139-0.04899 0.16623l-0.10159 0.13434z" fill="#fff"/>
<path d="m87.838 135.66c-1.8791-2.456-4.5296-5.9773-5.5091-7.3191-0.3391-0.46454-0.36646-0.51519-0.28491-0.52729 0.04962-7e-3 0.46255 0.0381 0.91763 0.10103 2.2404 0.31001 3.7433 0.53246 3.7815 0.55974 0.04432 0.0317 2.1409 8.4429 2.1126 8.4756-9e-3 0.0105-0.46689-0.57016-1.0177-1.29z" fill="#37c8ab"/>
<path d="m80.413 119.39c-0.48012-1.4296-1.0072-3.0814-1.0072-3.1565 0-0.0263 0.03911-0.0477 0.08691-0.0477 0.15074 2e-5 1.0502 0.18049 1.0818 0.21707 0.01659 0.0192 0.05565 0.40557 0.08675 0.85852 0.07593 1.1063 0.20976 3.4108 0.19882 3.4235-0.0048 5e-3 -0.20601-0.57712-0.44707-1.2949z" fill="#37c8ab"/>
<path d="m74.002 119.91c0.06243-0.0934 0.70392-0.90296 1.4252-1.7986 1.5566-1.933 2.2154-2.7258 2.2649-2.7258 0.06713 0 1.2885 0.6336 1.2879 0.66812-2.65e-4 0.0262-0.91407 0.75041-3.4269 2.7168-0.85584 0.66973-1.5667 1.2177-1.5797 1.2177-0.01299 0-1.03e-4 -0.0352 0.02865-0.0782z" fill="#008066"/>
<path d="m75.44 149.94c-0.6122-0.84936-0.98663-1.4016-0.96628-1.4252 0.02035-0.0235 5.0935 0.33478 5.1165 0.36137 0.02061 0.0238-3.6938 1.5442-3.7728 1.5442-0.01714 0-0.18701-0.21617-0.37744-0.48038z" fill="#008066"/>
<path d="m83.731 149.41c-2.0787-0.41569-3.2059-0.65106-3.2948-0.68801-0.05515-0.0229 0.22632-0.35471 1.3519-1.5936 1.3822-1.5213 2.4907-2.732 2.8944-3.1612l0.19828-0.21078 0.02281 0.14647c0.05406 0.34711 0.68143 5.6667 0.68143 5.778 0 0.0433-0.03664 0.0645-0.10622 0.0616-0.05842-2e-3 -0.84492-0.15204-1.7478-0.33259z" fill="#2ca089"/>
<path d="m103.58 150.57c0-0.035 0.9197-1.8365 1.0518-2.0602l0.1135-0.19225 0.25747 0.0241c0.14159 0.0132 0.83973 0.0565 1.5514 0.0962 0.71166 0.0397 1.3419 0.0852 1.4005 0.10124 0.087 0.0237-0.21544 0.17518-1.6416 0.82212-2.3963 1.0871-2.7331 1.2361-2.7331 1.2089z" fill="#2ca089"/>
<path d="m77.877 136.45c0.01524-0.0712 0.23636-0.99424 0.49136-2.051 0.94704-3.9251 1.4671-6.0336 1.4965-6.0679 0.01664-0.0194 0.04997 0.12137 0.074 0.31281 0.4599 3.6618 0.70941 5.7412 0.69114 5.7598-0.01881 0.0191-2.6784 2.1048-2.7269 2.1384-0.04331 0.03-0.04846 0.012-0.02619-0.0921z" fill="#2ca089"/>
<path d="m79.062 141.25c-0.30366-1.0014-1.2389-4.2498-1.2274-4.2631 0.0249-0.0288 2.6527 0.50933 2.6527 0.54327 0 0.0542-1.2629 4.0848-1.2916 4.122-0.0046 6e-3 -0.06482-0.17495-0.13372-0.40217z" fill="#2ca089"/>
<path d="m71.481 120.53c-0.38177-0.022-0.69413-0.0536-0.69413-0.07s0.29824-0.53204 0.66276-1.1458l0.66276-1.1159 0.48211-0.44994c0.26516-0.24746 0.49428-0.44163 0.50915-0.43147 0.0149 0.0105 0.02705 0.7495 0.02705 1.643v1.6245l-0.47778-7e-3c-0.26278-4e-3 -0.79014-0.0252-1.1719-0.0473zm1.3411-1.6604c0.11021-0.16296 0.20038-0.30953 0.20038-0.3257 0-0.0162-0.10698-0.12028-0.23774-0.23135l-0.23774-0.20197-0.50508 0.58434 0.23992 0.23548c0.13196 0.12952 0.26241 0.23548 0.2899 0.23548 0.02748 0 0.14015-0.13332 0.25036-0.29628z" fill="#018066" fill-opacity=".99433"/>
<path d="m70.859 122.62c0-0.0109-0.02339-0.28986-0.05199-0.61979-0.09761-1.1261-0.1034-1.2746-0.05047-1.2945 0.05569-0.0209 1.1607 0.0229 1.7357 0.0689 0.26203 0.0209 0.38498 0.0464 0.37637 0.0781-0.01614 0.0593-0.44246 0.45747-1.2595 1.1762-0.58642 0.51583-0.75003 0.64478-0.75003 0.59111z" fill="#018066" fill-opacity=".99433"/>
<path d="m79.621 137.12c-0.38673-0.0768-0.91004-0.18072-1.1629-0.23102-0.25286-0.0503-0.45975-0.10527-0.45975-0.12212 0-0.0414 2.6321-2.1408 2.6532-2.1163 0.0136 0.0159-0.09522 2.5057-0.11215 2.5657-0.02053 0.0728-0.1192 0.0624-0.91844-0.0962z" fill="#018066" fill-opacity=".99433"/>
<path d="m82.67 137.35c-1.05-0.0198-1.9165-0.0447-1.9257-0.0555-0.01987-0.023 0.0632-2.1494 0.09712-2.4856l0.02355-0.23336 1.0637 0.39264c1.1968 0.44177 5.1499 1.9194 5.9497 2.2239l0.52285 0.19909-1.9111-3e-3c-1.0511-1e-3 -2.7702-0.0189-3.8201-0.0386z" fill="#018066" fill-opacity=".99433"/>
<g fill="#018066" fill-opacity=".99914" stroke-width=".26458" aria-label="Devop    illa">
<path d="m18.926 136.73q0 1.2278-0.32246 2.3688-0.31006 1.1286-0.89297 2.1208-0.58291 0.97978-1.3891 1.7983-0.80615 0.80615-1.7983 1.3891-0.99219 0.58291-2.1332 0.90537-1.1286 0.31006-2.3564 0.31006h-5.3578v-17.785h5.3578q1.2278 0 2.3564 0.32246 1.141 0.31006 2.1332 0.89297 0.99219 0.58291 1.7983 1.4015 0.80615 0.80616 1.3891 1.7983 0.58291 0.97979 0.89297 2.1208 0.32246 1.1286 0.32246 2.3564zm-3.5595 0q0-1.1038-0.42168-2.0712-0.40928-0.96739-1.141-1.6867-0.71934-0.73174-1.6991-1.1534-0.96738-0.42168-2.0712-0.42168h-1.7735v10.666h1.7735q1.1038 0 2.0712-0.40928 0.97978-0.42168 1.6991-1.141 0.73174-0.73173 1.141-1.6991 0.42168-0.97978 0.42168-2.0836z" style="font-feature-settings:normal;font-variant-caps:normal;font-variant-ligatures:normal;font-variant-numeric:normal"/>
<path d="m26.218 142.37q0.19844 0.062 0.39688 0.0868 0.19844 0.0124 0.39688 0.0124 0.49609 0 0.95498-0.13642 0.45889-0.13643 0.85576-0.38447 0.40928-0.26045 0.71934-0.62012 0.32246-0.37207 0.5209-0.81856l2.4805 2.4929q-0.47129 0.66973-1.0914 1.203-0.60772 0.5333-1.3271 0.90537-0.70693 0.37207-1.5007 0.55811-0.78135 0.19844-1.6123 0.19844-1.4015 0-2.6417-0.5209-1.2278-0.5209-2.158-1.4511-0.91777-0.93017-1.4511-2.2076-0.5333-1.2898-0.5333-2.8277 0-1.5751 0.5333-2.8773 0.5333-1.3022 1.4511-2.22 0.93018-0.91777 2.158-1.4263 1.2402-0.5085 2.6417-0.5085 0.83096 0 1.6247 0.19844t1.5007 0.57051q0.71934 0.37207 1.3395 0.91777 0.62012 0.5333 1.0914 1.203zm1.7363-6.9825q-0.23564-0.0868-0.47129-0.11163-0.22324-0.0248-0.47129-0.0248-0.69453 0-1.3146 0.26045-0.60772 0.24805-1.0666 0.71934-0.44648 0.47128-0.70693 1.141-0.26045 0.65732-0.26045 1.4883 0 0.18604 0.0124 0.42168 0.0248 0.23565 0.06201 0.48369 0.04961 0.23565 0.11162 0.45889 0.06201 0.22324 0.16123 0.39687z" style="font-feature-settings:normal;font-variant-caps:normal;font-variant-ligatures:normal;font-variant-numeric:normal"/>
<path d="m37.926 145.62-5.0602-13.283h3.8571l2.9021 8.2848 2.8897-8.2848h3.8695l-5.0602 13.283z" style="font-feature-settings:normal;font-variant-caps:normal;font-variant-ligatures:normal;font-variant-numeric:normal"/>
<path d="m60.163 138.86q0 1.4883-0.5333 2.7781-0.5333 1.2774-1.4511 2.22-0.91777 0.93017-2.158 1.4759-1.2278 0.5333-2.6417 0.5333-1.4015 0-2.6417-0.5333-1.2278-0.54571-2.158-1.4759-0.91777-0.94258-1.4511-2.22-0.5333-1.2898-0.5333-2.7781 0-1.5131 0.5333-2.8029 0.5333-1.2898 1.4511-2.22 0.93018-0.94258 2.158-1.4759 1.2402-0.5333 2.6417-0.5333 1.4139 0 2.6417 0.5085 1.2402 0.49609 2.158 1.4263 0.91777 0.91777 1.4511 2.22 0.5333 1.2898 0.5333 2.8773zm-3.4106 0q0-0.81855-0.27285-1.4759-0.26045-0.66972-0.71934-1.141-0.45889-0.48369-1.079-0.73174-0.60772-0.26045-1.3022-0.26045-0.69453 0-1.3146 0.26045-0.60772 0.24805-1.0666 0.73174-0.44648 0.47129-0.70693 1.141-0.26045 0.65733-0.26045 1.4759 0 0.76895 0.26045 1.4263 0.26045 0.65733 0.70693 1.141 0.45889 0.48369 1.0666 0.76894 0.62012 0.27285 1.3146 0.27285 0.69453 0 1.3022-0.26045 0.62012-0.26044 1.079-0.73173 0.45889-0.47129 0.71934-1.141 0.27285-0.66973 0.27285-1.4759z" style="font-feature-settings:normal;font-variant-caps:normal;font-variant-ligatures:normal;font-variant-numeric:normal"/>
<path d="m65.472 150.68h-3.4106v-18.343h0.81855l1.3519 1.5999q0.45889-0.43408 1.0046-0.81855 0.5457-0.38448 1.1286-0.65733 0.59531-0.28525 1.2278-0.44648 0.63252-0.16123 1.2774-0.16123 1.4015 0 2.6293 0.50849 1.2402 0.4961 2.158 1.4139 0.93018 0.91777 1.4635 2.22 0.5333 1.2898 0.5333 2.8649 0 1.6371-0.5333 2.9518-0.5333 1.3022-1.4635 2.22-0.91777 0.90537-2.158 1.3891-1.2278 0.48369-2.6293 0.48369-0.44648 0-0.89297-0.0992-0.43408-0.0992-0.86816-0.26044-0.42168-0.17364-0.84336-0.38448-0.40928-0.21084-0.79375-0.43408zm6.7841-11.819q0-0.84336-0.27285-1.5131-0.26045-0.66973-0.71934-1.1286-0.45889-0.47129-1.079-0.71933-0.62012-0.24805-1.3146-0.24805-0.69453 0-1.3146 0.24805-0.60772 0.24804-1.0666 0.71933-0.45889 0.45889-0.73174 1.1286-0.26045 0.66972-0.26045 1.5131 0 0.80615 0.26045 1.4759 0.27285 0.66973 0.73174 1.141 0.45889 0.47129 1.0666 0.73173 0.62012 0.26045 1.3146 0.26045 0.69453 0 1.3146-0.26045 0.62012-0.26044 1.079-0.73173 0.45889-0.47129 0.71934-1.141 0.27285-0.66973 0.27285-1.4759z" style="font-feature-settings:normal;font-variant-caps:normal;font-variant-ligatures:normal;font-variant-numeric:normal"/>
<path d="m109.91 128.73q0 0.47129-0.18603 0.88056-0.17364 0.40928-0.48369 0.71934-0.31006 0.29766-0.73174 0.48369-0.40928 0.17363-0.88057 0.17363t-0.89297-0.17363q-0.40928-0.18603-0.71933-0.48369-0.29766-0.31006-0.4837-0.71934-0.17363-0.40927-0.17363-0.88056 0-0.45889 0.17363-0.86817 0.18604-0.42168 0.4837-0.71933 0.31005-0.31006 0.71933-0.48369 0.42168-0.18604 0.89297-0.18604t0.88057 0.18604q0.42168 0.17363 0.73174 0.48369 0.31005 0.29765 0.48369 0.71933 0.18603 0.40928 0.18603 0.86817zm-0.58291 16.892h-3.4106v-13.283h3.4106z" style="font-feature-settings:normal;font-variant-caps:normal;font-variant-ligatures:normal;font-variant-numeric:normal"/>
<path d="m115.33 145.62h-3.4106v-18.566h3.4106z" style="font-feature-settings:normal;font-variant-caps:normal;font-variant-ligatures:normal;font-variant-numeric:normal"/>
<path d="m121.33 145.62h-3.4106v-18.566h3.4106z" style="font-feature-settings:normal;font-variant-caps:normal;font-variant-ligatures:normal;font-variant-numeric:normal"/>
<path d="m136.79 145.62h-0.81856l-1.3146-1.8232q-0.4837 0.43409-1.0294 0.81856-0.5333 0.37207-1.1286 0.65732-0.59531 0.27286-1.2278 0.43409-0.62012 0.16123-1.265 0.16123-1.4015 0-2.6417-0.47129-1.2278-0.47129-2.158-1.3643-0.91777-0.90537-1.4511-2.2076-0.5333-1.3022-0.5333-2.9642 0-1.5503 0.5333-2.8401 0.5333-1.3022 1.4511-2.2324 0.93018-0.93017 2.158-1.4387 1.2402-0.5209 2.6417-0.5209 0.64492 0 1.2774 0.16123t1.2278 0.44649q0.59531 0.28525 1.1286 0.66972 0.54571 0.38448 1.017 0.83096l1.3146-1.5751h0.81856zm-3.4106-6.7593q0-0.69453-0.27285-1.3394-0.26045-0.65733-0.71933-1.1534-0.45889-0.5085-1.079-0.80615-0.60771-0.31006-1.3022-0.31006t-1.3146 0.23564q-0.60772 0.23565-1.0666 0.69454-0.44649 0.45888-0.70694 1.141-0.26045 0.66973-0.26045 1.5379 0 0.86817 0.26045 1.5503 0.26045 0.66973 0.70694 1.1286 0.45888 0.45888 1.0666 0.69453 0.62012 0.23564 1.3146 0.23564t1.3022-0.29765q0.62012-0.31006 1.079-0.80615 0.45888-0.5085 0.71933-1.1534 0.27285-0.65733 0.27285-1.3519z" style="font-feature-settings:normal;font-variant-caps:normal;font-variant-ligatures:normal;font-variant-numeric:normal"/>
</g>
<text x="101.88976" y="136.74825" fill="#000000" font-family="sans-serif" font-size="10.583px" letter-spacing="0px" stroke-width=".26458" word-spacing="0px" style="line-height:1.25" xml:space="preserve"><tspan x="101.88976" y="136.74825" stroke-width=".26458"> </tspan></text>
<path d="m154.44 114.33 0.0664 4.8358 5.8827-3.1088 0.45751-2.3045 2.0118-1.0564 1.4525 5.7135-2.2111 9.1405 1.4966 5.1562-4.9502 6.3728 1.5251 2.1846 4.3622-1.7642 5.5875 1.092 4.3575-3.3609 8.2793-0.42012 5.0112 4.7053 5.1564-2.3526-3.8492-0.25206-3.1229-4.8733-7.1173-4.9573-5.3017-0.84022c4.4262-2.0483 4.4262-2.0483 0 0l6.9427-8.6093-4.9355 0.25019 1.2627-3.3464-3.1245 0.53057 1.3799-4.0331-4.1396 1.6804 1.1342-3.0336-2.6888 0.0268 0.18225-2.6138-2.0273 0.22908-0.52225-2.6746-1.9054 0.34143-1.4707-0.25583-1.5809-0.82387-4.4116 1.8306-1.162 1.0923-1.4525 2.4366 0.19775 2.3026z" fill="none"/>
<path d="m165.43 112.2-1.1188 6.2038 0.86159 6.7146-3.0727 2.4259 2.9436 0.56393-1.4471 4.5923 5.773 1.5744-10.723 4.7984 5.8873 0.42043 4.836-5.2635 0.75156 6.3555 3.4134-12.351 0.94414 8.9904 4.3575-8.1502 3.9218 7.7301 3.1955-2.7727 1.8156 7.478 1.3072-2.6047" fill="none"/>
<path d="m165.43 112.2 0.61799 6.122-1.7368 0.0818" fill="none"/>
<path d="m173.53 128.24-2.2802-9.1635-5.2065-0.74896 7.4867 9.9125-4.165 6.0405-4.326-6.1667 8.4909 0.12619" fill="none"/>
<path d="m173.68 117.06-7.6319 1.2625 9.0118-5.2956" fill="none"/>
<path d="m171.25 119.08 5.55-2.5421" fill="none"/>
<path d="m180.48 119.63-8.3653 2.8527 3.4297-2.6025-4.2874-0.80436" fill="none"/>
<path d="m180.48 119.63-1.641 9.4496" fill="none"/>
<path d="m172.05 111.68-6.4298 2.5588 5.2956 0.47482-4.8722 3.6152" fill="none"/>
<path d="m169.55 109.09-4.1179 3.1139 3.9356-0.50005-3.7411 2.5321" fill="none"/>
<path d="m167 106.65-1.5684 5.5593 2.0906-2.8848" fill="none"/>
<path d="m154.44 114.33 5.949 1.727" fill="none"/>
<path d="m155.21 113.57 2.4163-2.1477 2.7602 4.6344" fill="none"/>
<path d="m157.63 111.42 5.2295 1.2735 0.76352-5.964z" fill="none"/>
<path d="m160.85 113.75-3.2177-2.3299" fill="none"/>
<path d="m162.86 112.7 2.5713-0.49029" fill="none"/>
<path d="m156.96 108.93-0.37928 0.45969 0.39734 0.397 0.36122-0.52238z" fill="none"/>
<path d="m156.58 109.39 0.75856-0.12538" fill="none"/>
<path d="m165.04 128.11 0.12908-2.9899 8.3618 3.1161" fill="none"/>
<path d="m166.05 118.33-0.87516 6.7964" fill="none"/>
<path d="m165.09 106.99 0.33702 5.2179-1.8078-5.4737" fill="none"/>
<path d="m162.04 105.91-4.4121 5.5144 2.7e-4 -3.6838" fill="none"/>
<path d="m155.01 111.27 2.6141 0.15489" fill="none"/>
<path d="m165.95 111.63c0.0273-0.0521 1.4437-2.0239 1.5644-2.1778 0.0366-0.0466 1.677-0.27472 1.709-0.23768 0.013 0.0151-3.2422 2.4754-3.2752 2.4754-0.0162 0-0.0154-0.027 2e-3 -0.0599z" fill="#2ca089"/>
<path d="m166.46 113.78c0-0.0105 0.65698-0.46194 1.46-1.0041l1.46-0.9857 1.1045-0.0142c0.60749-7e-3 1.1011-0.0105 1.097-5e-3 -0.0109 0.0125-5.0834 2.0278-5.104 2.0278-0.01 0-0.0174-8e-3 -0.0174-0.0184z" fill="#2ca089"/>
<path d="m167.75 117.19c0-0.0105 0.72062-0.55356 1.6014-1.2074l1.6014-1.1888 1.3906-0.56568c0.76483-0.31113 1.4044-0.56023 1.4212-0.55355 0.0306 0.0121-5.9364 3.534-5.9875 3.534-0.0148 0-0.027-8e-3 -0.027-0.0186z" fill="#2ca089"/>
<path d="m168.8 118.64c-1.2073-0.17851-2.1799-0.32682-2.1613-0.32955 0.27172-0.0399 5.2945-0.87148 7.0031-1.1594 1.2507-0.21072 2.301-0.3768 2.3341-0.36906 0.11019 0.0258-4.6863 2.1948-4.8394 2.1884-0.0777-3e-3 -1.1291-0.15192-2.3364-0.33045z" fill="#2ca089"/>
<path d="m172.7 122.15c0.0216-0.0229 0.68234-0.52649 1.4682-1.1192l1.4289-1.0776 1.7602-0.0807c0.96812-0.0443 1.928-0.0913 2.133-0.10418 0.36168-0.0229 0.26689 0.0128-3.1891 1.199-1.959 0.67242-3.5796 1.223-3.6012 1.2234-0.0249 4.5e-4 -0.0249-0.0145 0-0.0408z" fill="#2ca089"/>
<path d="m165.45 111.45c-0.0617-0.73848-0.28504-4.3677-0.26987-4.3853 0.0266-0.0308 1.6585-0.31547 1.6781-0.29279 0.01 0.0112-0.29161 1.1169-0.66964 2.4571-0.37803 1.3402-0.69301 2.4582-0.69996 2.4845-7e-3 0.0264-0.0243-0.0922-0.0387-0.26354z" fill="#2ca089"/>
<path d="m158.36 110.64c0.77882-1.0045 3.6828-4.5957 3.7163-4.5957 0.065 0 1.3593 0.68016 1.3578 0.71357-1e-3 0.0294-5.1106 4.0374-5.1933 4.0738-0.0246 0.0108 0.0291-0.0754 0.11922-0.19167z" fill="#2ca089"/>
<path d="m159.16 113.84c-0.65736-1.1055-1.1862-2.0205-1.1753-2.0331 0.0154-0.0179 2.684 1.8912 2.7611 1.9752 0.0135 0.0147-0.36355 2.0276-0.3861 2.0613-2e-3 3e-3 -0.54236-0.89779-1.1997-2.0033z" fill="#2ca089"/>
<path d="m159.46 112.65c-0.76163-0.5532-1.3552-1.0058-1.319-1.0058 0.0553 0 4.3296 1.0295 4.4381 1.0689 0.026 9e-3 -1.4427 0.80971-1.709 0.93116-0.0139 6e-3 -0.64852-0.44105-1.4102-0.99427z" fill="#2ca089"/>
<path d="m154.57 118.49c-3e-3 -0.29867-0.017-1.3301-0.0311-2.292-0.0141-0.96191-0.0251-1.7532-0.0244-1.7584 7.9e-4 -5e-3 1.2729 0.36228 2.8272 0.81658l2.8259 0.82599-2.7595 1.4595c-1.5177 0.80269-2.776 1.4666-2.7961 1.4754-0.0201 8e-3 -0.039-0.2284-0.042-0.52708z" fill="#2ca089"/>
<path d="m163.67 115.61c-0.33577-1.3229-0.63636-2.5046-0.66798-2.6259l-0.0575-0.22068 1.1796-0.22704c0.6488-0.12486 1.1854-0.21962 1.1926-0.21057 0.0148 0.0189-0.99799 5.6453-1.021 5.6719-8e-3 9e-3 -0.28991-1.0648-0.62568-2.3877z" fill="#2ca089"/>
<path d="m185.27 139.06c-1.2861-1.2075-2.3428-2.2139-2.3482-2.2363-6e-3 -0.0225 0.66659-0.6259 1.4933-1.341l1.5031-1.3002 0.85507 3.525c0.47027 1.9388 0.85059 3.5302 0.84515 3.5365-6e-3 6e-3 -1.0622-0.97653-2.3484-2.1841z" fill="#2ca089"/>
<path d="m174.67 137.03c0.0329-0.0593 0.97916-1.8286 2.1029-3.9318 1.6396-3.0686 2.0532-3.8116 2.0939-3.7614 0.0512 0.0631 3.6953 7.2368 3.7313 7.3453 0.0145 0.0438-0.15515 0.0668-0.67645 0.0918-0.38272 0.0184-2.1468 0.10775-3.9203 0.19865-1.7734 0.0908-3.2619 0.16526-3.3078 0.16526-0.0765 0-0.0784-8e-3 -0.0236-0.1078z" fill="#2ca089"/>
<path d="m170.28 140.29c0.01-0.033 0.73403-2.6536 1.6091-5.8237 1.0083-3.6527 1.6013-5.7324 1.619-5.6781 0.0154 0.0471 0.21642 1.9077 0.44664 4.1346 0.23023 2.2269 0.42767 4.0971 0.43878 4.156 0.018 0.0954-0.20523 0.28099-2.0303 1.689-1.1278 0.87007-2.0619 1.582-2.0759 1.582s-0.0173-0.027-7e-3 -0.0599z" fill="#2ca089"/>
<path d="m170.13 140.06c-0.0133-0.0659-0.16507-1.3273-0.33718-2.8031-0.1721-1.4758-0.32339-2.7426-0.33618-2.8151-0.017-0.0961-7e-3 -0.13178 0.0376-0.13178 0.0334 0 0.0582-0.0335 0.0551-0.0744-6e-3 -0.08 3.7143-5.51 3.7323-5.4472 8e-3 0.0266-2.9647 10.859-3.1127 11.343-8e-3 0.0264-0.0255-6e-3 -0.0389-0.0718z" fill="#2ca089"/>
<path d="m166.36 133.38c-2.0231-0.55763-2.6476-0.74642-2.6376-0.79733 0.0203-0.10345 1.347-4.3074 1.3553-4.2946 0.0375 0.0577 3.9811 5.6862 4.0282 5.7493 0.0566 0.0759 0.0551 0.0834-0.0163 0.0786-0.0434-3e-3 -1.2717-0.33406-2.7296-0.73589z" fill="#2ca089"/>
<path d="m159.05 138.68c0.0578-0.0725 1.109-1.4255 2.3361-3.0068 1.227-1.5812 2.2409-2.8723 2.253-2.8691 3.0074 0.80852 5.4191 1.4838 5.3956 1.5107-0.0386 0.0444-9.9849 4.4968-10.046 4.4968-0.0244 0 3e-3 -0.0593 0.0607-0.13177z" fill="#2ca089"/>
<path d="m164.78 121.48c-0.20896-1.6281-0.37281-2.9684-0.36411-2.9784 0.0171-0.0198 1.5254-0.10219 1.5409-0.0841 0.0168 0.0194-0.73637 5.8484-0.76708 5.9369-0.0169 0.0487-0.19405-1.1941-0.40972-2.8743z" fill="#2ca089"/>
<path d="m169.79 123.15c-2.4281-3.216-3.5076-4.6786-3.4583-4.6858 0.0394-5e-3 1.1512 0.1455 2.4707 0.33598l2.3991 0.34633 1.0689 4.288c0.5879 2.3584 1.0646 4.3111 1.0592 4.3394-5e-3 0.0284-1.5982-2.0524-3.5396-4.6239z" fill="#2ca089"/>
<path d="m172.88 125.31-0.68644-2.7683 3.9726-1.3544c2.1849-0.7449 3.9817-1.3438 3.9929-1.3309 0.0149 0.0172-5.7434 7.2032-6.4841 8.0918l-0.10844 0.13006z" fill="#37c8ab"/>
<path d="m173.49 119.42c-1.0642-0.2012-1.9215-0.37897-1.9052-0.39504 0.0518-0.0508 5.0223-2.3103 5.0393-2.2907 0.0269 0.0311-1.116 3.0291-1.1591 3.0408-0.022 6e-3 -0.91077-0.15382-1.975-0.35502z" fill="#37c8ab"/>
<path d="m166.55 118.14c0.0376-0.0474 8.3296-4.9159 8.3441-4.8991 6e-3 7e-3 -0.27662 0.85321-0.62865 1.8799l-0.64003 1.8667-3.4275 0.56788c-1.8851 0.31233-3.4834 0.57957-3.5517 0.59386-0.0683 0.0143-0.11166 0.0105-0.0963-9e-3z" fill="#37c8ab"/>
<path d="m168.31 114.4c-1.2259-0.11289-2.2366-0.21419-2.246-0.22513-9e-3 -0.0109 1.291-0.5404 2.89-1.1766 1.5989-0.63623 2.915-1.1476 2.9247-1.1365 0.01 0.0111-0.21223 0.63548-0.49306 1.3874l-0.5106 1.3671-0.16805-5e-3c-0.0924-3e-3 -1.171-0.0979-2.3969-0.21076z" fill="#37c8ab"/>
<path d="m165.76 112.07c0.0692-0.0851 3.6591-2.7664 3.6767-2.7461 0.0119 0.0138-0.0128 0.53939-0.0547 1.1681l-0.0763 1.1432-1.5968 0.20333c-0.87826 0.11183-1.6807 0.2154-1.7832 0.23016-0.1025 0.0147-0.17706 0.0153-0.16567 1e-3z" fill="#37c8ab"/>
<path d="m165.67 111.67c-2e-3 -0.0636 1.2982-4.672 1.3135-4.6543 7e-3 7e-3 0.11233 0.52432 0.23468 1.1479l0.22247 1.1338-0.80559 1.1151c-0.88448 1.2243-0.96253 1.326-0.96509 1.2575z" fill="#37c8ab"/>
<path d="m157.37 115.1c-1.5034-0.44121-2.7293-0.81687-2.7242-0.83478 0.0212-0.0737 0.638-0.65143 1.7651-1.653l1.1946-1.0616 0.0717 0.10854c0.0394 0.0597 0.59036 0.98182 1.2242 2.0492s1.1882 1.9999 1.2318 2.0724c0.0557 0.0925 0.063 0.13026 0.0247 0.12668-0.03-3e-3 -1.2847-0.36609-2.7881-0.80731z" fill="#37c8ab"/>
<path d="m163.65 127.77c-0.71422-0.13886-1.3055-0.2605-1.314-0.2703-8e-3 -9e-3 0.6029-0.50638 1.3586-1.1035 0.7557-0.59714 1.3796-1.0792 1.3864-1.0713 0.015 0.0174-0.10445 2.6751-0.12088 2.6883-6e-3 5e-3 -0.59594-0.10429-1.3102-0.24316z" fill="#37c8ab"/>
<path d="m167.62 128.07c-1.3537-0.0224-2.47-0.0507-2.4806-0.063-0.0323-0.0374 0.0863-2.7558 0.12022-2.7558 0.0443 0 7.6341 2.8307 7.6553 2.8551 0.0245 0.0282-2.4075 0.0114-5.2949-0.0363z" fill="#37c8ab"/>
<path d="m161.79 139.22c-1.4847-0.10657-2.7083-0.20428-2.7192-0.21716-0.0109-0.0128 2.189-1.0112 4.8885-2.2186s4.9151-2.1872 4.9235-2.1775c0.0123 0.0143-2.7496 3.0403-4.0799 4.47l-0.31351 0.33694z" fill="#37c8ab"/>
<path d="m180.92 133.03c-1.0093-1.9921-1.828-3.6302-1.8194-3.6402 0.015-0.0173 6.6014 4.5505 6.6693 4.6253 0.029 0.032-2.843 2.5657-2.9661 2.6166-0.0287 0.0119-0.80733-1.477-1.8838-3.6018z" fill="#37c8ab"/>
<path d="m187.77 141.21c-0.0701-0.21854-1.5973-6.5775-1.5873-6.609 0.0158-0.0498 2.7808 4.2612 2.7786 4.3323-8e-4 0.0445-1.1037 2.2652-1.154 2.3246-9e-3 0.0105-0.0256-0.0112-0.0374-0.0479z" fill="#37c8ab"/>
<path d="m174.07 132.65c-0.24722-2.359-0.44291-4.2954-0.43488-4.3032 0.0148-0.0144 4.9916 0.77171 5.0464 0.79706 0.0276 0.0128-4.033 7.6463-4.1221 7.749-0.0257 0.0296-0.20057-1.486-0.48949-4.2429z" fill="#37c8ab"/>
<path d="m164.57 117.34c0.0969-0.53742 0.32345-1.7947 0.50336-2.794 0.17991-0.99927 0.33177-1.7863 0.33746-1.7489 0.0652 0.42762 0.53845 5.3936 0.51643 5.4185-0.0164 0.0186-0.36811 0.0489-0.78163 0.0676l-0.75187 0.0339z" fill="#37c8ab"/>
<path d="m160.35 112c-1.3212-0.32478-2.4346-0.59744-2.4742-0.6059-0.0429-9e-3 1.0742-0.91198 2.7674-2.2363 1.5616-1.2215 2.8469-2.2122 2.8561-2.2015 0.0241 0.0278-0.6979 5.6453-0.72475 5.6393-0.0123-3e-3 -1.1033-0.27076-2.4245-0.59553z" fill="#37c8ab"/>
<path d="m188.01 141.2c0.0331-0.0593 0.29047-0.5683 0.57199-1.1311 0.28151-0.56283 0.53436-1.0333 0.56184-1.0455 0.0275-0.0122 0.81771 0.0278 1.7561 0.089l1.7061 0.11113-2.2923 1.0435c-1.2608 0.57391-2.3084 1.0429-2.3281 1.0422-0.0197-7.9e-4 -9e-3 -0.0498 0.0243-0.10911z" fill="#87decd"/>
<path d="m176.22 128.59c-1.3621-0.21821-2.4849-0.40647-2.4952-0.41836-0.0103-0.0119 1.4676-1.8654 3.2842-4.119 1.8166-2.2535 3.3069-4.0738 3.3119-4.0451 0.0188 0.10789-1.5433 8.958-1.5829 8.9683-0.0228 6e-3 -1.1559-0.16769-2.5179-0.38588z" fill="#87decd"/>
<path d="m172.07 122.08c-0.3742-1.4958-0.71667-2.8883-0.71173-2.894 0.0195-0.0223 3.9197 0.73131 3.9199 0.75735 2e-4 0.031-3.0839 2.3882-3.1245 2.3882-0.0114 0-0.049-0.1132-0.0836-0.25156z" fill="#87decd"/>
<path d="m166.09 118.09c0-0.0394-0.0835-0.89512-0.18564-1.9015-0.1021-1.0064-0.17876-1.8378-0.17035-1.8475 0.0139-0.0162 4.8494 0.40904 4.9228 0.43284 0.0312 0.0105-4.4989 3.3879-4.5437 3.3879-0.0127 0-0.0231-0.0322-0.0231-0.0717z" fill="#87decd"/>
<path d="m165.6 113.19c-0.0498-0.49001-0.0854-0.89701-0.0789-0.90447 0.017-0.0196 3.4387-0.45115 3.4523-0.4354 0.0107 0.0124-2.8676 1.9763-3.1515 2.1504l-0.1312 0.0805z" fill="#87decd"/>
<path d="m167.28 131.17c-1.1354-1.6214-2.0579-2.9532-2.0501-2.9595 0.0192-0.0156 7.9432 0.10686 8.0549 0.12447 0.0743 0.0118-0.23355 0.48139-1.8932 2.8883-1.09 1.5809-1.9966 2.8789-2.0146 2.8846-0.018 5e-3 -0.96167-1.3164-2.097-2.9378z" fill="#87decd"/>
<path d="m162.89 130.02c-0.38058-1.3043-0.6881-2.3711-0.68338-2.3706 0.11112 9e-3 2.6949 0.52767 2.708 0.54279 0.0221 0.0256-1.2816 4.198-1.312 4.1988-0.0114 2.4e-4 -0.33209-1.0666-0.71267-2.3709z" fill="#87decd"/>
<path d="m162.25 127.24c0.0125-0.0494 0.47516-1.9626 1.0281-4.2515 0.55294-2.2889 1.01-4.1433 1.0156-4.1208 0.0548 0.21735 0.79256 6.2225 0.76695 6.2428-0.50058 0.39761-2.7371 2.1543-2.7772 2.1814-0.0414 0.0279-0.0502 0.0142-0.0334-0.0519z" fill="#87decd"/>
<path d="m169.24 126.55c-2.1743-0.81188-3.959-1.496-3.966-1.5203-0.0141-0.0488 0.80502-6.4418 0.8289-6.4694 0.015-0.0173 7.0613 9.2873 7.1235 9.4066 0.0182 0.035 0.0182 0.0626 0 0.0613-0.0182-1e-3 -1.8121-0.66644-3.9864-1.4783z" fill="#87decd"/>
<path d="m167.36 139.97c-1.428-0.28084-2.5978-0.53218-2.5996-0.55854-3e-3 -0.0455 4.5206-5.0056 4.5448-4.9833 0.0128 0.0118 0.71329 5.906 0.71329 6.0015 1e-5 0.033-0.0139 0.0579-0.0311 0.0554-0.0171-2e-3 -1.1994-0.23425-2.6274-0.5151z" fill="#87decd"/>
<path d="m159.5 140.17c-0.37951-0.54634-0.68703-0.9952-0.68338-0.99744 5e-3 -3e-3 4.0643 0.28959 5.1704 0.37282 0.1744 0.0131-1e-3 0.0931-1.7602 0.80152-1.0747 0.43282-1.9726 0.79359-1.9954 0.80171-0.0228 8e-3 -0.35193-0.43225-0.73145-0.97861z" fill="#87decd"/>
<path d="m162.96 112.46c0.0134-0.0892 0.17265-1.3242 0.35387-2.7444 0.18122-1.4202 0.33498-2.5886 0.34168-2.5963 0.0156-0.0181 1.647 4.9228 1.6468 4.9876-8e-5 0.0268-0.50802 0.14312-1.1288 0.25864-0.62074 0.11553-1.1532 0.22054-1.1833 0.23335-0.0413 0.0176-0.0487-0.0165-0.0303-0.13884z" fill="#87decd"/>
<path d="m164.51 109.19c-0.42044-1.2716-0.74823-2.3197-0.72841-2.3292 0.0198-9e-3 0.30502 0.031 0.63379 0.0898 0.5396 0.0966 0.59947 0.11693 0.61524 0.2089 0.0309 0.18008 0.28048 4.3001 0.26182 4.3217-0.01 0.0114-0.362-1.0196-0.78244-2.2912z" fill="#87decd"/>
<path d="m157.69 109.52 0.0109-1.7203 2.0041-0.83086c1.1022-0.45698 2.01-0.82406 2.0172-0.81573 9e-3 0.0107-3.5385 4.4762-4.0049 5.041-0.0232 0.0282-0.0338-0.62591-0.0272-1.6741z" fill="#87decd"/>
<path d="m155.26 113.29c-0.0368-0.15312-0.16634-1.8826-0.14304-1.9096 0.0281-0.0326 1.9993 0.0732 2.1569 0.11575 0.10784 0.0291 0.0464 0.0927-0.9091 0.94116-0.56361 0.50048-1.0381 0.91652-1.0544 0.92457-0.0163 8e-3 -0.039-0.0243-0.0504-0.0718z" fill="#87decd"/>
<path d="m155.95 111.24-0.80028-0.0521 1.3686-2.3 0.49681-0.46718c0.27324-0.25696 0.50715-0.46719 0.51979-0.46719 0.0126 0 0.023 0.75469 0.023 1.6771v1.6771l-0.40381-7e-3c-0.2221-4e-3 -0.76394-0.0312-1.2041-0.0599zm1.2747-1.6686c0.11493-0.16433 0.20836-0.30988 0.20762-0.32344-7.9e-4 -0.0136-0.10791-0.11609-0.23815-0.22785l-0.2368-0.2032-0.23906 0.28946-0.23907 0.28946 0.23907 0.23675c0.13149 0.13021 0.25219 0.23694 0.26825 0.23717 0.0161 2.4e-4 0.12321-0.13402 0.23814-0.29835z" fill="#87decd"/>
<path d="m157.73 109.47 9e-3 -1.6737 0.78692-0.32736c1.9728-0.82072 3.0166-1.2393 3.0541-1.2248 0.0351 0.0136-2.6287 3.4095-3.5426 4.5163l-0.31654 0.38333z" fill="#008066"/>
<path d="m156.87 109.16 0.11063-0.12954 0.20032 0.1864-0.0917 0.0173c-0.0504 9e-3 -0.14529 0.0259-0.21079 0.0364l-0.11909 0.0191z" fill="#008066"/>
<path d="m156.86 109.57c-0.0609-0.0587-0.11143-0.11438-0.11227-0.12366-8e-4 -9e-3 0.0708-0.0254 0.15925-0.0358 0.0884-0.0105 0.18488-0.0258 0.21436-0.0343 0.0768-0.0221 0.0662 0.0139-0.049 0.16623l-0.1016 0.13434z" fill="#fff"/>
<path d="m172.25 126.36c-1.8791-2.456-4.5296-5.9773-5.5091-7.3191-0.3391-0.46454-0.36647-0.51519-0.28492-0.52729 0.0496-7e-3 0.46255 0.0381 0.91763 0.10103 2.2404 0.31001 3.7433 0.53246 3.7815 0.55974 0.0443 0.0317 2.1409 8.4429 2.1126 8.4756-9e-3 0.0105-0.46689-0.57016-1.0177-1.29z" fill="#37c8ab"/>
<path d="m164.83 110.09c-0.48012-1.4296-1.0072-3.0814-1.0072-3.1565 0-0.0263 0.0391-0.0477 0.0869-0.0477 0.15075 2e-5 1.0502 0.18049 1.0818 0.21707 0.0166 0.0192 0.0557 0.40557 0.0868 0.85852 0.0759 1.1063 0.20977 3.4108 0.19882 3.4235-5e-3 5e-3 -0.20601-0.57712-0.44707-1.2949z" fill="#37c8ab"/>
<path d="m158.42 110.61c0.0624-0.0934 0.70392-0.90296 1.4252-1.7986 1.5566-1.933 2.2154-2.7258 2.2648-2.7258 0.0671 0 1.2885 0.6336 1.2879 0.66812-2.6e-4 0.0262-0.91407 0.75041-3.4269 2.7168-0.85584 0.66973-1.5667 1.2177-1.5797 1.2177-0.013 0-1e-4 -0.0352 0.0286-0.0782z" fill="#008066"/>
<path d="m159.85 140.64c-0.61219-0.84936-0.98663-1.4016-0.96628-1.4252 0.0204-0.0235 5.0935 0.33478 5.1165 0.36137 0.0206 0.0238-3.6938 1.5442-3.7728 1.5442-0.0171 0-0.18701-0.21617-0.37744-0.48038z" fill="#008066"/>
<path d="m168.14 140.11c-2.0787-0.41569-3.2059-0.65106-3.2948-0.68801-0.0552-0.0229 0.22632-0.35471 1.3519-1.5936 1.3822-1.5213 2.4907-2.732 2.8944-3.1612l0.19828-0.21078 0.0228 0.14647c0.0541 0.34711 0.68143 5.6667 0.68143 5.778 0 0.0433-0.0366 0.0645-0.10622 0.0616-0.0584-2e-3 -0.84492-0.15204-1.7478-0.33259z" fill="#2ca089"/>
<path d="m188 141.27c0-0.035 0.9197-1.8365 1.0518-2.0602l0.11349-0.19225 0.25747 0.0241c0.14159 0.0132 0.83973 0.0565 1.5514 0.0962 0.71166 0.0397 1.3419 0.0852 1.4005 0.10124 0.087 0.0237-0.21544 0.17518-1.6416 0.82212-2.3963 1.0871-2.7331 1.2361-2.7331 1.2089z" fill="#2ca089"/>
<path d="m162.29 127.15c0.0152-0.0712 0.23636-0.99424 0.49136-2.051 0.94704-3.9251 1.4671-6.0336 1.4965-6.0679 0.0166-0.0194 0.05 0.12137 0.074 0.31281 0.4599 3.6618 0.70941 5.7413 0.69114 5.7598-0.0188 0.0191-2.6784 2.1048-2.7269 2.1384-0.0433 0.03-0.0485 0.012-0.0262-0.0921z" fill="#2ca089"/>
<path d="m163.47 131.95c-0.30366-1.0014-1.2389-4.2498-1.2274-4.2631 0.0249-0.0288 2.6527 0.50933 2.6527 0.54327 0 0.0542-1.2629 4.0848-1.2916 4.122-5e-3 6e-3 -0.0648-0.17495-0.13372-0.40217z" fill="#2ca089"/>
<path d="m155.89 111.23c-0.38178-0.022-0.69413-0.0536-0.69413-0.07s0.29824-0.53204 0.66276-1.1458l0.66275-1.1159 0.48211-0.44994c0.26516-0.24746 0.49428-0.44163 0.50915-0.43147 0.0149 0.0105 0.027 0.7495 0.027 1.643v1.6245l-0.47777-7e-3c-0.26279-4e-3 -0.79014-0.0252-1.1719-0.0473zm1.3411-1.6604c0.11021-0.16296 0.20038-0.30953 0.20038-0.3257 0-0.0162-0.10698-0.12028-0.23774-0.23135l-0.23774-0.20197-0.50508 0.58434 0.23992 0.23548c0.13196 0.12952 0.26241 0.23548 0.2899 0.23548 0.0275 0 0.14015-0.13332 0.25036-0.29628z" fill="#018066" fill-opacity=".99433"/>
<path d="m155.27 113.32c0-0.0109-0.0234-0.28986-0.052-0.61979-0.0976-1.1261-0.1034-1.2746-0.0505-1.2945 0.0557-0.0209 1.1607 0.0229 1.7357 0.0689 0.26203 0.0209 0.38498 0.0464 0.37637 0.0781-0.0161 0.0593-0.44246 0.45747-1.2595 1.1762-0.58641 0.51583-0.75003 0.64478-0.75003 0.59111z" fill="#018066" fill-opacity=".99433"/>
<path d="m164.03 127.82c-0.38673-0.0768-0.91004-0.18072-1.1629-0.23102s-0.45975-0.10527-0.45975-0.12212c0-0.0414 2.6322-2.1408 2.6532-2.1163 0.0136 0.0159-0.0952 2.5057-0.11215 2.5657-0.0205 0.0728-0.11919 0.0624-0.91844-0.0962z" fill="#018066" fill-opacity=".99433"/>
<path d="m167.08 128.05c-1.05-0.0198-1.9165-0.0447-1.9257-0.0555-0.0199-0.023 0.0632-2.1494 0.0971-2.4856l0.0236-0.23336 1.0637 0.39264c1.1968 0.44177 5.1499 1.9194 5.9497 2.2239l0.52285 0.19909-1.9111-3e-3c-1.0511-1e-3 -2.7702-0.0189-3.8201-0.0386z" fill="#018066" fill-opacity=".99433"/>
<text x="186.30296" y="127.44853" fill="#000000" font-family="sans-serif" font-size="10.583px" letter-spacing="0px" stroke-width=".26458" word-spacing="0px" style="line-height:1.25" xml:space="preserve"><tspan x="186.30296" y="127.44853" stroke-width=".26458"> </tspan></text>
</g>
</svg>
