<?xml version="1.0" encoding="UTF-8" standalone="no"?>
<svg
   xmlns:dc="http://purl.org/dc/elements/1.1/"
   xmlns:cc="http://creativecommons.org/ns#"
   xmlns:rdf="http://www.w3.org/1999/02/22-rdf-syntax-ns#"
   xmlns:svg="http://www.w3.org/2000/svg"
   xmlns="http://www.w3.org/2000/svg"
   xmlns:sodipodi="http://sodipodi.sourceforge.net/DTD/sodipodi-0.dtd"
   xmlns:inkscape="http://www.inkscape.org/namespaces/inkscape"
   id="Layer_2"
   data-name="Layer 2"
   viewBox="0 0 702.86353 797.92096"
   version="1.1"
   sodipodi:docname="zilla-preloader.svg"
   width="702.86353"
   height="797.92096"
   inkscape:version="0.92.5 (2060ec1f9f, 2020-04-08)">
  <metadata
     id="metadata22">
    <rdf:RDF>
      <cc:Work
         rdf:about="">
        <dc:format>image/svg+xml</dc:format>
        <dc:type
           rdf:resource="http://purl.org/dc/dcmitype/StillImage" />
        <dc:title></dc:title>
      </cc:Work>
    </rdf:RDF>
  </metadata>
  <sodipodi:namedview
     pagecolor="#ffffff"
     bordercolor="#666666"
     borderopacity="1"
     objecttolerance="10"
     gridtolerance="10"
     guidetolerance="10"
     inkscape:pageopacity="0"
     inkscape:pageshadow="2"
     inkscape:window-width="2560"
     inkscape:window-height="1334"
     id="namedview20"
     showgrid="false"
     fit-margin-top="100"
     fit-margin-left="100"
     fit-margin-right="100"
     fit-margin-bottom="100"
     inkscape:zoom="0.30729167"
     inkscape:cx="-558.85894"
     inkscape:cy="391.92445"
     inkscape:window-x="0"
     inkscape:window-y="54"
     inkscape:window-maximized="1"
     inkscape:current-layer="Layer_2" />
  <defs
     id="defs9">
    <style
       id="style2">.cls-1{fill:#aef4f2;}.cls-2{fill:url(#linear-gradient);}</style>
    <linearGradient
       id="linear-gradient"
       x1="229.53"
       y1="385.10999"
       x2="655.39001"
       y2="385.10999"
       gradientUnits="userSpaceOnUse"
       gradientTransform="translate(-52.57082,13.86097)">
      <stop
         offset="0"
         stop-color="#0082a0"
         id="stop4" />
      <stop
         offset="1"
         stop-color="#2ff4f4"
         id="stop6" />
    </linearGradient>
  </defs>
  <path
     class="cls-1"
     d="m 164.23918,688.33097 -63.53,-143.93 a 7.11,7.11 0 0 1 2.44,-9 7.72,7.72 0 0 1 4.43,-1.49 7.06,7.06 0 0 1 4.88,2 l 81.86,74.5 0.3,0.27 -30.35,77.68 z"
     id="path11"
     inkscape:connector-curvature="0"
     style="fill:#aef4f2" />
  <path
     class="cls-1"
     d="m 550.24918,686.30097 -63.35,-91.83 -205.55,103.44 h 262.8 a 7.41,7.41 0 0 0 6.1,-11.61 z"
     id="path13"
     inkscape:connector-curvature="0"
     style="fill:#aef4f2" />
  <polygon
     class="cls-1"
     points="535.5,323.5 535.5,556.7 356.62,343.18 356.62,343.16 356.35,342.85 356.35,234.62 "
     id="polygon15"
     style="fill:#aef4f2"
     transform="translate(-52.57082,13.86097)" />
  <path
     class="cls-2"
     d="m 292.11918,255.66097 -0.18,0.11 -61.37,34.43 a 10.74,10.74 0 0 0 -0.05,18.7 l 61.42,34.77 0.25,0.14 z m 174.76,-149.68 a 10.72,10.72 0 0 0 -18.67,-1 l -30.45,48.07 a 8.13,8.13 0 0 0 6.47,12.47 v 0 l 60.2,2.9 a 8.13,8.13 0 0 0 7.66,-11.74 z m 67.43,79 a 8.15,8.15 0 0 0 -5.57,-2.59 l -10.84,-0.53 v 0.11 l -132.27,-6.38 a 8.11,8.11 0 0 0 -5.66,1.93 l -70.83,60.39 v 0 l 185.66,92.83 51,25.49 a 8.12,8.12 0 0 0 10.84,-3.52 l 45.31,-87 a 8.13,8.13 0 0 0 -1.26,-9.28 z m -231.52,-38.12 a 11.1,11.1 0 0 0 -3.78,-0.68 10.76,10.76 0 0 0 -10.49,12.77 l 10.61,55.16 a 8.13,8.13 0 0 0 13.3,4.61 l 45.29,-38.69 a 8.13,8.13 0 0 0 -2.46,-13.8 z m 157.84,415.53 -152,-181.47 a 8.13,8.13 0 0 0 -13.81,2.29 l -86.52,223.94 -30.79,79.71 a 8.13,8.13 0 0 0 7.58,11.06 h 68 a 8.11,8.11 0 0 0 3.65,-0.87 l 222.79,-112.1 v 0 z"
     id="path17"
     inkscape:connector-curvature="0"
     style="fill:url(#linear-gradient)" />
</svg>
