<?xml version="1.0" encoding="UTF-8" standalone="no"?>
<svg
   xmlns:dc="http://purl.org/dc/elements/1.1/"
   xmlns:cc="http://creativecommons.org/ns#"
   xmlns:rdf="http://www.w3.org/1999/02/22-rdf-syntax-ns#"
   xmlns:svg="http://www.w3.org/2000/svg"
   xmlns="http://www.w3.org/2000/svg"
   width="97.262314mm"
   height="78.962593mm"
   viewBox="0 0 97.262314 78.962593"
   version="1.1"
   id="svg8">
  <defs
     id="defs2" />
  <metadata
     id="metadata5">
    <rdf:RDF>
      <cc:Work
         rdf:about="">
        <dc:format>image/svg+xml</dc:format>
        <dc:type
           rdf:resource="http://purl.org/dc/dcmitype/StillImage" />
        <dc:title></dc:title>
      </cc:Work>
    </rdf:RDF>
  </metadata>
  <g
     transform="translate(-1.7439538,-26.248538)"
     id="layer1">
    <path
       style="fill:none;stroke:none;stroke-width:0.26458332px;stroke-linecap:butt;stroke-linejoin:miter;stroke-opacity:1"
       d="m 2.2512938,43.239828 0.7409434,9.829825 12.7938308,-6.093161 1.023987,-3.332594 5.057139,-2.34269 3.726531,12.670189 -5.672836,20.26979 7.381243,9.246802 -16.241863,16.319679 3.912852,4.844482 11.191444,-3.91215 14.335261,2.42154 11.17958,-7.453051 21.24119,-0.931629 12.85652,10.43427 13.229155,-5.217131 -9.875285,-0.55898 -8.01203,-10.80693 -18.25998,-10.99325 -15.685154,-6.342427 c 11.35584,-4.542341 11.35584,-4.542341 0,0 l 19.895284,-14.612652 -10.47501,0.450632 4.906106,-8.254284 -11.870386,2.11407 3.5402,-8.94366 -8.968927,1.079679 1.258357,-4.080439 v 0 l -7.314927,1.205133 0.884227,-6.942183 -4.576081,-1.262803 -1.131535,-4.160207 -5.721785,0.75717 -4.18995,-1.296517 -3.639245,-1.097813 -11.3184479,4.0594 -2.9812213,2.42224 -3.726527,5.40347 z"
       id="path10-3-0" />
    <path
       style="fill:none;stroke:none;stroke-width:0.26458332px;stroke-linecap:butt;stroke-linejoin:miter;stroke-opacity:1"
       d="M 49.629816,50.990178 37.360997,53.426179 53.170016,42.046518"
       id="path28-2-9" />
    <path
       style="fill:none;stroke:none;stroke-width:0.26458332px;stroke-linecap:butt;stroke-linejoin:miter;stroke-opacity:1"
       d="m 67.069106,56.67976 -4.21013,20.955079"
       id="path85-6-4" />
    <path
       style="fill:none;stroke:none;stroke-width:0.26458332px;stroke-linecap:butt;stroke-linejoin:miter;stroke-opacity:1"
       d="m 45.459446,39.045758 -13.892109,5.98685"
       id="path191-9" />
    <path
       style="fill:none;stroke:none;stroke-width:0.26458332px;stroke-linecap:butt;stroke-linejoin:miter;stroke-opacity:1"
       d="m 39.028746,33.308708 -9.835595,8.46775"
       id="path195-2" />
    <path
       style="fill:none;stroke:none;stroke-width:0.26458332px;stroke-linecap:butt;stroke-linejoin:miter;stroke-opacity:1"
       d="m 33.32113,27.885698 -4.127979,13.890758 5.259514,-9.730551"
       id="path197-5" />
    <flowRoot
       xml:space="preserve"
       id="flowRoot1873"
       style="font-style:normal;font-variant:normal;font-weight:normal;font-stretch:normal;font-size:192px;line-height:1.25;font-family:sans-serif;-inkscape-font-specification:'sans-serif, Normal';font-variant-ligatures:normal;font-variant-caps:normal;font-variant-numeric:normal;font-feature-settings:normal;text-align:start;letter-spacing:0px;word-spacing:0px;writing-mode:lr-tb;text-anchor:start;fill:#000000;fill-opacity:1;stroke:none"
       transform="scale(0.26458333)"><flowRegion
         id="flowRegion1875"
         style="font-style:normal;font-variant:normal;font-weight:normal;font-stretch:normal;font-size:192px;font-family:sans-serif;-inkscape-font-specification:'sans-serif, Normal';font-variant-ligatures:normal;font-variant-caps:normal;font-variant-numeric:normal;font-feature-settings:normal;text-align:start;writing-mode:lr-tb;text-anchor:start"><rect
           id="rect1877"
           width="74.125877"
           height="153.49651"
           x="601.04895"
           y="221.12108"
           style="font-style:normal;font-variant:normal;font-weight:normal;font-stretch:normal;font-size:192px;font-family:sans-serif;-inkscape-font-specification:'sans-serif, Normal';font-variant-ligatures:normal;font-variant-caps:normal;font-variant-numeric:normal;font-feature-settings:normal;text-align:start;writing-mode:lr-tb;text-anchor:start" /></flowRegion><flowPara
         id="flowPara1879"
         style="font-style:normal;font-variant:normal;font-weight:normal;font-stretch:normal;font-size:192px;font-family:sans-serif;-inkscape-font-specification:'sans-serif, Normal';font-variant-ligatures:normal;font-variant-caps:normal;font-variant-numeric:normal;font-feature-settings:normal;text-align:start;writing-mode:lr-tb;text-anchor:start">Z</flowPara></flowRoot>    <path
       style="fill:none;stroke:none;stroke-width:0.26458332px;stroke-linecap:butt;stroke-linejoin:miter;stroke-opacity:1"
       d="m 6.9430775,33.253812 -1.13449,1.588286 1.1798695,0.998352 1.2252491,-1.542907 z"
       id="path1887" />
    <path
       style="fill:none;stroke:none;stroke-width:0.26458332px;stroke-linecap:butt;stroke-linejoin:miter;stroke-opacity:1"
       d="M 5.8085875,34.842098 8.2137061,34.297543"
       id="path1889" />
    <path
       style="fill:none;stroke:none;stroke-width:0.26458332px;stroke-linecap:butt;stroke-linejoin:miter;stroke-opacity:1"
       d="M 56.594096,57.130391 47.173822,71.292412"
       id="path1891" />
    <path
       style="fill:none;stroke:none;stroke-width:0.26458332px;stroke-linecap:butt;stroke-linejoin:miter;stroke-opacity:1"
       d="M 61.500202,48.876108 28.854166,63.875"
       id="path1893" />
    <path
       style="fill:none;stroke:none;stroke-width:0.26458332px;stroke-linecap:butt;stroke-linejoin:miter;stroke-opacity:1"
       d="M 62.858976,77.634839 28.854166,63.875 37.360997,53.426179"
       id="path1895" />
    <path
       style="fill:none;stroke:none;stroke-width:0.26458332px;stroke-linecap:butt;stroke-linejoin:miter;stroke-opacity:1"
       d="M 28.854167,63.874998 26.164565,100.74 l 36.69441,-23.105163 10.061619,17.142021 8.198361,-6.148771 4.658159,16.583043 3.353871,-5.776113"
       id="path1897" />
    <path
       style="fill:none;stroke:none;stroke-width:0.26458332px;stroke-linecap:butt;stroke-linejoin:miter;stroke-opacity:1"
       d="m 40.499826,103.16154 1.479341,-12.203209 9.700239,4.750156"
       id="path1899" />
    <path
       style="fill:none;stroke:none;stroke-width:0.26458332px;stroke-linecap:butt;stroke-linejoin:miter;stroke-opacity:1"
       d="M 14.973121,104.65215 27.302132,83.487989"
       id="path1901" />
    <path
       style="fill:none;stroke:none;stroke-width:0.26458332px;stroke-linecap:butt;stroke-linejoin:miter;stroke-opacity:1"
       d="M 19.920889,74.241185 28.854167,63.874998"
       id="path1903" />
    <path
       style="fill:none;stroke:none;stroke-width:0.26458332px;stroke-linecap:butt;stroke-linejoin:miter;stroke-opacity:1"
       d="m 25.593725,53.971396 3.599426,-12.19494 8.167846,11.649723"
       id="path1907" />
    <path
       style="fill:none;stroke:none;stroke-width:0.26458332px;stroke-linecap:butt;stroke-linejoin:miter;stroke-opacity:1"
       d="m 31.567337,45.032607 21.602678,-2.98609"
       id="path1909" />
    <path
       style="fill:none;stroke:none;stroke-width:0.26458332px;stroke-linecap:butt;stroke-linejoin:miter;stroke-opacity:1"
       d="M 45.459446,39.045758 29.193151,41.776456"
       id="path1911" />
    <path
       style="fill:none;stroke:none;stroke-width:0.26458332px;stroke-linecap:butt;stroke-linejoin:miter;stroke-opacity:1"
       d="M 2.2512938,43.239827 33.32113,27.885697"
       id="path1913" />
    <path
       style="fill:none;stroke:none;stroke-width:0.26458332px;stroke-linecap:butt;stroke-linejoin:miter;stroke-opacity:1"
       d="M 21.867194,41.301206 19.895833,34.395833"
       id="path1915" />
    <path
       style="fill:none;stroke:none;stroke-width:0.26458332px;stroke-linecap:butt;stroke-linejoin:miter;stroke-opacity:1"
       d="M 2.2512938,43.239827 15.786068,46.976492 19.895833,34.395833"
       id="path1917" />
    <path
       style="fill:none;stroke:none;stroke-width:0.26458332px;stroke-linecap:butt;stroke-linejoin:miter;stroke-opacity:1"
       d="M 51.679406,95.708485 62.858975,77.634837"
       id="path1919" />
    <path
       transform="matrix(0.26458333,0,0,0.26458333,-40.076593,2.723652)"
       id="path3523"
       d="m 159.67657,142.80623 -0.84838,-8.774 6.94247,-10.05684 c 6.77833,-9.81907 7.07468,-10.16418 12.53402,-14.59664 5.54089,-4.49867 5.66042,-4.56427 13.19738,-7.24293 4.18321,-1.48672 13.7169,-4.899396 21.18599,-7.583718 l 13.58015,-4.880585 14.46863,4.438493 c 7.95774,2.441171 15.12716,4.403939 15.93204,4.361707 0.80488,-0.04223 4.63983,-0.500746 8.52213,-1.01892 3.88229,-0.518174 7.11987,-0.880976 7.19461,-0.806226 0.0747,0.07475 -5.40654,2.847619 -12.18066,6.161929 -6.77411,3.31432 -28.2312,13.91415 -47.68242,23.55519 -36.79082,18.23545 -51.09342,25.21654 -51.66266,25.21654 -0.18421,0 -0.71669,-3.9483 -1.1833,-8.774 z m 23.57495,-23.49765 c 0.003,-0.31336 -4.07482,-3.8248 -5.19974,-4.47791 -0.34681,-0.20136 -1.53507,0.99922 -3.04878,3.08038 -1.36426,1.87569 -2.48047,3.49657 -2.48047,3.60197 0,0.10539 1.23137,1.20536 2.73638,2.44436 l 2.73638,2.25274 2.62675,-3.29055 c 1.44472,-1.80981 2.62798,-3.43475 2.62948,-3.61099 z"
       style="fill:#008066;fill-opacity:1;stroke:none;stroke-width:0.48780489" />
    <path
       transform="matrix(0.26458333,0,0,0.26458333,-40.076593,2.723652)"
       id="path3527"
       d="m 175.44936,119.93712 c 0,-0.18973 0.60366,-1.0679 1.34146,-1.95149 l 1.34147,-1.60652 1.17063,1.24637 c 1.27281,1.35515 1.30939,1.31573 -2.02429,2.18152 -1.0061,0.2613 -1.82927,0.31985 -1.82927,0.13012 z"
       style="fill:#008066;fill-opacity:1;stroke:none;stroke-width:0.48780489" />
    <path
       transform="matrix(0.26458333,0,0,0.26458333,-40.076593,2.723652)"
       id="path3529"
       d="m 265.20546,143.08638 c 0,-0.1371 15.74644,-29.53179 16.78656,-31.33634 0.13176,-0.22859 14.91378,4.0312 14.91695,4.29867 0.004,0.35108 -31.04328,27.23884 -31.45282,27.23884 -0.13788,0 -0.25069,-0.0905 -0.25069,-0.20117 z"
       style="fill:#008066;fill-opacity:1;stroke:none;stroke-width:0.48780489" />
    <path
       transform="matrix(0.26458333,0,0,0.26458333,-40.076593,2.723652)"
       id="path3531"
       d="m 266.94723,153.6534 c -3.15394,-4.48328 -3.56549,-5.29343 -2.83735,-5.58537 1.05424,-0.42268 51.41602,-8.76898 51.62874,-8.55626 0.16512,0.16512 -44.22866,19.38554 -44.77516,19.38554 -0.17997,0 -1.98728,-2.35976 -4.01623,-5.24391 z"
       style="fill:#008066;fill-opacity:1;stroke:none;stroke-width:0.48780489" />
    <path
       transform="matrix(0.26458333,0,0,0.26458333,-40.076593,2.723652)"
       id="path3533"
       d="m 282.36454,175.63878 c -5.72104,-8.18443 -10.32951,-14.95316 -10.24105,-15.04162 0.28795,-0.28795 75.16601,-10.52642 75.90795,-10.37929 0.55439,0.10993 -48.06255,35.65954 -54.00652,39.49056 l -1.25849,0.81113 z"
       style="fill:#008066;fill-opacity:1;stroke:none;stroke-width:0.48780489" />
    <path
       transform="matrix(0.26458333,0,0,0.26458333,-40.076593,2.723652)"
       id="path3535"
       d="m 263.91781,228.27583 c 0.17137,-0.27727 6.80259,-8.48258 14.73605,-18.23401 l 14.42447,-17.72988 22.52697,-4.48058 c 21.89152,-4.35418 61.28456,-11.56971 61.55697,-11.27524 0.11357,0.12277 -111.45608,51.4913 -113.02503,52.03862 -0.29205,0.10187 -0.39079,-0.0416 -0.21943,-0.31891 z"
       style="fill:#008066;fill-opacity:1;stroke:none;stroke-width:0.48780489" />
    <path
       transform="matrix(0.26458333,0,0,0.26458333,-40.076593,2.723652)"
       id="path3537"
       d="m 333.49814,255.20819 c 0,-0.16475 7.26989,-11.25575 16.15532,-24.64667 l 16.15532,-24.34714 2.01541,-6.5e-4 c 1.10848,-3.5e-4 9.23761,-0.33303 18.06474,-0.73928 8.82714,-0.40625 16.11546,-0.67252 16.19626,-0.59171 0.0808,0.0808 -13.59394,10.23665 -30.38834,22.56855 -16.7944,12.33189 -32.25954,23.68946 -34.36699,25.23903 -2.10745,1.54957 -3.83172,2.68261 -3.83172,2.51787 z"
       style="fill:#008066;fill-opacity:1;stroke:none;stroke-width:0.48780489" />
    <path
       transform="matrix(0.26458333,0,0,0.26458333,-40.076593,2.723652)"
       id="path3539"
       d="m 201.1233,375.45646 -6.72378,-8.31141 18.05312,-18.39216 c 22.76371,-23.19121 37.63086,-38.00869 37.63086,-37.50512 0,0.3967 -41.28497,71.49494 -41.90034,72.15799 -0.18484,0.19916 -3.36177,-3.37803 -7.05986,-7.9493 z"
       style="fill:#008066;fill-opacity:1;stroke:none;stroke-width:0.48780489" />
    <path
       transform="matrix(0.26458333,0,0,0.26458333,-40.076593,2.723652)"
       id="path3541"
       d="m 241.06401,287.01119 c -7.17448,-8.97402 -13.07401,-16.43401 -13.11007,-16.57775 -0.0361,-0.14375 6.95883,-8.42139 15.5442,-18.39477 14.98765,-17.41072 15.61515,-18.06795 15.74511,-16.49104 0.16043,1.94667 -4.58542,67.23064 -4.91104,67.55626 -0.12303,0.12303 -6.09373,-7.11869 -13.2682,-16.0927 z"
       style="fill:#008066;fill-opacity:1;stroke:none;stroke-width:0.48780489" />
    <path
       transform="matrix(0.26458333,0,0,0.26458333,-40.076593,2.723652)"
       id="path3543"
       d="m 163.25424,187.91835 c 0,-0.65529 -0.55709,-8.46918 -1.23797,-17.36421 -0.68088,-8.89502 -1.17478,-16.22401 -1.09756,-16.28663 0.0772,-0.0626 10.67699,2.80802 23.55504,6.37918 12.87805,3.57117 23.68562,6.55922 24.01683,6.64012 0.47293,0.11551 -40.6748,20.04278 -44.33916,21.47283 -0.72172,0.28166 -0.89718,0.11713 -0.89718,-0.84129 z"
       style="fill:#2ca089;fill-opacity:1;stroke:none;stroke-width:0.48780489" />
    <path
       transform="matrix(0.26458333,0,0,0.26458333,-40.076593,2.723652)"
       id="path3545"
       d="m 221.47209,137.95272 c 2.70898,-8.32241 5.07307,-14.97182 5.25354,-14.77646 0.35093,0.3799 6.2847,21.01491 6.2847,21.85542 0,0.36759 -12.71022,6.6156 -16.09195,7.91038 -0.20444,0.0783 1.84473,-6.66692 4.55371,-14.98934 z"
       style="fill:#2ca089;fill-opacity:1;stroke:none;stroke-width:0.48780489" />
    <path
       transform="matrix(0.26458333,0,0,0.26458333,-40.076593,2.723652)"
       id="path3547"
       d="m 264.98594,145.80427 c 7.89797,-6.98954 32.56869,-27.89112 32.73012,-27.72969 0.24949,0.24948 -2.60761,22.78965 -2.92952,23.11157 -0.2212,0.22119 -28.40436,5.00866 -29.55669,5.02079 -0.42422,0.004 -0.52184,-0.15671 -0.24391,-0.40267 z"
       style="fill:#2ca089;fill-opacity:1;stroke:none;stroke-width:0.48780489" />
    <path
       transform="matrix(0.26458333,0,0,0.26458333,-40.076593,2.723652)"
       id="path3549"
       d="m 276.94865,158.21102 c 0.50744,-0.50744 44.50879,-19.3219 44.71225,-19.11843 0.23833,0.23833 -3.55877,12.9243 -4.00073,13.36626 -0.15426,0.15426 -8.56236,1.42827 -18.68467,2.83112 -10.1223,1.40285 -19.274,2.68869 -20.3371,2.85742 -1.06309,0.16873 -1.82348,0.19737 -1.68975,0.0636 z"
       style="fill:#2ca089;fill-opacity:1;stroke:none;stroke-width:0.48780489" />
    <path
       transform="matrix(0.26458333,0,0,0.26458333,-40.076593,2.723652)"
       id="path3551"
       d="m 296.51182,189.86737 c 0.69701,-0.69701 53.77893,-38.73029 53.89405,-38.61518 0.18899,0.18899 -11.52295,29.75803 -11.96507,30.20813 -0.27384,0.27878 -40.88147,8.6565 -41.95891,8.6565 -0.12074,0 -0.10727,-0.11225 0.0299,-0.24945 z"
       style="fill:#2ca089;fill-opacity:1;stroke:none;stroke-width:0.48780489" />
    <path
       transform="matrix(0.26458333,0,0,0.26458333,-40.076593,2.723652)"
       id="path3553"
       d="m 296.7885,245.02068 c -17.90982,-7.26246 -32.89064,-13.4222 -33.29071,-13.68831 -0.54899,-0.36517 13.823,-7.16079 58.59379,-27.70538 32.62667,-14.97184 59.38506,-27.15477 59.4631,-27.07317 0.53948,0.56411 -19.67189,32.93469 -34.34817,55.01211 -9.71492,14.61408 -17.70652,26.59089 -17.7591,26.61514 -0.0526,0.0242 -14.7491,-5.89793 -32.65891,-13.16039 z"
       style="fill:#2ca089;fill-opacity:1;stroke:none;stroke-width:0.48780489" />
    <path
       transform="matrix(0.26458333,0,0,0.26458333,-40.076593,2.723652)"
       id="path3555"
       d="m 359.48661,270.43974 c -15.35269,-6.21419 -27.90881,-11.40829 -27.90249,-11.54243 0.0143,-0.30276 71.85933,-53.05581 72.05741,-52.90896 0.0789,0.0585 -3.26869,17.05695 -7.43903,37.7744 -4.17032,20.71745 -7.58241,37.75659 -7.58241,37.86474 0,0.53721 -3.23795,-0.70622 -29.13348,-11.18775 z"
       style="fill:#2ca089;fill-opacity:1;stroke:none;stroke-width:0.48780489" />
    <path
       transform="matrix(0.26458333,0,0,0.26458333,-40.076593,2.723652)"
       id="path3557"
       d="m 354.75654,339.99487 c 3.61243,-5.83537 12.76442,-20.63888 20.33775,-32.8967 7.57334,-12.25782 13.93647,-22.12276 14.14029,-21.92209 0.65236,0.64225 36.407,61.74039 36.23256,61.91482 -0.1525,0.15251 -72.07953,3.48079 -75.72139,3.50386 l -1.55727,0.01 z"
       style="fill:#2ca089;fill-opacity:1;stroke:none;stroke-width:0.48780489" />
    <path
       transform="matrix(0.26458333,0,0,0.26458333,-40.076593,2.723652)"
       id="path3559"
       d="m 450.97328,366.33819 -22.68677,-18.41347 14.57027,-10.92324 c 8.01364,-6.00778 14.65466,-10.83773 14.75782,-10.73322 0.3575,0.3622 16.44762,58.08122 16.24701,58.28184 -0.11086,0.11086 -10.41061,-8.0845 -22.88833,-18.21191 z"
       style="fill:#2ca089;fill-opacity:1;stroke:none;stroke-width:0.48780489" />
    <path
       transform="matrix(0.26458333,0,0,0.26458333,-40.076593,2.723652)"
       id="path3561"
       d="m 483.03348,376.16411 c 3.09455,-5.31541 5.68251,-9.72042 5.751,-9.78892 0.15923,-0.15923 32.6261,1.73537 32.80507,1.91434 0.0982,0.0982 -36.74456,14.73834 -43.3321,17.21874 -0.52538,0.19782 1.30011,-3.3737 4.77603,-9.34416 z"
       style="fill:#2ca089;fill-opacity:1;stroke:none;stroke-width:0.48780489" />
    <path
       transform="matrix(0.26458333,0,0,0.26458333,-40.076593,2.723652)"
       id="path3563"
       d="m 305.69326,376.96905 c 0,-0.93695 4.76151,-40.72586 5.00006,-41.78232 0.12341,-0.54655 34.02433,15.78795 34.02433,16.39397 0,0.18055 -8.78049,6.18143 -19.51219,13.3353 -15.25587,10.16971 -19.5122,12.79892 -19.5122,12.05305 z"
       style="fill:#2ca089;fill-opacity:1;stroke:none;stroke-width:0.48780489" />
    <path
       transform="matrix(0.26458333,0,0,0.26458333,-40.076593,2.723652)"
       id="path3565"
       d="m 278.62009,374.51192 c -13.68293,-2.32318 -25.12551,-4.31736 -25.42797,-4.43149 -0.30246,-0.11413 12.08987,-8.15665 27.5385,-17.87226 15.44863,-9.71562 28.17679,-17.57639 28.28479,-17.46839 0.27349,0.27349 -4.88615,43.3598 -5.23445,43.71097 -0.15555,0.15684 -11.47794,-1.61564 -25.16087,-3.93883 z"
       style="fill:#2ca089;fill-opacity:1;stroke:none;stroke-width:0.48780489" />
    <path
       transform="matrix(0.26458333,0,0,0.26458333,-40.076593,2.723652)"
       id="path3567"
       d="m 210.16478,383.306 c 0.0894,-0.25823 9.93092,-17.24801 21.86994,-37.75506 12.78496,-21.96006 21.77045,-36.9122 21.86092,-36.37724 0.14655,0.86661 -3.50865,53.1051 -4.08092,58.3227 l -0.27437,2.50153 -10.82598,3.77228 c -5.95429,2.07476 -14.85039,5.17472 -19.7691,6.88879 -4.91872,1.71408 -8.86994,2.90523 -8.78049,2.647 z"
       style="fill:#2ca089;fill-opacity:1;stroke:none;stroke-width:0.48780489" />
    <path
       transform="matrix(0.26458333,0,0,0.26458333,-40.076593,2.723652)"
       id="path3571"
       d="m 228.78515,265.97048 c 6.18846,-22.61109 19.81445,-70.79809 25.55874,-90.386 7.16943,-24.44762 7.67181,-25.94372 8.43569,-25.12196 0.9993,1.07504 28.26499,40.0244 28.56435,40.80454 0.29494,0.76858 -27.87663,35.29629 -46.02619,56.41074 -8.18698,9.52439 -15.31611,17.75609 -15.84251,18.29268 l -0.9571,0.97561 z"
       style="fill:#2ca089;fill-opacity:1;stroke:none;stroke-width:0.48780489" />
    <path
       transform="matrix(0.26458333,0,0,0.26458333,-40.076593,2.723652)"
       id="path3575"
       d="m 475.72115,384.7096 c -0.84802,-2.36785 -15.39917,-54.80896 -15.28746,-55.09473 0.15882,-0.40629 26.40913,34.89704 26.61691,35.79635 0.2114,0.91501 -11.04581,20.09035 -11.32945,19.29838 z"
       style="fill:#37c8ab;fill-opacity:1;stroke:none;stroke-width:0.48780489" />
    <path
       transform="matrix(0.26458333,0,0,0.26458333,-40.076593,2.723652)"
       id="path3577"
       d="m 414.42416,324.87292 c -7.04864,-12.0061 -15.06801,-25.66398 -17.82083,-30.35086 -2.75281,-4.68687 -4.93888,-8.58781 -4.85794,-8.66875 0.26345,-0.26345 64.67169,38.64353 64.55193,38.99379 -0.10341,0.30247 -28.64022,21.85509 -28.93729,21.85509 -0.0661,0 -5.88723,-9.82318 -12.93587,-21.82927 z"
       style="fill:#37c8ab;fill-opacity:1;stroke:none;stroke-width:0.48780489" />
    <path
       transform="matrix(0.26458333,0,0,0.26458333,-40.076593,2.723652)"
       id="path3579"
       d="m 328.98594,341.90648 c -9.59146,-4.70412 -17.43757,-8.67754 -17.43579,-8.82984 0.004,-0.38027 74.14605,-47.02192 74.37776,-46.79021 0.14109,0.14109 -39.05347,63.89116 -39.42424,64.12364 -0.0433,0.0271 -7.92626,-3.79947 -17.51773,-8.50359 z"
       style="fill:#37c8ab;fill-opacity:1;stroke:none;stroke-width:0.48780489" />
    <path
       transform="matrix(0.26458333,0,0,0.26458333,-40.076593,2.723652)"
       id="path3581"
       d="m 186.01235,159.6171 c -12.83669,-3.57741 -23.4156,-6.58053 -23.50868,-6.67361 -0.0931,-0.0931 13.91388,-7.1227 31.12658,-15.62139 17.2127,-8.49868 31.34752,-15.40044 31.41071,-15.33725 0.11323,0.11322 -9.80713,30.61213 -10.41981,32.03441 -0.17336,0.40244 -1.11062,3.25502 -2.0828,6.33906 -1.13513,3.60095 -2.02147,5.63523 -2.47708,5.68526 -0.39021,0.0428 -11.21222,-2.84907 -24.04892,-6.42648 z"
       style="fill:#37c8ab;fill-opacity:1;stroke:none;stroke-width:0.48780489" />
    <path
       transform="matrix(0.26458333,0,0,0.26458333,-40.076593,2.723652)"
       id="path3583"
       d="m 247.95111,190.11682 c -1.10106,-2.91951 -20.31926,-69.41826 -20.11964,-69.61789 0.51386,-0.51385 47.75266,-23.580672 47.92933,-23.404003 0.1873,0.187294 -8.11045,28.483943 -24.70304,84.241403 -1.55688,5.23171 -2.95487,9.18293 -3.10665,8.78049 z"
       style="fill:#87decd;fill-opacity:1;stroke:none;stroke-width:0.48780489" />
    <path
       transform="matrix(0.26458333,0,0,0.26458333,-40.076593,2.723652)"
       id="path3585"
       d="m 251.41143,366.05657 c 0.12882,-1.65711 2.36241,-32.2548 4.96355,-67.99487 2.60113,-35.74007 4.87824,-65.13086 5.06024,-65.31286 0.182,-0.182 13.67183,5.068 29.9774,11.66665 83.96143,33.97813 95.03755,38.48434 95.33846,38.78746 0.25238,0.25423 -54.5222,34.95045 -133.49551,84.56094 l -2.07835,1.3056 z"
       style="fill:#87decd;fill-opacity:1;stroke:none;stroke-width:0.48780489" />
    <path
       transform="matrix(0.26458333,0,0,0.26458333,-40.076593,2.723652)"
       id="path3587"
       d="m 265.34332,138.61106 c 0.79412,-3.72583 11.87655,-40.081553 12.1351,-39.809007 0.17696,0.186536 1.0153,2.938157 1.86296,6.114707 l 1.54121,5.77555 -6.34905,11.78543 c -7.94094,14.74039 -9.46272,17.41185 -9.19022,16.13332 z"
       style="fill:#87decd;fill-opacity:1;stroke:none;stroke-width:0.48780489" />
    <path
       transform="matrix(0.26458333,0,0,0.26458333,-40.076593,2.723652)"
       id="path3589"
       d="m 247.64448,188.91421 c 0,-0.12485 -1.4248,-5.04804 -3.16623,-10.94042 -5.03648,-17.04167 -16.34596,-56.55539 -16.34596,-57.11046 0,-0.2781 3.34756,-2.13191 7.43902,-4.11958 4.09146,-1.98768 14.66964,-7.14053 23.50705,-11.45079 8.83742,-4.31025 16.14874,-7.756126 16.24737,-7.657492 0.22214,0.222139 -3.47885,12.956362 -16.31611,56.139892 -5.50316,18.51219 -10.1177,34.04268 -10.25453,34.51219 -0.21659,0.74317 -1.11061,1.24762 -1.11061,0.62666 z"
       style="fill:#37c8ab;fill-opacity:1;stroke:none;stroke-width:0.48780489" />
    <path
       transform="matrix(0.26458333,0,0,0.26458333,-40.076593,2.723652)"
       id="path3591"
       d="m 229.28266,264.99487 c 0.15219,-0.53659 2.16417,-7.78049 4.47106,-16.09756 13.46873,-48.55911 27.54114,-96.92814 28.49673,-97.9476 0.19932,-0.21264 3.21817,3.62882 6.70856,8.53658 7.57943,10.65727 21.03972,30.05169 21.6606,31.20993 0.50048,0.93363 -0.72882,2.65739 -10.71895,15.03036 -13.79649,17.08721 -45.93572,55.23883 -49.92809,59.26829 l -0.96663,0.97561 z"
       style="fill:#87decd;fill-opacity:1;stroke:none;stroke-width:0.48780489" />
    <path
       id="path10-3-4-0-7"
       d="m 100.41071,34.95106 0.16785,10.45204 14.86995,-6.71932 1.15648,-4.98082 5.08522,-2.28331 3.6716,12.34902 -5.58921,19.75599 3.78297,11.14444 -12.51297,13.77397 3.85517,4.72167 11.02647,-3.81295 14.12396,2.36014 11.0148,-7.26412 20.92809,-0.90803 12.66699,10.16978 13.03419,-5.0849 -9.72978,-0.54478 -7.89391,-10.53301 -17.99079,-10.71459 -13.40135,-1.81602 c 11.18845,-4.42721 11.18845,-4.42721 0,0 l 17.54939,-18.60789 -12.47585,0.54074 3.19171,-7.23285 -7.89809,1.14676 3.48803,-8.71696 -10.46405,3.63207 2.86711,-6.55676 -6.79656,0.058 0.46068,-5.64939 -5.12443,0.49512 -1.32012,-5.78068 -4.81637,0.73795 -3.71768,-0.55293 -3.99614,-1.78068 -11.1516,3.9565 -2.93728,2.36083 -3.6716,5.26649 0.49987,4.97676 z"
       style="fill:none;stroke:none;stroke-width:0.25927603px;stroke-linecap:butt;stroke-linejoin:miter;stroke-opacity:1" />
    <path
       id="path229-0-1-4"
       d="m 119.624,16.74855 -11.15276,11.91861 6.7e-4,-7.9621"
       style="fill:none;stroke:none;stroke-width:0.25927603px;stroke-linecap:butt;stroke-linejoin:miter;stroke-opacity:1" />
    <g
       id="text4608-3-7"
       style="font-style:normal;font-weight:normal;font-size:10.58333302px;line-height:1.25;font-family:sans-serif;letter-spacing:0px;word-spacing:0px;fill:#018066;fill-opacity:0.99914216;stroke:none;stroke-width:0.26458332"
       aria-label="Devop    illa"
       transform="translate(-19.160093,126.60418)">
      <path
         id="path2916"
         style="font-style:normal;font-variant:normal;font-weight:normal;font-stretch:normal;font-size:25.39999962px;font-family:Righteous;-inkscape-font-specification:'Righteous, Normal';font-variant-ligatures:normal;font-variant-caps:normal;font-variant-numeric:normal;font-feature-settings:normal;text-align:start;writing-mode:lr-tb;text-anchor:start;fill:#018066;fill-opacity:0.99914216;stroke-width:0.26458332"
         d="m 18.92561,136.72834 q 0,1.22783 -0.322461,2.36885 -0.310059,1.12861 -0.892969,2.1208 -0.58291,0.97978 -1.389062,1.79834 -0.806153,0.80615 -1.79834,1.38906 -0.992188,0.58291 -2.133203,0.90537 -1.128614,0.31006 -2.356446,0.31006 H 4.6753169 v -17.78496 h 5.3578121 q 1.227832,0 2.356446,0.32246 1.141015,0.31006 2.133203,0.89297 0.992187,0.58291 1.79834,1.40146 0.806152,0.80616 1.389062,1.79834 0.58291,0.97979 0.892969,2.1208 0.322461,1.12862 0.322461,2.35645 z m -3.559473,0 q 0,-1.10381 -0.42168,-2.07119 -0.409277,-0.96739 -1.141015,-1.68672 -0.719336,-0.73174 -1.699121,-1.15342 -0.967383,-0.42168 -2.071192,-0.42168 H 8.2595942 v 10.66602 h 1.7735348 q 1.103809,0 2.071192,-0.40928 0.979785,-0.42168 1.699121,-1.14102 0.731738,-0.73173 1.141015,-1.69912 0.42168,-0.97978 0.42168,-2.08359 z" />
      <path
         id="path2918"
         style="font-style:normal;font-variant:normal;font-weight:normal;font-stretch:normal;font-size:25.39999962px;font-family:Righteous;-inkscape-font-specification:'Righteous, Normal';font-variant-ligatures:normal;font-variant-caps:normal;font-variant-numeric:normal;font-feature-settings:normal;text-align:start;writing-mode:lr-tb;text-anchor:start;fill:#018066;fill-opacity:0.99914216;stroke-width:0.26458332"
         d="m 26.218188,142.37141 q 0.198437,0.062 0.396875,0.0868 0.198437,0.0124 0.396875,0.0124 0.496094,0 0.95498,-0.13642 0.458887,-0.13643 0.855762,-0.38447 0.409277,-0.26045 0.719336,-0.62012 0.322461,-0.37207 0.520898,-0.81856 l 2.480469,2.49287 q -0.471289,0.66973 -1.091406,1.20303 -0.607715,0.5333 -1.327051,0.90537 -0.706933,0.37207 -1.500683,0.55811 -0.781348,0.19844 -1.612305,0.19844 -1.401465,0 -2.641699,-0.5209 -1.227832,-0.5209 -2.158008,-1.45108 -0.917773,-0.93017 -1.451074,-2.20761 -0.533301,-1.28985 -0.533301,-2.82774 0,-1.5751 0.533301,-2.87734 0.533301,-1.30225 1.451074,-2.22002 0.930176,-0.91777 2.158008,-1.42627 1.240234,-0.5085 2.641699,-0.5085 0.830957,0 1.624707,0.19844 0.79375,0.19844 1.500684,0.57051 0.719335,0.37207 1.339453,0.91777 0.620117,0.5333 1.091406,1.20303 z m 1.736328,-6.98252 q -0.235644,-0.0868 -0.471289,-0.11163 -0.223242,-0.0248 -0.471289,-0.0248 -0.694531,0 -1.314648,0.26045 -0.607715,0.24805 -1.066602,0.71934 -0.446484,0.47128 -0.706934,1.14101 -0.260449,0.65732 -0.260449,1.48828 0,0.18604 0.0124,0.42168 0.0248,0.23565 0.06201,0.48369 0.04961,0.23565 0.111621,0.45889 0.06201,0.22324 0.161231,0.39687 z" />
      <path
         id="path2920"
         style="font-style:normal;font-variant:normal;font-weight:normal;font-stretch:normal;font-size:25.39999962px;font-family:Righteous;-inkscape-font-specification:'Righteous, Normal';font-variant-ligatures:normal;font-variant-caps:normal;font-variant-numeric:normal;font-feature-settings:normal;text-align:start;writing-mode:lr-tb;text-anchor:start;fill:#018066;fill-opacity:0.99914216;stroke-width:0.26458332"
         d="m 37.926,145.62082 -5.060156,-13.28291 h 3.857128 l 2.902149,8.28476 2.889746,-8.28476 h 3.869531 l -5.060156,13.28291 z" />
      <path
         id="path2922"
         style="font-style:normal;font-variant:normal;font-weight:normal;font-stretch:normal;font-size:25.39999962px;font-family:Righteous;-inkscape-font-specification:'Righteous, Normal';font-variant-ligatures:normal;font-variant-caps:normal;font-variant-numeric:normal;font-feature-settings:normal;text-align:start;writing-mode:lr-tb;text-anchor:start;fill:#018066;fill-opacity:0.99914216;stroke-width:0.26458332"
         d="m 60.1634,138.86154 q 0,1.48828 -0.5333,2.77813 -0.533301,1.27744 -1.451075,2.22002 -0.917773,0.93017 -2.158007,1.47588 -1.227832,0.5333 -2.6417,0.5333 -1.401464,0 -2.641699,-0.5333 -1.227832,-0.54571 -2.158007,-1.47588 -0.917774,-0.94258 -1.451075,-2.22002 -0.5333,-1.28985 -0.5333,-2.77813 0,-1.51308 0.5333,-2.80293 0.533301,-1.28984 1.451075,-2.22002 0.930175,-0.94258 2.158007,-1.47588 1.240235,-0.5333 2.641699,-0.5333 1.413868,0 2.6417,0.5085 1.240234,0.49609 2.158007,1.42627 0.917774,0.91777 1.451075,2.22002 0.5333,1.28984 0.5333,2.87734 z m -3.410644,0 q 0,-0.81855 -0.272852,-1.47588 -0.260449,-0.66972 -0.719336,-1.14101 -0.458886,-0.48369 -1.079003,-0.73174 -0.607715,-0.26045 -1.302247,-0.26045 -0.694531,0 -1.314648,0.26045 -0.607715,0.24805 -1.066602,0.73174 -0.446484,0.47129 -0.706933,1.14101 -0.260449,0.65733 -0.260449,1.47588 0,0.76895 0.260449,1.42627 0.260449,0.65733 0.706933,1.14102 0.458887,0.48369 1.066602,0.76894 0.620117,0.27285 1.314648,0.27285 0.694532,0 1.302247,-0.26045 0.620117,-0.26044 1.079003,-0.73173 0.458887,-0.47129 0.719336,-1.14102 0.272852,-0.66973 0.272852,-1.47588 z" />
      <path
         id="path2924"
         style="font-style:normal;font-variant:normal;font-weight:normal;font-stretch:normal;font-size:25.39999962px;font-family:Righteous;-inkscape-font-specification:'Righteous, Normal';font-variant-ligatures:normal;font-variant-caps:normal;font-variant-numeric:normal;font-feature-settings:normal;text-align:start;writing-mode:lr-tb;text-anchor:start;fill:#018066;fill-opacity:0.99914216;stroke-width:0.26458332"
         d="m 65.471605,150.68098 h -3.410644 v -18.34307 h 0.818554 l 1.351856,1.5999 q 0.458887,-0.43408 1.00459,-0.81855 0.545703,-0.38448 1.128613,-0.65733 0.595312,-0.28525 1.227832,-0.44648 0.632519,-0.16123 1.277441,-0.16123 1.401465,0 2.629297,0.50849 1.240235,0.4961 2.158008,1.41387 0.930176,0.91777 1.463476,2.22002 0.533301,1.28984 0.533301,2.86494 0,1.63711 -0.533301,2.95176 -0.5333,1.30225 -1.463476,2.22002 -0.917773,0.90537 -2.158008,1.38906 -1.227832,0.48369 -2.629297,0.48369 -0.446484,0 -0.892968,-0.0992 -0.434082,-0.0992 -0.868164,-0.26044 -0.42168,-0.17364 -0.84336,-0.38448 -0.409277,-0.21084 -0.79375,-0.43408 z m 6.784082,-11.81944 q 0,-0.84336 -0.272851,-1.51308 -0.26045,-0.66973 -0.719336,-1.12862 -0.458887,-0.47129 -1.079004,-0.71933 -0.620117,-0.24805 -1.314649,-0.24805 -0.694531,0 -1.314648,0.24805 -0.607715,0.24804 -1.066602,0.71933 -0.458886,0.45889 -0.731738,1.12862 -0.260449,0.66972 -0.260449,1.51308 0,0.80615 0.260449,1.47588 0.272852,0.66973 0.731738,1.14102 0.458887,0.47129 1.066602,0.73173 0.620117,0.26045 1.314648,0.26045 0.694532,0 1.314649,-0.26045 0.620117,-0.26044 1.079004,-0.73173 0.458886,-0.47129 0.719336,-1.14102 0.272851,-0.66973 0.272851,-1.47588 z" />
      <path
         id="path2926"
         style="font-style:normal;font-variant:normal;font-weight:normal;font-stretch:normal;font-size:25.39999962px;font-family:Righteous;-inkscape-font-specification:'Righteous, Normal';font-variant-ligatures:normal;font-variant-caps:normal;font-variant-numeric:normal;font-feature-settings:normal;text-align:start;writing-mode:lr-tb;text-anchor:start;fill:#018066;fill-opacity:0.99914216;stroke-width:0.26458332"
         d="m 109.9092,128.72883 q 0,0.47129 -0.18603,0.88056 -0.17364,0.40928 -0.48369,0.71934 -0.31006,0.29766 -0.73174,0.48369 -0.40928,0.17363 -0.88057,0.17363 -0.47129,0 -0.89297,-0.17363 -0.40928,-0.18603 -0.71933,-0.48369 -0.29766,-0.31006 -0.4837,-0.71934 -0.17363,-0.40927 -0.17363,-0.88056 0,-0.45889 0.17363,-0.86817 0.18604,-0.42168 0.4837,-0.71933 0.31005,-0.31006 0.71933,-0.48369 0.42168,-0.18604 0.89297,-0.18604 0.47129,0 0.88057,0.18604 0.42168,0.17363 0.73174,0.48369 0.31005,0.29765 0.48369,0.71933 0.18603,0.40928 0.18603,0.86817 z m -0.58291,16.89199 h -3.41064 v -13.28291 h 3.41064 z" />
      <path
         id="path2928"
         style="font-style:normal;font-variant:normal;font-weight:normal;font-stretch:normal;font-size:25.39999962px;font-family:Righteous;-inkscape-font-specification:'Righteous, Normal';font-variant-ligatures:normal;font-variant-caps:normal;font-variant-numeric:normal;font-feature-settings:normal;text-align:start;writing-mode:lr-tb;text-anchor:start;fill:#018066;fill-opacity:0.99914216;stroke-width:0.26458332"
         d="m 115.32902,145.62082 h -3.41064 v -18.56631 h 3.41064 z" />
      <path
         id="path2930"
         style="font-style:normal;font-variant:normal;font-weight:normal;font-stretch:normal;font-size:25.39999962px;font-family:Righteous;-inkscape-font-specification:'Righteous, Normal';font-variant-ligatures:normal;font-variant-caps:normal;font-variant-numeric:normal;font-feature-settings:normal;text-align:start;writing-mode:lr-tb;text-anchor:start;fill:#018066;fill-opacity:0.99914216;stroke-width:0.26458332"
         d="m 121.33176,145.62082 h -3.41064 v -18.56631 h 3.41064 z" />
      <path
         id="path2932"
         style="font-style:normal;font-variant:normal;font-weight:normal;font-stretch:normal;font-size:25.39999962px;font-family:Righteous;-inkscape-font-specification:'Righteous, Normal';font-variant-ligatures:normal;font-variant-caps:normal;font-variant-numeric:normal;font-feature-settings:normal;text-align:start;writing-mode:lr-tb;text-anchor:start;fill:#018066;fill-opacity:0.99914216;stroke-width:0.26458332"
         d="m 136.78508,145.62082 h -0.81856 l -1.31464,-1.82315 q -0.4837,0.43409 -1.0294,0.81856 -0.5333,0.37207 -1.12861,0.65732 -0.59531,0.27286 -1.22783,0.43409 -0.62012,0.16123 -1.26504,0.16123 -1.40147,0 -2.6417,-0.47129 -1.22783,-0.47129 -2.15801,-1.36426 -0.91777,-0.90537 -1.45107,-2.20762 -0.5333,-1.30224 -0.5333,-2.96416 0,-1.55029 0.5333,-2.84013 0.5333,-1.30225 1.45107,-2.23243 0.93018,-0.93017 2.15801,-1.43867 1.24023,-0.5209 2.6417,-0.5209 0.64492,0 1.27744,0.16123 0.63252,0.16123 1.22783,0.44649 0.59531,0.28525 1.12861,0.66972 0.54571,0.38448 1.017,0.83096 l 1.31464,-1.5751 h 0.81856 z m -3.41065,-6.75928 q 0,-0.69453 -0.27285,-1.33945 -0.26045,-0.65733 -0.71933,-1.15342 -0.45889,-0.5085 -1.07901,-0.80615 -0.60771,-0.31006 -1.30224,-0.31006 -0.69453,0 -1.31465,0.23564 -0.60772,0.23565 -1.0666,0.69454 -0.44649,0.45888 -0.70694,1.14101 -0.26045,0.66973 -0.26045,1.53789 0,0.86817 0.26045,1.55029 0.26045,0.66973 0.70694,1.12862 0.45888,0.45888 1.0666,0.69453 0.62012,0.23564 1.31465,0.23564 0.69453,0 1.30224,-0.29765 0.62012,-0.31006 1.07901,-0.80615 0.45888,-0.5085 0.71933,-1.15342 0.27285,-0.65733 0.27285,-1.35186 z" />
    </g>
    <path
       style="fill:none;stroke:none;stroke-width:0.10583333px;stroke-linecap:butt;stroke-linejoin:miter;stroke-opacity:1"
       d="m 51.602892,252.90203 0.296378,3.93193 5.117532,-2.43726 0.409595,-1.33304 2.022856,-0.93708 1.490612,5.06808 -2.269134,8.10792 2.952497,3.69872 -6.496745,6.52787 1.56514,1.93779 4.476578,-1.56486 5.734104,0.96862 4.471832,-2.98122 8.496476,-0.37266 5.142608,4.17371 5.291661,-2.08685 -3.950113,-0.22359 -3.204813,-4.32277 -7.303991,-4.3973 -6.274061,-2.53698 c 4.542336,-1.81693 4.542336,-1.81693 0,0 l 7.958113,-5.84506 -4.190004,0.18026 1.962442,-3.30172 -4.748154,0.84563 1.416081,-3.57746 -3.587572,0.43187 0.503343,-1.63218 v 0 l -2.92597,0.48206 0.353691,-2.77688 -1.830434,-0.50512 -0.452613,-1.66408 -2.288714,0.30287 -1.67598,-0.51861 -1.455698,-0.43912 -4.527379,1.62376 -1.192489,0.96889 -1.49061,2.16139 z"
       id="path10-3-0-4" />
    <path
       style="fill:none;stroke:none;stroke-width:0.10583333px;stroke-linecap:butt;stroke-linejoin:miter;stroke-opacity:1"
       d="m 70.554301,256.00217 -4.907528,0.9744 6.323609,-4.55186"
       id="path28-2-9-2" />
    <path
       style="fill:none;stroke:none;stroke-width:0.10583333px;stroke-linecap:butt;stroke-linejoin:miter;stroke-opacity:1"
       d="m 77.530017,258.278 -1.684052,8.38204"
       id="path85-6-4-0" />
    <path
       style="fill:none;stroke:none;stroke-width:0.10583333px;stroke-linecap:butt;stroke-linejoin:miter;stroke-opacity:1"
       d="m 68.886153,251.2244 -5.556843,2.39474"
       id="path191-9-6" />
    <path
       style="fill:none;stroke:none;stroke-width:0.10583333px;stroke-linecap:butt;stroke-linejoin:miter;stroke-opacity:1"
       d="m 66.313874,248.92958 -3.934238,3.3871"
       id="path195-2-5" />
    <path
       style="fill:none;stroke:none;stroke-width:0.10583333px;stroke-linecap:butt;stroke-linejoin:miter;stroke-opacity:1"
       d="m 64.030827,246.76038 -1.651191,5.5563 2.103804,-3.89222"
       id="path197-5-9" />
    <path
       style="fill:none;stroke:none;stroke-width:0.10583333px;stroke-linecap:butt;stroke-linejoin:miter;stroke-opacity:1"
       d="m 53.479606,248.90762 -0.453796,0.63532 0.471948,0.39934 0.490099,-0.61716 z"
       id="path1887-5" />
    <path
       style="fill:none;stroke:none;stroke-width:0.10583333px;stroke-linecap:butt;stroke-linejoin:miter;stroke-opacity:1"
       d="m 53.02581,249.54294 0.962047,-0.21782"
       id="path1889-6" />
    <path
       style="fill:none;stroke:none;stroke-width:0.10583333px;stroke-linecap:butt;stroke-linejoin:miter;stroke-opacity:1"
       d="m 73.340013,258.45826 -3.768109,5.6648"
       id="path1891-1" />
    <path
       style="fill:none;stroke:none;stroke-width:0.10583333px;stroke-linecap:butt;stroke-linejoin:miter;stroke-opacity:1"
       d="M 75.302455,255.15654 62.244041,261.1561"
       id="path1893-1" />
    <path
       style="fill:none;stroke:none;stroke-width:0.10583333px;stroke-linecap:butt;stroke-linejoin:miter;stroke-opacity:1"
       d="m 75.845965,266.66004 -13.601924,-5.50394 3.402732,-4.17953"
       id="path1895-4" />
    <path
       style="fill:none;stroke:none;stroke-width:0.10583333px;stroke-linecap:butt;stroke-linejoin:miter;stroke-opacity:1"
       d="m 62.244042,261.1561 -1.075841,14.746 14.677763,-9.24206 4.024648,6.8568 3.279344,-2.4595 1.863264,6.63321 1.341549,-2.31044"
       id="path1897-3" />
    <path
       style="fill:none;stroke:none;stroke-width:0.10583333px;stroke-linecap:butt;stroke-linejoin:miter;stroke-opacity:1"
       d="m 66.902305,276.87072 0.591736,-4.88129 3.880096,1.90007"
       id="path1899-7" />
    <path
       style="fill:none;stroke:none;stroke-width:0.10583333px;stroke-linecap:butt;stroke-linejoin:miter;stroke-opacity:1"
       d="m 56.691623,277.46696 4.931605,-8.46566"
       id="path1901-2" />
    <path
       style="fill:none;stroke:none;stroke-width:0.10583333px;stroke-linecap:butt;stroke-linejoin:miter;stroke-opacity:1"
       d="m 58.670731,265.30257 3.573311,-4.14647"
       id="path1903-7" />
    <path
       style="fill:none;stroke:none;stroke-width:0.10583333px;stroke-linecap:butt;stroke-linejoin:miter;stroke-opacity:1"
       d="m 60.939865,257.19466 1.439771,-4.87798 3.267137,4.65989"
       id="path1907-3" />
    <path
       style="fill:none;stroke:none;stroke-width:0.10583333px;stroke-linecap:butt;stroke-linejoin:miter;stroke-opacity:1"
       d="m 63.32931,253.61914 8.64107,-1.19443"
       id="path1909-3" />
    <path
       style="fill:none;stroke:none;stroke-width:0.10583333px;stroke-linecap:butt;stroke-linejoin:miter;stroke-opacity:1"
       d="m 68.886153,251.2244 -6.506517,1.09228"
       id="path1911-9" />
    <path
       style="fill:none;stroke:none;stroke-width:0.10583333px;stroke-linecap:butt;stroke-linejoin:miter;stroke-opacity:1"
       d="m 51.602892,252.90203 12.427935,-6.14165"
       id="path1913-2" />
    <path
       style="fill:none;stroke:none;stroke-width:0.10583333px;stroke-linecap:butt;stroke-linejoin:miter;stroke-opacity:1"
       d="m 59.449253,252.12658 -0.788545,-2.76215"
       id="path1915-4" />
    <path
       style="fill:none;stroke:none;stroke-width:0.10583333px;stroke-linecap:butt;stroke-linejoin:miter;stroke-opacity:1"
       d="m 51.602892,252.90203 5.41391,1.49467 1.643906,-5.03227"
       id="path1917-4" />
    <path
       style="fill:none;stroke:none;stroke-width:0.10583333px;stroke-linecap:butt;stroke-linejoin:miter;stroke-opacity:1"
       d="m 71.374137,273.88949 4.471827,-7.22945"
       id="path1919-4" />
    <path
       id="path3523-9"
       d="m 51.570841,251.80922 -0.08979,-0.92858 0.734745,-1.06435 c 0.717373,-1.03919 0.748737,-1.07571 1.326517,-1.54481 0.586411,-0.47611 0.599061,-0.48305 1.396723,-0.76654 0.442723,-0.15735 1.451705,-0.51852 2.242184,-0.80262 l 1.437232,-0.51652 1.531264,0.46974 c 0.842194,0.25836 1.600957,0.46608 1.686141,0.46161 0.08518,-0.004 0.491048,-0.053 0.901925,-0.10783 0.410876,-0.0548 0.75352,-0.0932 0.76143,-0.0853 0.0079,0.008 -0.572193,0.30137 -1.28912,0.65214 -0.716927,0.35076 -2.987802,1.47258 -5.04639,2.49292 -3.893695,1.92992 -5.407387,2.66875 -5.467631,2.66875 -0.0195,0 -0.07585,-0.41786 -0.125233,-0.92858 z m 2.495016,-2.48684 c 3.17e-4,-0.0332 -0.431252,-0.40478 -0.550306,-0.47391 -0.0367,-0.0213 -0.162462,0.10575 -0.322662,0.32601 -0.144385,0.19851 -0.262517,0.37005 -0.262517,0.38121 0,0.0112 0.13032,0.12757 0.2896,0.25869 l 0.289601,0.23842 0.277997,-0.34825 c 0.1529,-0.19154 0.278128,-0.36351 0.278287,-0.38217 z"
       style="fill:#008066;fill-opacity:1;stroke:none;stroke-width:0.05162602" />
    <path
       id="path3527-9"
       d="m 53.240128,249.38891 c 0,-0.0201 0.06389,-0.11302 0.141971,-0.20654 l 0.141973,-0.17002 0.123891,0.13191 c 0.134706,0.14342 0.138578,0.13924 -0.214237,0.23088 -0.106479,0.0276 -0.193598,0.0338 -0.193598,0.0138 z"
       style="fill:#008066;fill-opacity:1;stroke:none;stroke-width:0.05162602" />
    <path
       id="path3529-3"
       d="m 62.739316,251.83887 c 0,-0.0145 1.666498,-3.12545 1.776577,-3.31643 0.01394,-0.0242 1.578375,0.42664 1.578711,0.45494 4.4e-4,0.0372 -3.285414,2.88278 -3.328757,2.88278 -0.01459,0 -0.02653,-0.01 -0.02653,-0.0213 z"
       style="fill:#008066;fill-opacity:1;stroke:none;stroke-width:0.05162602" />
    <path
       id="path3531-8"
       d="m 62.923653,252.95721 c -0.333792,-0.47448 -0.377348,-0.56022 -0.300287,-0.59112 0.111574,-0.0447 5.44153,-0.92805 5.464042,-0.90553 0.01748,0.0175 -4.680866,2.05163 -4.738704,2.05163 -0.01905,0 -0.210321,-0.24974 -0.425051,-0.55498 z"
       style="fill:#008066;fill-opacity:1;stroke:none;stroke-width:0.05162602" />
    <path
       id="path3533-3"
       d="m 64.555318,255.284 c -0.605476,-0.86619 -1.093206,-1.58254 -1.083844,-1.59191 0.03048,-0.0305 7.955069,-1.11404 8.033591,-1.09847 0.05867,0.0116 -5.08662,3.77397 -5.71569,4.17942 l -0.13319,0.0858 z"
       style="fill:#008066;fill-opacity:1;stroke:none;stroke-width:0.05162602" />
    <path
       id="path3535-2"
       d="m 62.603039,260.85475 c 0.01814,-0.0294 0.719941,-0.89774 1.559566,-1.92976 l 1.526589,-1.87641 2.384105,-0.4742 c 2.316852,-0.46082 6.485949,-1.22446 6.514779,-1.1933 0.01202,0.013 -11.795769,5.4495 -11.961816,5.50742 -0.03091,0.0108 -0.04136,-0.004 -0.02322,-0.0338 z"
       style="fill:#008066;fill-opacity:1;stroke:none;stroke-width:0.05162602" />
    <path
       id="path3537-9"
       d="m 69.966958,263.7051 c 0,-0.0174 0.769396,-1.19124 1.709771,-2.60844 l 1.709771,-2.57674 0.213298,-7e-5 c 0.117314,-4e-5 0.977647,-0.0352 1.911852,-0.0782 0.934205,-0.043 1.705552,-0.0712 1.714104,-0.0626 0.0086,0.009 -1.438692,1.08338 -3.2161,2.38851 -1.777407,1.30513 -3.414134,2.50713 -3.637173,2.67113 -0.223038,0.164 -0.405523,0.28391 -0.405523,0.26648 z"
       style="fill:#008066;fill-opacity:1;stroke:none;stroke-width:0.05162602" />
    <path
       id="path3539-5"
       d="m 55.957287,276.43137 -0.7116,-0.87963 1.910622,-1.9465 c 2.409159,-2.4544 3.982599,-4.02258 3.982599,-3.96929 0,0.042 -4.369326,7.56655 -4.434453,7.63672 -0.01956,0.0211 -0.355787,-0.35751 -0.747168,-0.8413 z"
       style="fill:#008066;fill-opacity:1;stroke:none;stroke-width:0.05162602" />
    <path
       id="path3541-4"
       d="m 60.184345,267.07091 c -0.759299,-0.94975 -1.383666,-1.73926 -1.387482,-1.75448 -0.0038,-0.0152 0.736476,-0.89126 1.645094,-1.94678 1.586193,-1.84263 1.652604,-1.91219 1.666358,-1.7453 0.01698,0.20603 -0.485291,7.11525 -0.519752,7.14971 -0.01302,0.013 -0.64492,-0.7534 -1.404218,-1.70315 z"
       style="fill:#008066;fill-opacity:1;stroke:none;stroke-width:0.05162602" />
    <path
       id="path3543-3"
       d="m 51.949478,256.58359 c 0,-0.0693 -0.05896,-0.89633 -0.131019,-1.83772 -0.07206,-0.94139 -0.12433,-1.71704 -0.116158,-1.72367 0.0082,-0.007 1.129981,0.29719 2.492908,0.67514 1.362928,0.37794 2.506729,0.69418 2.541782,0.70274 0.05005,0.0122 -4.30475,2.1212 -4.692561,2.27254 -0.07638,0.0298 -0.09495,0.0124 -0.09495,-0.089 z"
       style="fill:#2ca089;fill-opacity:1;stroke:none;stroke-width:0.05162602" />
    <path
       id="path3545-9"
       d="m 58.110867,251.29556 c 0.286701,-0.88079 0.5369,-1.58452 0.556,-1.56384 0.03714,0.0402 0.665131,2.22407 0.665131,2.31303 0,0.0389 -1.345165,0.70015 -1.703065,0.83718 -0.02164,0.008 0.195234,-0.70558 0.481934,-1.58637 z"
       style="fill:#2ca089;fill-opacity:1;stroke:none;stroke-width:0.05162602" />
    <path
       id="path3547-4"
       d="m 62.716083,252.12651 c 0.835869,-0.73972 3.446853,-2.95181 3.463938,-2.93472 0.0264,0.0264 -0.275972,2.4119 -0.310041,2.44597 -0.02341,0.0234 -3.006128,0.53008 -3.128083,0.53137 -0.0449,4e-4 -0.05523,-0.0166 -0.02581,-0.0426 z"
       style="fill:#2ca089;fill-opacity:1;stroke:none;stroke-width:0.05162602" />
    <path
       id="path3549-9"
       d="m 63.982136,253.43956 c 0.05371,-0.0537 4.710514,-2.0449 4.732047,-2.02337 0.02522,0.0252 -0.376637,1.36783 -0.423411,1.4146 -0.01632,0.0163 -0.906183,0.15116 -1.97746,0.29963 -1.071277,0.14846 -2.039832,0.28455 -2.152344,0.30241 -0.11251,0.0178 -0.192984,0.0209 -0.178832,0.007 z"
       style="fill:#2ca089;fill-opacity:1;stroke:none;stroke-width:0.05162602" />
    <path
       id="path3551-5"
       d="m 66.052572,256.78986 c 0.07377,-0.0738 5.691603,-4.09896 5.703787,-4.08678 0.02,0.02 -1.219512,3.1494 -1.266303,3.19703 -0.02898,0.0295 -4.326622,0.91615 -4.440652,0.91615 -0.01278,0 -0.01135,-0.0119 0.0032,-0.0264 z"
       style="fill:#2ca089;fill-opacity:1;stroke:none;stroke-width:0.05162602" />
    <path
       id="path3553-5"
       d="m 66.081854,262.62692 c -1.895456,-0.76861 -3.480926,-1.42052 -3.523267,-1.44868 -0.0581,-0.0386 1.462934,-0.75785 6.201176,-2.93216 3.452989,-1.58452 6.284919,-2.87388 6.293178,-2.86524 0.05709,0.0597 -2.081941,3.48559 -3.635181,5.82212 -1.028162,1.54665 -1.87394,2.8142 -1.879505,2.81676 -0.0056,0.002 -1.560946,-0.62419 -3.456401,-1.3928 z"
       style="fill:#2ca089;fill-opacity:1;stroke:none;stroke-width:0.05162602" />
    <path
       id="path3555-7"
       d="m 72.717404,265.3171 c -1.624826,-0.65767 -2.953682,-1.20738 -2.953014,-1.22157 0.0015,-0.032 7.605113,-5.61508 7.626076,-5.59953 0.0084,0.006 -0.345936,1.80519 -0.787297,3.99778 -0.441359,2.1926 -0.802472,3.99591 -0.802472,4.00736 0,0.0568 -0.342683,-0.0747 -3.083293,-1.18404 z"
       style="fill:#2ca089;fill-opacity:1;stroke:none;stroke-width:0.05162602" />
    <path
       id="path3557-3"
       d="m 72.216805,272.67835 c 0.382315,-0.61757 1.350901,-2.18428 2.152412,-3.48157 0.801511,-1.29728 1.474943,-2.34132 1.496514,-2.32008 0.06904,0.068 3.853074,6.53419 3.834612,6.55265 -0.01614,0.0162 -7.628417,0.36838 -8.013847,0.37082 l -0.164811,0.001 z"
       style="fill:#2ca089;fill-opacity:1;stroke:none;stroke-width:0.05162602" />
    <path
       id="path3559-9"
       d="m 82.399743,275.46635 -2.401016,-1.94875 1.54202,-1.15605 c 0.84811,-0.63582 1.550951,-1.14699 1.561869,-1.13593 0.03784,0.0383 1.740707,6.14693 1.719476,6.16816 -0.01173,0.0117 -1.10179,-0.85561 -2.422349,-1.92743 z"
       style="fill:#2ca089;fill-opacity:1;stroke:none;stroke-width:0.05162602" />
    <path
       id="path3561-0"
       d="m 85.792781,276.50626 c 0.327507,-0.56254 0.601399,-1.02874 0.608647,-1.03599 0.01685,-0.0168 3.45293,0.18366 3.47187,0.2026 0.01039,0.0104 -3.888799,1.55981 -4.58598,1.82232 -0.0556,0.0209 0.137595,-0.35705 0.505463,-0.98893 z"
       style="fill:#2ca089;fill-opacity:1;stroke:none;stroke-width:0.05162602" />
    <path
       id="path3563-7"
       d="m 67.024274,276.59145 c 0,-0.0992 0.503927,-4.31015 0.529174,-4.42196 0.01306,-0.0578 3.600908,1.67089 3.600908,1.73503 0,0.0191 -0.929269,0.6542 -2.06504,1.41132 -1.61458,1.07629 -2.065042,1.35455 -2.065042,1.27561 z"
       style="fill:#2ca089;fill-opacity:1;stroke:none;stroke-width:0.05162602" />
    <path
       id="path3565-2"
       d="m 64.159031,276.33141 c -1.448111,-0.24587 -2.659117,-0.45693 -2.691127,-0.469 -0.03201,-0.0121 1.279511,-0.86325 2.914491,-1.89149 1.63498,-1.02823 2.982044,-1.86016 2.993474,-1.84873 0.02894,0.029 -0.517118,4.58891 -0.55398,4.62607 -0.01646,0.0166 -1.214748,-0.17098 -2.662858,-0.41685 z"
       style="fill:#2ca089;fill-opacity:1;stroke:none;stroke-width:0.05162602" />
    <path
       id="path3567-7"
       d="m 56.914177,277.26211 c 0.0095,-0.0273 1.051022,-1.82541 2.314568,-3.99574 1.353076,-2.32411 2.30404,-3.90654 2.313615,-3.84993 0.01551,0.0917 -0.371333,5.6203 -0.431898,6.17249 l -0.02904,0.26475 -1.14575,0.39923 c -0.630162,0.21958 -1.571666,0.54766 -2.092229,0.72906 -0.520564,0.18141 -0.938735,0.30747 -0.929268,0.28014 z"
       style="fill:#2ca089;fill-opacity:1;stroke:none;stroke-width:0.05162602" />
    <path
       id="path3571-2"
       d="m 58.884833,264.8441 c 0.654945,-2.393 2.097029,-7.4928 2.704966,-9.56585 0.758765,-2.58737 0.811933,-2.74571 0.892777,-2.65874 0.10576,0.11377 2.991379,4.23592 3.023061,4.31848 0.03122,0.0813 -2.950277,3.73553 -4.871105,5.97014 -0.866455,1.008 -1.620955,1.87919 -1.676666,1.93597 l -0.101293,0.10326 z"
       style="fill:#2ca089;fill-opacity:1;stroke:none;stroke-width:0.05162602" />
    <path
       id="path3575-9"
       d="m 85.018893,277.41066 c -0.08975,-0.2506 -1.629746,-5.80062 -1.617923,-5.83086 0.01681,-0.043 2.794966,3.69327 2.816956,3.78845 0.02237,0.0968 -1.169015,2.12623 -1.199033,2.04241 z"
       style="fill:#37c8ab;fill-opacity:1;stroke:none;stroke-width:0.05162602" />
    <path
       id="path3577-0"
       d="m 78.531628,271.07794 c -0.745981,-1.27064 -1.594698,-2.7161 -1.886038,-3.21213 -0.291339,-0.49603 -0.522698,-0.90887 -0.514132,-0.91744 0.02788,-0.0279 6.844421,4.08977 6.831746,4.12684 -0.01094,0.032 -3.03109,2.313 -3.06253,2.313 -0.007,0 -0.623065,-1.03962 -1.369046,-2.31027 z"
       style="fill:#37c8ab;fill-opacity:1;stroke:none;stroke-width:0.05162602" />
    <path
       id="path3579-5"
       d="m 69.489416,272.88066 c -1.015096,-0.49785 -1.845476,-0.91837 -1.845287,-0.93449 4.4e-4,-0.0402 7.847123,-4.97649 7.871646,-4.95196 0.01493,0.0149 -4.133159,6.76181 -4.172399,6.78642 -0.0046,0.003 -0.838862,-0.40211 -1.85396,-0.89997 z"
       style="fill:#37c8ab;fill-opacity:1;stroke:none;stroke-width:0.05162602" />
    <path
       id="path3581-0"
       d="m 54.358045,253.58837 c -1.35855,-0.37861 -2.478151,-0.69644 -2.488003,-0.70629 -0.0099,-0.01 1.472553,-0.75382 3.294231,-1.65326 1.821677,-0.89945 3.317612,-1.62988 3.3243,-1.6232 0.01198,0.012 -1.037922,3.23979 -1.102764,3.39031 -0.01835,0.0426 -0.11754,0.34449 -0.220429,0.67089 -0.120135,0.3811 -0.213939,0.59639 -0.262158,0.60169 -0.0413,0.005 -1.186627,-0.30153 -2.545177,-0.68014 z"
       style="fill:#37c8ab;fill-opacity:1;stroke:none;stroke-width:0.05162602" />
    <path
       id="path3583-4"
       d="m 60.91323,256.81626 c -0.116529,-0.30898 -2.150455,-7.34677 -2.129328,-7.3679 0.05438,-0.0544 5.053823,-2.49562 5.07252,-2.47692 0.01982,0.0198 -0.858356,3.01455 -2.614405,8.91555 -0.16477,0.55369 -0.312724,0.97186 -0.328787,0.92927 z"
       style="fill:#87decd;fill-opacity:1;stroke:none;stroke-width:0.05162602" />
    <path
       id="path3585-1"
       d="m 61.279447,275.43655 c 0.01363,-0.17538 0.250022,-3.41363 0.525309,-7.19613 0.275286,-3.78249 0.516281,-6.89301 0.535542,-6.91227 0.01926,-0.0192 1.446936,0.53636 3.172609,1.23472 8.885918,3.59601 10.05814,4.07292 10.089987,4.105 0.02671,0.0269 -5.770266,3.69893 -14.128275,8.94937 l -0.219959,0.13818 z"
       style="fill:#87decd;fill-opacity:1;stroke:none;stroke-width:0.05162602" />
    <path
       id="path3587-7"
       d="m 62.753906,251.36523 c 0.08404,-0.39431 1.256935,-4.24196 1.284298,-4.21312 0.01873,0.0198 0.107452,0.31096 0.197163,0.64714 l 0.163111,0.61125 -0.67194,1.24729 c -0.840417,1.56002 -1.001472,1.84275 -0.972632,1.70744 z"
       style="fill:#87decd;fill-opacity:1;stroke:none;stroke-width:0.05162602" />
    <path
       id="path3589-9"
       d="m 60.880779,256.68898 c 0,-0.0132 -0.150792,-0.53425 -0.335093,-1.15786 -0.533028,-1.80358 -1.729948,-5.98544 -1.729948,-6.04419 0,-0.0294 0.354284,-0.22563 0.787297,-0.43599 0.433012,-0.21036 1.552536,-0.7557 2.487829,-1.21188 0.935294,-0.45616 1.709075,-0.82085 1.719514,-0.81041 0.02351,0.0235 -0.368179,1.37121 -1.726789,5.94147 -0.582418,1.95921 -1.07079,3.60285 -1.085271,3.65254 -0.02292,0.0787 -0.117539,0.13204 -0.117539,0.0663 z"
       style="fill:#37c8ab;fill-opacity:1;stroke:none;stroke-width:0.05162602" />
    <path
       id="path3591-3"
       d="m 58.937486,264.74085 c 0.01611,-0.0568 0.229041,-0.82343 0.473187,-1.70366 1.425441,-5.13917 2.914771,-10.25823 3.015904,-10.36612 0.0211,-0.0225 0.340589,0.38405 0.709989,0.90346 0.802157,1.12789 2.226704,3.18047 2.292414,3.30305 0.05297,0.0988 -0.07713,0.28124 -1.134422,1.59071 -1.460129,1.8084 -4.861531,5.84611 -5.284057,6.27256 L 58.9082,264.8441 Z"
       style="fill:#87decd;fill-opacity:1;stroke:none;stroke-width:0.05162602" />
    <path
       id="path10-3-4-0"
       d="m 58.781049,202.14718 0.06637,4.83585 5.882661,-3.10883 0.457512,-2.30448 2.011754,-1.05642 1.45251,5.71353 -2.211136,9.14051 1.496576,5.15621 -4.950228,6.37281 1.525138,2.18458 4.362148,-1.76415 5.587535,1.09198 4.357531,-3.3609 8.2793,-0.42012 5.011147,4.70526 5.15642,-2.35263 -3.849159,-0.25206 -3.12289,-4.87331 -7.117289,-4.95733 -5.301665,-0.84022 c 4.426225,-2.04834 4.426225,-2.04834 0,0 l 6.942656,-8.60932 -4.93553,0.25019 1.262658,-3.34643 -3.124531,0.53057 1.379882,-4.03308 -4.139645,1.68045 1.134253,-3.03362 -2.688772,0.0268 0.182245,-2.61381 -2.027256,0.22908 -0.522248,-2.67455 -1.905397,0.34143 -1.470734,-0.25583 -1.580899,-0.82387 -4.411652,1.83056 -1.162007,1.09229 -1.45251,2.43665 0.19775,2.3026 z"
       style="fill:none;stroke:none;stroke-width:0.11092526px;stroke-linecap:butt;stroke-linejoin:miter;stroke-opacity:1" />
    <path
       id="path14-7-7-7"
       d="m 69.770613,200.02301 -1.118759,6.20382 0.861589,6.71457 -3.072722,2.42594 2.943643,0.56393 -1.44707,4.59228 v 0 l 5.773042,1.5744 -10.723269,4.79841 5.887288,0.42043 4.835981,-5.26353 0.751556,6.35551 3.41339,-12.35131 0.944139,8.99041 4.357518,-8.15019 3.921782,7.73007 3.195518,-2.77274 1.815629,7.478 1.307261,-2.60469"
       style="fill:none;stroke:none;stroke-width:0.11092526px;stroke-linecap:butt;stroke-linejoin:miter;stroke-opacity:1" />
    <path
       id="path20-3-9-7"
       d="m 69.770613,200.02301 0.617993,6.122 -1.736752,0.0818"
       style="fill:none;stroke:none;stroke-width:0.11092526px;stroke-linecap:butt;stroke-linejoin:miter;stroke-opacity:1" />
    <path
       id="path24-5-7-7"
       d="m 77.875282,216.05746 -2.280219,-9.16349 -5.206457,-0.74896 7.486676,9.91245 -4.164946,6.04049 -4.325972,-6.16668 8.490918,0.12619"
       style="fill:none;stroke:none;stroke-width:0.11092526px;stroke-linecap:butt;stroke-linejoin:miter;stroke-opacity:1" />
    <path
       id="path28-2-2-6"
       d="m 78.020538,204.88247 -7.631932,1.26254 9.011816,-5.29562"
       style="fill:none;stroke:none;stroke-width:0.11092526px;stroke-linecap:butt;stroke-linejoin:miter;stroke-opacity:1" />
    <path
       id="path62-6-2-9"
       d="m 75.595063,206.89397 5.549998,-2.54207"
       style="fill:none;stroke:none;stroke-width:0.11092526px;stroke-linecap:butt;stroke-linejoin:miter;stroke-opacity:1" />
    <path
       id="path64-0-1-1"
       d="m 84.817951,207.44814 -8.365257,2.85268 3.429717,-2.60249 -4.287348,-0.80436"
       style="fill:none;stroke:none;stroke-width:0.11092526px;stroke-linecap:butt;stroke-linejoin:miter;stroke-opacity:1" />
    <path
       id="path85-6-6-1"
       d="m 84.817951,207.44814 -1.641012,9.44954"
       style="fill:none;stroke:none;stroke-width:0.11092526px;stroke-linecap:butt;stroke-linejoin:miter;stroke-opacity:1" />
    <path
       id="path191-3-9"
       d="m 76.395026,199.49622 -6.429841,2.5588 5.295585,0.47482 -4.872164,3.61517"
       style="fill:none;stroke:none;stroke-width:0.11092526px;stroke-linecap:butt;stroke-linejoin:miter;stroke-opacity:1" />
    <path
       id="path195-0-0"
       d="m 73.888498,196.90915 -4.117885,3.11386 3.935643,-0.50005 -3.741071,2.53206"
       style="fill:none;stroke:none;stroke-width:0.11092526px;stroke-linecap:butt;stroke-linejoin:miter;stroke-opacity:1" />
    <path
       id="path197-2-8"
       d="m 71.338994,194.46367 -1.568381,5.55934 2.090632,-2.88478"
       style="fill:none;stroke:none;stroke-width:0.11092526px;stroke-linecap:butt;stroke-linejoin:miter;stroke-opacity:1" />
    <path
       id="path201-1-9"
       d="m 58.781049,202.14718 5.949027,1.72702"
       style="fill:none;stroke:none;stroke-width:0.11092526px;stroke-linecap:butt;stroke-linejoin:miter;stroke-opacity:1" />
    <path
       id="path203-5-8"
       d="m 59.553545,201.3875 2.416313,-2.1477 2.760218,4.6344"
       style="fill:none;stroke:none;stroke-width:0.11092526px;stroke-linecap:butt;stroke-linejoin:miter;stroke-opacity:1" />
    <path
       id="path205-6-8"
       d="m 61.969858,199.2398 5.229487,1.2735 0.763516,-5.96402 z"
       style="fill:none;stroke:none;stroke-width:0.11092526px;stroke-linecap:butt;stroke-linejoin:miter;stroke-opacity:1" />
    <path
       id="path207-5-0"
       d="M 65.18759,201.56972 61.969858,199.2398"
       style="fill:none;stroke:none;stroke-width:0.11092526px;stroke-linecap:butt;stroke-linejoin:miter;stroke-opacity:1" />
    <path
       id="path211-0-3"
       d="m 67.199345,200.5133 2.571268,-0.49029"
       style="fill:none;stroke:none;stroke-width:0.11092526px;stroke-linecap:butt;stroke-linejoin:miter;stroke-opacity:1" />
    <path
       id="path217-0-7"
       d="m 61.305388,196.75273 -0.37928,0.45969 0.397343,0.397 0.36122,-0.52238 z"
       style="fill:none;stroke:none;stroke-width:0.11092526px;stroke-linecap:butt;stroke-linejoin:miter;stroke-opacity:1" />
    <path
       id="path219-3-0"
       d="m 60.926108,197.21242 0.758563,-0.12538"
       style="fill:none;stroke:none;stroke-width:0.11092526px;stroke-linecap:butt;stroke-linejoin:miter;stroke-opacity:1" />
    <path
       id="path221-4-6"
       d="m 69.384364,215.93127 0.129079,-2.98987 8.361839,3.11606"
       style="fill:none;stroke:none;stroke-width:0.11092526px;stroke-linecap:butt;stroke-linejoin:miter;stroke-opacity:1" />
    <path
       id="path223-6-9"
       d="m 70.388606,206.14501 -0.875163,6.79639"
       style="fill:none;stroke:none;stroke-width:0.11092526px;stroke-linecap:butt;stroke-linejoin:miter;stroke-opacity:1" />
    <path
       id="path225-6-2"
       d="m 69.433597,194.80511 0.337016,5.2179 -1.807752,-5.47373"
       style="fill:none;stroke:none;stroke-width:0.11092526px;stroke-linecap:butt;stroke-linejoin:miter;stroke-opacity:1" />
    <path
       id="path229-0-1"
       d="m 66.381965,193.72541 -4.412107,5.51439 2.64e-4,-3.68383"
       style="fill:none;stroke:none;stroke-width:0.11092526px;stroke-linecap:butt;stroke-linejoin:miter;stroke-opacity:1" />
    <path
       id="path231-2-7"
       d="m 59.355795,199.08491 2.614063,0.15489"
       style="fill:none;stroke:none;stroke-width:0.11092526px;stroke-linecap:butt;stroke-linejoin:miter;stroke-opacity:1" />
    <path
       id="path48-5-7"
       d="m 70.290887,199.45251 c 0.02725,-0.0521 1.443665,-2.02388 1.564434,-2.1778 0.03656,-0.0466 1.676947,-0.27472 1.708965,-0.23768 0.01304,0.0151 -3.242173,2.47538 -3.27524,2.47538 -0.01622,0 -0.01537,-0.027 0.0019,-0.0599 z"
       style="fill:#2ca089;stroke:none;stroke-width:0.0445483" />
    <path
       id="path50-8-9"
       d="m 70.802888,201.60237 c 0,-0.0105 0.656976,-0.46194 1.459947,-1.00409 l 1.459947,-0.9857 1.104521,-0.0142 c 0.607486,-0.007 1.101133,-0.0105 1.096989,-0.005 -0.01095,0.0125 -5.0834,2.02781 -5.104027,2.02781 -0.0095,0 -0.01738,-0.008 -0.01738,-0.0184 z"
       style="fill:#2ca089;stroke:none;stroke-width:0.0445483" />
    <path
       id="path54-9-7"
       d="m 72.086813,205.00417 c 0,-0.0105 0.720616,-0.55356 1.601366,-1.20737 l 1.601365,-1.18877 1.390589,-0.56568 c 0.764825,-0.31113 1.404355,-0.56023 1.421177,-0.55355 0.03055,0.0121 -5.936435,3.53399 -5.987518,3.53399 -0.01484,0 -0.02697,-0.008 -0.02697,-0.0186 z"
       style="fill:#2ca089;stroke:none;stroke-width:0.0445483" />
    <path
       id="path56-5-6"
       d="m 73.142945,206.45939 c -1.207305,-0.17851 -2.179895,-0.32682 -2.161316,-0.32955 0.271722,-0.0399 5.29453,-0.87148 7.003127,-1.15935 1.250678,-0.21072 2.301005,-0.3768 2.334054,-0.36906 0.110191,0.0258 -4.686255,2.19477 -4.839446,2.18841 -0.07772,-0.003 -1.129118,-0.15192 -2.336419,-0.33045 z"
       style="fill:#2ca089;stroke:none;stroke-width:0.0445483" />
    <path
       id="path58-0-2"
       d="m 77.038207,209.96455 c 0.02162,-0.0229 0.682341,-0.52649 1.468233,-1.11918 l 1.42888,-1.07762 1.76022,-0.0807 c 0.968121,-0.0443 1.927961,-0.0913 2.13296,-0.10418 0.361682,-0.0229 0.26689,0.0128 -3.189089,1.19898 -1.95902,0.67241 -3.579562,1.22294 -3.601202,1.2234 -0.02487,4.5e-4 -0.02487,-0.0145 0,-0.0408 z"
       style="fill:#2ca089;stroke:none;stroke-width:0.0445483" />
    <path
       id="path62-60-7"
       d="m 69.796537,199.27282 c -0.0617,-0.73848 -0.285049,-4.36772 -0.269872,-4.38528 0.02659,-0.0308 1.658508,-0.31547 1.678114,-0.29279 0.0097,0.0112 -0.291603,1.11694 -0.669637,2.45708 -0.378034,1.34015 -0.693009,2.45818 -0.699955,2.48453 -0.0069,0.0264 -0.02431,-0.0922 -0.03866,-0.26354 z"
       style="fill:#2ca089;stroke:none;stroke-width:0.0445483" />
    <path
       id="path64-8-1"
       d="m 62.704058,198.45395 c 0.778822,-1.00454 3.682801,-4.59569 3.716295,-4.59569 0.06504,0 1.359286,0.68016 1.357813,0.71357 -0.0013,0.0294 -5.110626,4.03735 -5.193321,4.07379 -0.02455,0.0108 0.02911,-0.0754 0.119213,-0.19167 z"
       style="fill:#2ca089;stroke:none;stroke-width:0.0445483" />
    <path
       id="path66-3-5"
       d="m 63.498686,201.6606 c -0.657368,-1.10554 -1.186235,-2.02046 -1.175266,-2.03314 0.01545,-0.0179 2.684018,1.89116 2.761094,1.9752 0.01349,0.0147 -0.363551,2.0276 -0.386104,2.06126 -0.0024,0.003 -0.542359,-0.89779 -1.199724,-2.00332 z"
       style="fill:#2ca089;stroke:none;stroke-width:0.0445483" />
    <path
       id="path68-7-8"
       d="m 63.806106,200.47032 c -0.761633,-0.5532 -1.355162,-1.00583 -1.318951,-1.00583 0.05525,0 4.329594,1.02951 4.438102,1.06894 0.02601,0.009 -1.442706,0.80971 -1.708991,0.93116 -0.01394,0.006 -0.648528,-0.44105 -1.41016,-0.99427 z"
       style="fill:#2ca089;stroke:none;stroke-width:0.0445483" />
    <path
       id="path70-8-8"
       d="m 58.910803,206.30855 c -0.0031,-0.29867 -0.01696,-1.33008 -0.03106,-2.29201 -0.0141,-0.96191 -0.02506,-1.75317 -0.02439,-1.75836 7.94e-4,-0.005 1.272903,0.36228 2.827163,0.81658 l 2.825927,0.82599 -2.759522,1.45946 c -1.517737,0.80269 -2.775984,1.46663 -2.796101,1.47542 -0.02011,0.008 -0.03902,-0.2284 -0.04201,-0.52708 z"
       style="fill:#2ca089;stroke:none;stroke-width:0.0445483" />
    <path
       id="path72-2-4"
       d="m 68.015486,203.42703 c -0.335772,-1.32289 -0.636362,-2.50457 -0.66798,-2.62593 l -0.05749,-0.22068 1.179629,-0.22704 c 0.648793,-0.12486 1.185445,-0.21962 1.192554,-0.21057 0.01484,0.0189 -0.997982,5.64526 -1.02103,5.67192 -0.0083,0.009 -0.289906,-1.06481 -0.625681,-2.3877 z"
       style="fill:#2ca089;stroke:none;stroke-width:0.0445483" />
    <path
       id="path74-1-5"
       d="m 89.607367,226.87381 c -1.286136,-1.20752 -2.342848,-2.21387 -2.348245,-2.23633 -0.006,-0.0225 0.666588,-0.6259 1.493289,-1.34098 l 1.503077,-1.30017 0.85507,3.52505 c 0.470281,1.93877 0.850601,3.5302 0.845151,3.5365 -0.006,0.006 -1.062191,-0.97653 -2.348342,-2.18407 z"
       style="fill:#2ca089;stroke:none;stroke-width:0.0445483" />
    <path
       id="path76-0-6"
       d="m 79.012199,224.84822 c 0.0329,-0.0593 0.979162,-1.8286 2.102925,-3.93179 1.639596,-3.06859 2.053227,-3.81161 2.093907,-3.76143 0.0512,0.0631 3.695319,7.23681 3.731291,7.34527 0.0145,0.0438 -0.155149,0.0668 -0.676452,0.0918 -0.38272,0.0184 -2.14684,0.10775 -3.920281,0.19865 -1.773428,0.0908 -3.261918,0.16526 -3.30776,0.16526 -0.0765,0 -0.0784,-0.008 -0.0236,-0.1078 z"
       style="fill:#2ca089;stroke:none;stroke-width:0.0445483" />
    <path
       id="path78-5-5"
       d="m 74.622473,228.10653 c 0.0099,-0.033 0.734031,-2.65358 1.609064,-5.82366 1.008266,-3.65271 1.601261,-5.73238 1.619044,-5.67809 0.01543,0.0471 0.216423,1.90768 0.446643,4.1346 0.23023,2.22692 0.42767,4.09713 0.438779,4.15603 0.01799,0.0954 -0.205232,0.28099 -2.030261,1.68905 -1.12775,0.87007 -2.061909,1.58197 -2.075903,1.58197 -0.014,0 -0.0173,-0.027 -0.0074,-0.0599 z"
       style="fill:#2ca089;stroke:none;stroke-width:0.0445483" />
    <path
       id="path80-8-6"
       d="m 74.474947,227.87893 c -0.01333,-0.0659 -0.165074,-1.32728 -0.337185,-2.80312 -0.172103,-1.47581 -0.323387,-2.74261 -0.33618,-2.81508 -0.01696,-0.0961 -0.0068,-0.13178 0.03757,-0.13178 0.03345,0 0.05822,-0.0335 0.05506,-0.0744 -0.0062,-0.08 3.714269,-5.50997 3.732342,-5.44724 0.0077,0.0266 -2.964743,10.85871 -3.112712,11.34346 -0.008,0.0264 -0.02553,-0.006 -0.0389,-0.0718 z"
       style="fill:#2ca089;stroke:none;stroke-width:0.0445483" />
    <path
       id="path82-5-8"
       d="m 70.699345,221.19613 c -2.023083,-0.55763 -2.647576,-0.74642 -2.637565,-0.79733 0.02032,-0.10345 1.347018,-4.30735 1.355305,-4.29462 0.03753,0.0577 3.98113,5.68621 4.028172,5.74926 0.05663,0.0759 0.05509,0.0834 -0.01632,0.0786 -0.04339,-0.003 -1.271707,-0.33406 -2.729582,-0.73589 z"
       style="fill:#2ca089;stroke:none;stroke-width:0.0445483" />
    <path
       id="path84-5-4"
       d="m 63.396033,226.50133 c 0.05781,-0.0725 1.109054,-1.42552 2.336099,-3.00675 1.227045,-1.58125 2.24092,-2.87233 2.253052,-2.86906 3.007415,0.80852 5.419076,1.48377 5.395642,1.51073 -0.03862,0.0444 -9.984862,4.49685 -10.045504,4.49685 -0.0244,0 0.0031,-0.0593 0.06071,-0.13177 z"
       style="fill:#2ca089;stroke:none;stroke-width:0.0445483" />
    <path
       id="path86-0-8"
       d="m 69.117666,209.302 c -0.208965,-1.62806 -0.372813,-2.96834 -0.364111,-2.97841 0.01709,-0.0198 1.525352,-0.10219 1.540904,-0.0841 0.01675,0.0194 -0.736365,5.84834 -0.767075,5.93685 -0.01691,0.0487 -0.194056,-1.1941 -0.409718,-2.87428 z"
       style="fill:#2ca089;stroke:none;stroke-width:0.0445483" />
    <path
       id="path88-7-8"
       d="m 74.127412,210.96799 c -2.428135,-3.21604 -3.507606,-4.67864 -3.458311,-4.68576 0.03941,-0.005 1.151244,0.1455 2.470735,0.33598 l 2.399069,0.34633 1.068914,4.28796 c 0.587899,2.35837 1.064559,4.31112 1.059239,4.33942 -0.0053,0.0284 -1.598158,-2.05245 -3.539646,-4.62393 z"
       style="fill:#2ca089;stroke:none;stroke-width:0.0445483" />
    <path
       id="path90-3-3"
       d="m 77.219446,213.12814 -0.686438,-2.76827 3.972592,-1.35435 c 2.184929,-0.74489 3.98172,-1.3438 3.992859,-1.33092 0.0149,0.0172 -5.743369,7.20324 -6.48413,8.09175 l -0.10844,0.13006 z"
       style="fill:#37c8ab;stroke:none;stroke-width:0.0445483" />
    <path
       id="path92-8-8"
       d="m 77.834716,207.23517 c -1.064218,-0.2012 -1.921542,-0.37897 -1.905174,-0.39504 0.05181,-0.0508 5.022342,-2.31033 5.039299,-2.29071 0.0269,0.0311 -1.11596,3.02912 -1.15914,3.04077 -0.02199,0.006 -0.91077,-0.15382 -1.974985,-0.35502 z"
       style="fill:#37c8ab;stroke:none;stroke-width:0.0445483" />
    <path
       id="path94-2-7"
       d="m 70.892976,205.95964 c 0.03757,-0.0474 8.329633,-4.9159 8.344135,-4.89912 0.006,0.007 -0.276622,0.85321 -0.62865,1.87991 l -0.640032,1.86674 -3.427453,0.56788 c -1.885103,0.31233 -3.483377,0.57957 -3.551711,0.59386 -0.06834,0.0143 -0.111667,0.0105 -0.09629,-0.009 z"
       style="fill:#37c8ab;stroke:none;stroke-width:0.0445483" />
    <path
       id="path96-3-5"
       d="m 72.653603,202.21906 c -1.225873,-0.11289 -2.236579,-0.21419 -2.246024,-0.22513 -0.0094,-0.0109 1.291042,-0.5404 2.889964,-1.17662 1.598928,-0.63623 2.915029,-1.14764 2.924678,-1.13648 0.0096,0.0111 -0.212233,0.63548 -0.493062,1.38737 l -0.510593,1.36711 -0.168058,-0.005 c -0.09243,-0.003 -1.171038,-0.0979 -2.396905,-0.21076 z"
       style="fill:#37c8ab;stroke:none;stroke-width:0.0445483" />
    <path
       id="path98-0-2"
       d="m 70.0988,199.88375 c 0.06915,-0.0851 3.659126,-2.76644 3.676702,-2.74611 0.01185,0.0138 -0.01275,0.53939 -0.05471,1.16812 l -0.07628,1.14316 -1.596835,0.20333 c -0.878253,0.11183 -1.680697,0.2154 -1.783202,0.23016 -0.102505,0.0147 -0.177061,0.0153 -0.165671,0.001 z"
       style="fill:#37c8ab;stroke:none;stroke-width:0.0445483" />
    <path
       id="path100-7-4"
       d="m 70.014225,199.48712 c -0.0024,-0.0636 1.298208,-4.67199 1.313532,-4.65426 0.0067,0.007 0.112327,0.52432 0.23468,1.14788 l 0.222467,1.13375 -0.805595,1.1151 c -0.884481,1.2243 -0.962522,1.32599 -0.965084,1.25753 z"
       style="fill:#37c8ab;stroke:none;stroke-width:0.0445483" />
    <path
       id="path102-7-5"
       d="m 61.711873,202.91664 c -1.503431,-0.44121 -2.729312,-0.81687 -2.724169,-0.83478 0.02117,-0.0737 0.638003,-0.65143 1.765123,-1.65305 l 1.194628,-1.06162 0.07172,0.10854 c 0.03945,0.0597 0.590354,0.98182 1.224243,2.04916 0.633891,1.06734 1.188217,1.99992 1.231842,2.07238 0.05566,0.0925 0.06303,0.13026 0.02471,0.12668 -0.03001,-0.003 -1.284671,-0.36609 -2.788105,-0.80731 z"
       style="fill:#37c8ab;stroke:none;stroke-width:0.0445483" />
    <path
       id="path104-7-0"
       d="m 67.992584,215.58331 c -0.714222,-0.13886 -1.305515,-0.2605 -1.313984,-0.2703 -0.0084,-0.009 0.6029,-0.50638 1.358598,-1.10353 0.7557,-0.59714 1.37959,-1.07925 1.386425,-1.07134 0.01503,0.0174 -0.104453,2.67509 -0.120881,2.68833 -0.0064,0.005 -0.595937,-0.10429 -1.310158,-0.24316 z"
       style="fill:#37c8ab;stroke:none;stroke-width:0.0445483" />
    <path
       id="path106-6-5"
       d="m 71.965554,215.89157 c -1.353719,-0.0224 -2.469975,-0.0507 -2.480561,-0.063 -0.03227,-0.0374 0.08629,-2.75583 0.120218,-2.75583 0.04428,0 7.634076,2.83069 7.655264,2.85509 0.02445,0.0282 -2.407489,0.0114 -5.294921,-0.0363 z"
       style="fill:#37c8ab;stroke:none;stroke-width:0.0445483" />
    <path
       id="path108-9-7"
       d="m 66.136111,227.04138 c -1.484715,-0.10657 -2.708341,-0.20428 -2.719173,-0.21716 -0.01085,-0.0128 2.189012,-1.01123 4.888534,-2.21858 2.699525,-1.20735 4.915096,-2.18722 4.923497,-2.17751 0.0123,0.0143 -2.749632,3.04034 -4.079875,4.47004 l -0.313511,0.33694 z"
       style="fill:#37c8ab;stroke:none;stroke-width:0.0445483" />
    <path
       id="path110-1-3"
       d="m 85.265402,220.85297 c -1.009291,-1.99211 -1.828009,-3.63017 -1.819381,-3.64016 0.015,-0.0173 6.601388,4.55048 6.669296,4.62534 0.029,0.032 -2.843006,2.56572 -2.966077,2.61664 -0.0287,0.0119 -0.807331,-1.477 -1.883838,-3.60182 z"
       style="fill:#37c8ab;stroke:none;stroke-width:0.0445483" />
    <path
       id="path112-1-2"
       d="m 92.113149,229.0238 c -0.0701,-0.21854 -1.597311,-6.57748 -1.587302,-6.60904 0.0158,-0.0498 2.780753,4.26123 2.778631,4.33231 -7.94e-4,0.0445 -1.103731,2.26521 -1.153988,2.32465 -0.009,0.0105 -0.02561,-0.0112 -0.0374,-0.0479 z"
       style="fill:#37c8ab;stroke:none;stroke-width:0.0445483" />
    <path
       id="path114-9-7"
       d="m 78.408992,220.47022 c -0.247216,-2.35896 -0.442908,-4.29538 -0.434877,-4.30315 0.01484,-0.0144 4.991608,0.77171 5.046445,0.79706 0.0276,0.0128 -4.03297,7.64627 -4.122079,7.749 -0.02569,0.0296 -0.20057,-1.486 -0.489489,-4.24291 z"
       style="fill:#37c8ab;stroke:none;stroke-width:0.0445483" />
    <path
       id="path116-0-2"
       d="m 68.916281,205.16139 c 0.09693,-0.53742 0.323448,-1.79471 0.503362,-2.79399 0.179912,-0.99927 0.331769,-1.7863 0.33746,-1.74894 0.06516,0.42762 0.538446,5.39358 0.516427,5.41849 -0.01638,0.0186 -0.368109,0.0489 -0.781632,0.0676 l -0.751861,0.0339 z"
       style="fill:#37c8ab;stroke:none;stroke-width:0.0445483" />
    <path
       id="path118-8-1"
       d="m 64.693894,199.82226 c -1.321202,-0.32478 -2.434598,-0.59744 -2.474217,-0.6059 -0.04295,-0.009 1.074193,-0.91198 2.767341,-2.23634 1.561655,-1.22151 2.846919,-2.2122 2.856145,-2.20152 0.02405,0.0278 -0.697905,5.64533 -0.724752,5.63929 -0.01228,-0.003 -1.103318,-0.27076 -2.424517,-0.59553 z"
       style="fill:#37c8ab;stroke:none;stroke-width:0.0445483" />
    <path
       id="path122-9-3"
       d="m 92.348869,229.01694 c 0.0331,-0.0593 0.29047,-0.5683 0.571979,-1.13113 0.281522,-0.56283 0.53436,-1.0333 0.56184,-1.04551 0.0275,-0.0122 0.817721,0.0278 1.7561,0.089 l 1.706139,0.11113 -2.292268,1.04347 c -1.26075,0.57391 -2.308381,1.04289 -2.328089,1.04219 -0.01971,-7.9e-4 -0.009,-0.0498 0.02429,-0.10911 z"
       style="fill:#87decd;stroke:none;stroke-width:0.0445483" />
    <path
       id="path124-8-4"
       d="m 80.565071,216.40406 c -1.362081,-0.21821 -2.484933,-0.40647 -2.495214,-0.41836 -0.01029,-0.0119 1.467583,-1.86542 3.284154,-4.11896 1.816563,-2.25353 3.306918,-4.07384 3.311908,-4.04513 0.01881,0.10789 -1.543288,8.95797 -1.582909,8.96833 -0.02281,0.006 -1.155856,-0.16769 -2.517939,-0.38588 z"
       style="fill:#87decd;stroke:none;stroke-width:0.0445483" />
    <path
       id="path126-8-9"
       d="m 76.416385,209.89829 c -0.374205,-1.49581 -0.716676,-2.88833 -0.711731,-2.89397 0.0195,-0.0223 3.919706,0.73131 3.919857,0.75735 1.99e-4,0.031 -3.083861,2.38818 -3.124528,2.38818 -0.01138,0 -0.04898,-0.1132 -0.0836,-0.25156 z"
       style="fill:#87decd;stroke:none;stroke-width:0.0445483" />
    <path
       id="path128-0-4"
       d="m 70.430137,205.90942 c 0,-0.0394 -0.08354,-0.89512 -0.185642,-1.90153 -0.102103,-1.00642 -0.17876,-1.8378 -0.170349,-1.84753 0.01394,-0.0162 4.849413,0.40904 4.922792,0.43284 0.03122,0.0105 -4.498938,3.38792 -4.543724,3.38792 -0.0127,0 -0.02307,-0.0322 -0.02307,-0.0717 z"
       style="fill:#87decd;stroke:none;stroke-width:0.0445483" />
    <path
       id="path130-3-1"
       d="m 69.940796,201.01042 c -0.04985,-0.49001 -0.08536,-0.89701 -0.07892,-0.90447 0.01696,-0.0196 3.43867,-0.45115 3.452283,-0.4354 0.01072,0.0124 -2.867551,1.97633 -3.151537,2.15038 l -0.131196,0.0805 z"
       style="fill:#87decd;stroke:none;stroke-width:0.0445483" />
    <path
       id="path132-7-9"
       d="m 71.617079,218.98441 c -1.135356,-1.62143 -2.057916,-2.9532 -2.050137,-2.95951 0.01924,-0.0156 7.943181,0.10686 8.05492,0.12447 0.07429,0.0118 -0.233546,0.48139 -1.893155,2.88833 -1.090031,1.58089 -1.996601,2.87893 -2.014606,2.88455 -0.01802,0.005 -0.961666,-1.31642 -2.097022,-2.93784 z"
       style="fill:#87decd;stroke:none;stroke-width:0.0445483" />
    <path
       id="path134-0-5"
       d="m 67.232452,217.83998 c -0.380579,-1.30428 -0.688097,-2.37107 -0.683382,-2.37065 0.111123,0.009 2.694943,0.52767 2.708013,0.54279 0.02215,0.0256 -1.281559,4.19798 -1.311963,4.19875 -0.01138,2.4e-4 -0.332091,-1.0666 -0.712668,-2.37089 z"
       style="fill:#87decd;stroke:none;stroke-width:0.0445483" />
    <path
       id="path136-6-7"
       d="m 66.592258,215.0553 c 0.01252,-0.0494 0.475165,-1.96258 1.028099,-4.25148 0.552935,-2.28889 1.009963,-4.14326 1.015622,-4.1208 0.05481,0.21735 0.792562,6.22248 0.766958,6.24281 -0.500586,0.39761 -2.737096,2.15429 -2.777241,2.18138 -0.04136,0.0279 -0.05019,0.0142 -0.03344,-0.0519 z"
       style="fill:#87decd;stroke:none;stroke-width:0.0445483" />
    <path
       id="path138-9-4"
       d="m 73.57987,214.37143 c -2.174296,-0.81188 -3.958993,-1.49599 -3.965986,-1.52027 -0.01407,-0.0488 0.805019,-6.44177 0.8289,-6.46939 0.015,-0.0173 7.061325,9.28731 7.123475,9.40657 0.0182,0.035 0.0182,0.0626 0,0.0613 -0.0182,-0.001 -1.812094,-0.66644 -3.986389,-1.47831 z"
       style="fill:#87decd;stroke:none;stroke-width:0.0445483" />
    <path
       id="path140-2-1"
       d="m 71.706281,227.7906 c -1.427983,-0.28084 -2.597809,-0.53218 -2.599605,-0.55854 -0.0031,-0.0455 4.520551,-5.00555 4.544763,-4.98327 0.01275,0.0118 0.713291,5.906 0.713298,6.00149 3e-6,0.033 -0.01394,0.0579 -0.03106,0.0554 -0.01709,-0.002 -1.199414,-0.23425 -2.6274,-0.5151 z"
       style="fill:#87decd;stroke:none;stroke-width:0.0445483" />
    <path
       id="path144-1-2"
       d="m 63.838197,227.98584 c -0.379518,-0.54634 -0.687038,-0.9952 -0.683384,-0.99744 0.0051,-0.003 4.064328,0.28959 5.170405,0.37282 0.174403,0.0131 -0.0013,0.0931 -1.760215,0.80152 -1.074668,0.43282 -1.972585,0.79359 -1.995363,0.80171 -0.02275,0.008 -0.351927,-0.43225 -0.731443,-0.97861 z"
       style="fill:#87decd;stroke:none;stroke-width:0.0445483" />
    <path
       id="path146-7-2"
       d="m 67.301,200.27351 c 0.01341,-0.0892 0.172657,-1.32415 0.353875,-2.74439 0.181218,-1.42022 0.334973,-2.58858 0.341678,-2.59633 0.01564,-0.0181 1.647015,4.92278 1.646814,4.98757 -8.7e-5,0.0268 -0.508027,0.14312 -1.128763,0.25864 -0.620739,0.11553 -1.153221,0.22054 -1.183301,0.23335 -0.04128,0.0176 -0.04871,-0.0165 -0.03029,-0.13884 z"
       style="fill:#87decd;stroke:none;stroke-width:0.0445483" />
    <path
       id="path148-7-1"
       d="m 68.851144,197.00878 c -0.420444,-1.27159 -0.748229,-2.31973 -0.728414,-2.32921 0.01979,-0.009 0.305019,0.031 0.633791,0.0898 0.539601,0.0966 0.599471,0.11693 0.615241,0.2089 0.03087,0.18008 0.280484,4.3001 0.261818,4.3217 -0.0099,0.0114 -0.361995,-1.01958 -0.782436,-2.29117 z"
       style="fill:#87decd;stroke:none;stroke-width:0.0445483" />
    <path
       id="path150-9-6"
       d="m 62.032323,197.33336 0.01087,-1.72028 2.004084,-0.83086 c 1.102249,-0.45698 2.009971,-0.82406 2.017162,-0.81573 0.0092,0.0107 -3.538482,4.47625 -4.004913,5.04101 -0.02323,0.0282 -0.03384,-0.62591 -0.02721,-1.67414 z"
       style="fill:#87decd;stroke:none;stroke-width:0.0445483" />
    <path
       id="path154-7-2"
       d="m 59.60657,201.10826 c -0.03679,-0.15312 -0.166341,-1.88264 -0.143042,-1.9096 0.02814,-0.0326 1.99934,0.0732 2.156918,0.11575 0.107836,0.0291 0.04636,0.0927 -0.9091,0.94116 -0.563616,0.50048 -1.038085,0.91652 -1.054375,0.92457 -0.0163,0.008 -0.03898,-0.0243 -0.0504,-0.0718 z"
       style="fill:#87decd;stroke:none;stroke-width:0.0445483" />
    <path
       id="path156-6-0"
       d="m 60.290349,199.06142 -0.800272,-0.0521 0.684294,-1.15001 0.684292,-1.14999 0.496806,-0.46718 c 0.273245,-0.25696 0.507153,-0.46719 0.519792,-0.46719 0.01262,0 0.02299,0.75469 0.02299,1.67708 v 1.67708 l -0.403809,-0.007 c -0.2221,-0.004 -0.763942,-0.0312 -1.204087,-0.0599 z m 1.274688,-1.66862 c 0.11493,-0.16433 0.208357,-0.30988 0.207616,-0.32344 -7.94e-4,-0.0136 -0.107908,-0.11609 -0.238149,-0.22785 l -0.236799,-0.2032 -0.239064,0.28946 -0.239067,0.28946 0.239067,0.23675 c 0.131487,0.13021 0.252195,0.23694 0.268247,0.23717 0.01606,2.4e-4 0.123214,-0.13402 0.238149,-0.29835 z"
       style="fill:#87decd;stroke:none;stroke-width:0.0445483" />
    <path
       id="path158-2-2"
       d="m 62.075598,197.28765 0.009,-1.67371 0.786921,-0.32736 c 1.972842,-0.82072 3.016576,-1.2393 3.054128,-1.22482 0.03512,0.0136 -2.628683,3.40953 -3.542567,4.51627 l -0.316532,0.38333 z"
       style="fill:#008066;stroke:none;stroke-width:0.0445483" />
    <path
       id="path164-7-2"
       d="m 61.207569,196.98037 0.11063,-0.12954 0.100161,0.0932 0.100161,0.0932 -0.0917,0.0173 c -0.05044,0.009 -0.145288,0.0259 -0.210788,0.0364 l -0.119086,0.0191 z"
       style="fill:#008066;stroke:none;stroke-width:0.02561805" />
    <path
       id="path166-1-9"
       d="m 61.198827,197.39198 c -0.06091,-0.0587 -0.111437,-0.11438 -0.112276,-0.12366 -7.93e-4,-0.009 0.07083,-0.0254 0.15925,-0.0358 0.08842,-0.0105 0.184883,-0.0258 0.214358,-0.0343 0.07681,-0.0221 0.06621,0.0139 -0.04899,0.16623 l -0.101592,0.13434 z"
       style="fill:#ffffff;stroke:none;stroke-width:0.02561805" />
    <path
       id="path168-5-7"
       d="m 76.593296,214.18115 c -1.879147,-2.45602 -4.529645,-5.97731 -5.509125,-7.31909 -0.339098,-0.46454 -0.366466,-0.51519 -0.284914,-0.52729 0.04962,-0.007 0.46255,0.0381 0.917628,0.10103 2.240429,0.31001 3.74332,0.53246 3.781468,0.55974 0.04432,0.0317 2.14087,8.44286 2.112602,8.47557 -0.009,0.0105 -0.466891,-0.57016 -1.017659,-1.29 z"
       style="fill:#37c8ab;stroke:none;stroke-width:0.04154504" />
    <path
       id="path174-8-4"
       d="m 69.167583,197.91165 c -0.480119,-1.42958 -1.007187,-3.08141 -1.007187,-3.15653 0,-0.0263 0.03911,-0.0477 0.08691,-0.0477 0.150744,2e-5 1.050176,0.18049 1.081789,0.21707 0.01659,0.0192 0.05565,0.40557 0.08675,0.85852 0.07593,1.10626 0.209765,3.41084 0.198816,3.42351 -0.0048,0.005 -0.20601,-0.57712 -0.447071,-1.29489 z"
       style="fill:#37c8ab;stroke:none;stroke-width:0.04154504" />
    <path
       id="path180-8-3"
       d="m 62.757123,198.42755 c 0.06243,-0.0934 0.703921,-0.90296 1.425188,-1.79861 1.556602,-1.93297 2.215402,-2.72585 2.264852,-2.72585 0.06713,0 1.288529,0.6336 1.287944,0.66812 -2.64e-4,0.0262 -0.914072,0.75041 -3.426936,2.71685 -0.85584,0.66973 -1.566704,1.2177 -1.579697,1.2177 -0.01299,0 -1.04e-4,-0.0352 0.02865,-0.0782 z"
       style="fill:#008066;fill-opacity:1;stroke:none;stroke-width:0.04154504" />
    <path
       id="path186-4-5"
       d="m 64.194683,228.45661 c -0.612195,-0.84936 -0.986634,-1.40164 -0.966277,-1.4252 0.02035,-0.0235 5.093494,0.33478 5.116479,0.36137 0.02061,0.0238 -3.693827,1.54421 -3.77276,1.54421 -0.01714,0 -0.187008,-0.21617 -0.377442,-0.48038 z"
       style="fill:#008066;fill-opacity:1;stroke:none;stroke-width:0.04154504" />
    <path
       id="path188-5-6"
       d="m 72.48637,227.92979 c -2.07872,-0.41569 -3.205916,-0.65106 -3.294827,-0.68801 -0.05515,-0.0229 0.22632,-0.35471 1.351865,-1.59357 1.382175,-1.52131 2.49069,-2.73199 2.894423,-3.16116 l 0.198278,-0.21078 0.02281,0.14647 c 0.05406,0.34711 0.681435,5.66667 0.681435,5.77799 0,0.0433 -0.03664,0.0645 -0.106217,0.0616 -0.05842,-0.002 -0.844921,-0.15204 -1.747772,-0.33259 z"
       style="fill:#2ca089;fill-opacity:1;stroke:none;stroke-width:0.04154504" />
    <path
       id="path190-6-1"
       d="m 92.339497,229.08455 c 0,-0.035 0.919703,-1.83654 1.051751,-2.06023 l 0.113501,-0.19225 0.257468,0.0241 c 0.141592,0.0132 0.839732,0.0565 1.551401,0.0962 0.71166,0.0397 1.3419,0.0852 1.40054,0.10124 0.087,0.0237 -0.21544,0.17518 -1.641549,0.82213 -2.39626,1.08708 -2.733112,1.23606 -2.733112,1.20886 z"
       style="fill:#2ca089;fill-opacity:1;stroke:none;stroke-width:0.04154504" />
    <path
       id="path192-5-4"
       d="m 66.631869,214.96808 c 0.01524,-0.0712 0.236365,-0.99424 0.49136,-2.05105 0.947045,-3.92506 1.467083,-6.03362 1.496536,-6.06788 0.01664,-0.0194 0.04997,0.12137 0.074,0.31281 0.459896,3.66184 0.709411,5.74125 0.691139,5.75977 -0.01881,0.0191 -2.678398,2.10477 -2.726859,2.13844 -0.04331,0.03 -0.04846,0.012 -0.02619,-0.0921 z"
       style="fill:#2ca089;fill-opacity:1;stroke:none;stroke-width:0.04154504" />
    <path
       id="path194-6-0"
       d="m 67.816591,219.76497 c -0.303657,-1.00142 -1.238901,-4.24977 -1.227397,-4.26307 0.0249,-0.0288 2.652694,0.50933 2.652694,0.54327 0,0.0542 -1.26293,4.08475 -1.291577,4.12197 -0.0046,0.006 -0.06482,-0.17495 -0.13372,-0.40217 z"
       style="fill:#2ca089;fill-opacity:1;stroke:none;stroke-width:0.04154504" />
    <path
       id="path198-8-3"
       d="m 60.23599,199.04878 c -0.381772,-0.022 -0.694132,-0.0536 -0.694132,-0.07 0,-0.0164 0.298241,-0.53204 0.66276,-1.14581 l 0.662755,-1.11594 0.482108,-0.44994 c 0.26516,-0.24746 0.494279,-0.44163 0.509154,-0.43147 0.0149,0.0105 0.02705,0.7495 0.02705,1.64299 v 1.62452 l -0.477777,-0.007 c -0.262784,-0.004 -0.790138,-0.0252 -1.171911,-0.0473 z m 1.341133,-1.66035 c 0.11021,-0.16296 0.20038,-0.30953 0.20038,-0.3257 0,-0.0162 -0.106982,-0.12028 -0.237739,-0.23135 l -0.237744,-0.20197 -0.252539,0.29217 -0.25254,0.29217 0.239922,0.23548 c 0.131958,0.12952 0.262413,0.23548 0.289898,0.23548 0.02748,0 0.14015,-0.13332 0.250362,-0.29628 z"
       style="fill:#018066;fill-opacity:0.99432834;stroke:none;stroke-width:0.03878505" />
    <path
       id="path202-4-1"
       d="m 59.613976,201.13626 c 0,-0.0109 -0.02339,-0.28986 -0.05199,-0.61979 -0.09761,-1.12611 -0.103399,-1.27463 -0.05047,-1.29452 0.05569,-0.0209 1.16074,0.0229 1.735656,0.0689 0.26203,0.0209 0.384985,0.0464 0.37637,0.0781 -0.01614,0.0593 -0.442458,0.45747 -1.259536,1.1762 -0.586417,0.51583 -0.75003,0.64478 -0.75003,0.59111 z"
       style="fill:#018066;fill-opacity:0.99432834;stroke:none;stroke-width:0.03878505" />
    <path
       id="path206-8-2"
       d="m 68.376264,215.64173 c -0.386731,-0.0768 -0.910037,-0.18072 -1.162899,-0.23102 -0.25286,-0.0503 -0.459748,-0.10527 -0.459748,-0.12212 0,-0.0414 2.632146,-2.14085 2.653236,-2.11632 0.0136,0.0159 -0.09522,2.50566 -0.112146,2.56567 -0.02053,0.0728 -0.119195,0.0624 -0.918443,-0.0962 z"
       style="fill:#018066;fill-opacity:0.99432834;stroke:none;stroke-width:0.03878505" />
    <path
       id="path208-8-7"
       d="m 71.425346,215.86579 c -1.049951,-0.0198 -1.916528,-0.0447 -1.92573,-0.0555 -0.01987,-0.023 0.0632,-2.1494 0.09712,-2.48555 l 0.02355,-0.23336 1.063733,0.39264 c 1.196808,0.44177 5.149919,1.91941 5.949699,2.22394 l 0.522854,0.19909 -1.911118,-0.003 c -1.051112,-0.001 -2.770163,-0.0189 -3.820115,-0.0386 z"
       style="fill:#018066;fill-opacity:0.99432834;stroke:none;stroke-width:0.03878505" />
    <g
       id="text4608-3-7-6"
       style="font-style:normal;font-weight:normal;font-size:10.58333302px;line-height:1.25;font-family:sans-serif;letter-spacing:0px;word-spacing:0px;fill:#018066;fill-opacity:0.99914216;stroke:none;stroke-width:0.26458332"
       aria-label="Devop    illa"
       transform="translate(-11.245063,78.518475)">
      <path
         id="path2916-5"
         style="font-style:normal;font-variant:normal;font-weight:normal;font-stretch:normal;font-size:25.39999962px;font-family:Righteous;-inkscape-font-specification:'Righteous, Normal';font-variant-ligatures:normal;font-variant-caps:normal;font-variant-numeric:normal;font-feature-settings:normal;text-align:start;writing-mode:lr-tb;text-anchor:start;fill:#018066;fill-opacity:0.99914216;stroke-width:0.26458332"
         d="m 18.92561,136.72834 q 0,1.22783 -0.322461,2.36885 -0.310059,1.12861 -0.892969,2.1208 -0.58291,0.97978 -1.389062,1.79834 -0.806153,0.80615 -1.79834,1.38906 -0.992188,0.58291 -2.133203,0.90537 -1.128614,0.31006 -2.356446,0.31006 H 4.6753169 v -17.78496 h 5.3578121 q 1.227832,0 2.356446,0.32246 1.141015,0.31006 2.133203,0.89297 0.992187,0.58291 1.79834,1.40146 0.806152,0.80616 1.389062,1.79834 0.58291,0.97979 0.892969,2.1208 0.322461,1.12862 0.322461,2.35645 z m -3.559473,0 q 0,-1.10381 -0.42168,-2.07119 -0.409277,-0.96739 -1.141015,-1.68672 -0.719336,-0.73174 -1.699121,-1.15342 -0.967383,-0.42168 -2.071192,-0.42168 H 8.2595942 v 10.66602 h 1.7735348 q 1.103809,0 2.071192,-0.40928 0.979785,-0.42168 1.699121,-1.14102 0.731738,-0.73173 1.141015,-1.69912 0.42168,-0.97978 0.42168,-2.08359 z" />
      <path
         id="path2918-2"
         style="font-style:normal;font-variant:normal;font-weight:normal;font-stretch:normal;font-size:25.39999962px;font-family:Righteous;-inkscape-font-specification:'Righteous, Normal';font-variant-ligatures:normal;font-variant-caps:normal;font-variant-numeric:normal;font-feature-settings:normal;text-align:start;writing-mode:lr-tb;text-anchor:start;fill:#018066;fill-opacity:0.99914216;stroke-width:0.26458332"
         d="m 26.218188,142.37141 q 0.198437,0.062 0.396875,0.0868 0.198437,0.0124 0.396875,0.0124 0.496094,0 0.95498,-0.13642 0.458887,-0.13643 0.855762,-0.38447 0.409277,-0.26045 0.719336,-0.62012 0.322461,-0.37207 0.520898,-0.81856 l 2.480469,2.49287 q -0.471289,0.66973 -1.091406,1.20303 -0.607715,0.5333 -1.327051,0.90537 -0.706933,0.37207 -1.500683,0.55811 -0.781348,0.19844 -1.612305,0.19844 -1.401465,0 -2.641699,-0.5209 -1.227832,-0.5209 -2.158008,-1.45108 -0.917773,-0.93017 -1.451074,-2.20761 -0.533301,-1.28985 -0.533301,-2.82774 0,-1.5751 0.533301,-2.87734 0.533301,-1.30225 1.451074,-2.22002 0.930176,-0.91777 2.158008,-1.42627 1.240234,-0.5085 2.641699,-0.5085 0.830957,0 1.624707,0.19844 0.79375,0.19844 1.500684,0.57051 0.719335,0.37207 1.339453,0.91777 0.620117,0.5333 1.091406,1.20303 z m 1.736328,-6.98252 q -0.235644,-0.0868 -0.471289,-0.11163 -0.223242,-0.0248 -0.471289,-0.0248 -0.694531,0 -1.314648,0.26045 -0.607715,0.24805 -1.066602,0.71934 -0.446484,0.47128 -0.706934,1.14101 -0.260449,0.65732 -0.260449,1.48828 0,0.18604 0.0124,0.42168 0.0248,0.23565 0.06201,0.48369 0.04961,0.23565 0.111621,0.45889 0.06201,0.22324 0.161231,0.39687 z" />
      <path
         id="path2920-4"
         style="font-style:normal;font-variant:normal;font-weight:normal;font-stretch:normal;font-size:25.39999962px;font-family:Righteous;-inkscape-font-specification:'Righteous, Normal';font-variant-ligatures:normal;font-variant-caps:normal;font-variant-numeric:normal;font-feature-settings:normal;text-align:start;writing-mode:lr-tb;text-anchor:start;fill:#018066;fill-opacity:0.99914216;stroke-width:0.26458332"
         d="m 37.926,145.62082 -5.060156,-13.28291 h 3.857128 l 2.902149,8.28476 2.889746,-8.28476 h 3.869531 l -5.060156,13.28291 z" />
      <path
         id="path2922-0"
         style="font-style:normal;font-variant:normal;font-weight:normal;font-stretch:normal;font-size:25.39999962px;font-family:Righteous;-inkscape-font-specification:'Righteous, Normal';font-variant-ligatures:normal;font-variant-caps:normal;font-variant-numeric:normal;font-feature-settings:normal;text-align:start;writing-mode:lr-tb;text-anchor:start;fill:#018066;fill-opacity:0.99914216;stroke-width:0.26458332"
         d="m 60.1634,138.86154 q 0,1.48828 -0.5333,2.77813 -0.533301,1.27744 -1.451075,2.22002 -0.917773,0.93017 -2.158007,1.47588 -1.227832,0.5333 -2.6417,0.5333 -1.401464,0 -2.641699,-0.5333 -1.227832,-0.54571 -2.158007,-1.47588 -0.917774,-0.94258 -1.451075,-2.22002 -0.5333,-1.28985 -0.5333,-2.77813 0,-1.51308 0.5333,-2.80293 0.533301,-1.28984 1.451075,-2.22002 0.930175,-0.94258 2.158007,-1.47588 1.240235,-0.5333 2.641699,-0.5333 1.413868,0 2.6417,0.5085 1.240234,0.49609 2.158007,1.42627 0.917774,0.91777 1.451075,2.22002 0.5333,1.28984 0.5333,2.87734 z m -3.410644,0 q 0,-0.81855 -0.272852,-1.47588 -0.260449,-0.66972 -0.719336,-1.14101 -0.458886,-0.48369 -1.079003,-0.73174 -0.607715,-0.26045 -1.302247,-0.26045 -0.694531,0 -1.314648,0.26045 -0.607715,0.24805 -1.066602,0.73174 -0.446484,0.47129 -0.706933,1.14101 -0.260449,0.65733 -0.260449,1.47588 0,0.76895 0.260449,1.42627 0.260449,0.65733 0.706933,1.14102 0.458887,0.48369 1.066602,0.76894 0.620117,0.27285 1.314648,0.27285 0.694532,0 1.302247,-0.26045 0.620117,-0.26044 1.079003,-0.73173 0.458887,-0.47129 0.719336,-1.14102 0.272852,-0.66973 0.272852,-1.47588 z" />
      <path
         id="path2924-0"
         style="font-style:normal;font-variant:normal;font-weight:normal;font-stretch:normal;font-size:25.39999962px;font-family:Righteous;-inkscape-font-specification:'Righteous, Normal';font-variant-ligatures:normal;font-variant-caps:normal;font-variant-numeric:normal;font-feature-settings:normal;text-align:start;writing-mode:lr-tb;text-anchor:start;fill:#018066;fill-opacity:0.99914216;stroke-width:0.26458332"
         d="m 65.471605,150.68098 h -3.410644 v -18.34307 h 0.818554 l 1.351856,1.5999 q 0.458887,-0.43408 1.00459,-0.81855 0.545703,-0.38448 1.128613,-0.65733 0.595312,-0.28525 1.227832,-0.44648 0.632519,-0.16123 1.277441,-0.16123 1.401465,0 2.629297,0.50849 1.240235,0.4961 2.158008,1.41387 0.930176,0.91777 1.463476,2.22002 0.533301,1.28984 0.533301,2.86494 0,1.63711 -0.533301,2.95176 -0.5333,1.30225 -1.463476,2.22002 -0.917773,0.90537 -2.158008,1.38906 -1.227832,0.48369 -2.629297,0.48369 -0.446484,0 -0.892968,-0.0992 -0.434082,-0.0992 -0.868164,-0.26044 -0.42168,-0.17364 -0.84336,-0.38448 -0.409277,-0.21084 -0.79375,-0.43408 z m 6.784082,-11.81944 q 0,-0.84336 -0.272851,-1.51308 -0.26045,-0.66973 -0.719336,-1.12862 -0.458887,-0.47129 -1.079004,-0.71933 -0.620117,-0.24805 -1.314649,-0.24805 -0.694531,0 -1.314648,0.24805 -0.607715,0.24804 -1.066602,0.71933 -0.458886,0.45889 -0.731738,1.12862 -0.260449,0.66972 -0.260449,1.51308 0,0.80615 0.260449,1.47588 0.272852,0.66973 0.731738,1.14102 0.458887,0.47129 1.066602,0.73173 0.620117,0.26045 1.314648,0.26045 0.694532,0 1.314649,-0.26045 0.620117,-0.26044 1.079004,-0.73173 0.458886,-0.47129 0.719336,-1.14102 0.272851,-0.66973 0.272851,-1.47588 z" />
      <path
         id="path2926-6"
         style="font-style:normal;font-variant:normal;font-weight:normal;font-stretch:normal;font-size:25.39999962px;font-family:Righteous;-inkscape-font-specification:'Righteous, Normal';font-variant-ligatures:normal;font-variant-caps:normal;font-variant-numeric:normal;font-feature-settings:normal;text-align:start;writing-mode:lr-tb;text-anchor:start;fill:#018066;fill-opacity:0.99914216;stroke-width:0.26458332"
         d="m 109.9092,128.72883 q 0,0.47129 -0.18603,0.88056 -0.17364,0.40928 -0.48369,0.71934 -0.31006,0.29766 -0.73174,0.48369 -0.40928,0.17363 -0.88057,0.17363 -0.47129,0 -0.89297,-0.17363 -0.40928,-0.18603 -0.71933,-0.48369 -0.29766,-0.31006 -0.4837,-0.71934 -0.17363,-0.40927 -0.17363,-0.88056 0,-0.45889 0.17363,-0.86817 0.18604,-0.42168 0.4837,-0.71933 0.31005,-0.31006 0.71933,-0.48369 0.42168,-0.18604 0.89297,-0.18604 0.47129,0 0.88057,0.18604 0.42168,0.17363 0.73174,0.48369 0.31005,0.29765 0.48369,0.71933 0.18603,0.40928 0.18603,0.86817 z m -0.58291,16.89199 h -3.41064 v -13.28291 h 3.41064 z" />
      <path
         id="path2928-8"
         style="font-style:normal;font-variant:normal;font-weight:normal;font-stretch:normal;font-size:25.39999962px;font-family:Righteous;-inkscape-font-specification:'Righteous, Normal';font-variant-ligatures:normal;font-variant-caps:normal;font-variant-numeric:normal;font-feature-settings:normal;text-align:start;writing-mode:lr-tb;text-anchor:start;fill:#018066;fill-opacity:0.99914216;stroke-width:0.26458332"
         d="m 115.32902,145.62082 h -3.41064 v -18.56631 h 3.41064 z" />
      <path
         id="path2930-5"
         style="font-style:normal;font-variant:normal;font-weight:normal;font-stretch:normal;font-size:25.39999962px;font-family:Righteous;-inkscape-font-specification:'Righteous, Normal';font-variant-ligatures:normal;font-variant-caps:normal;font-variant-numeric:normal;font-feature-settings:normal;text-align:start;writing-mode:lr-tb;text-anchor:start;fill:#018066;fill-opacity:0.99914216;stroke-width:0.26458332"
         d="m 121.33176,145.62082 h -3.41064 v -18.56631 h 3.41064 z" />
      <path
         id="path2932-4"
         style="font-style:normal;font-variant:normal;font-weight:normal;font-stretch:normal;font-size:25.39999962px;font-family:Righteous;-inkscape-font-specification:'Righteous, Normal';font-variant-ligatures:normal;font-variant-caps:normal;font-variant-numeric:normal;font-feature-settings:normal;text-align:start;writing-mode:lr-tb;text-anchor:start;fill:#018066;fill-opacity:0.99914216;stroke-width:0.26458332"
         d="m 136.78508,145.62082 h -0.81856 l -1.31464,-1.82315 q -0.4837,0.43409 -1.0294,0.81856 -0.5333,0.37207 -1.12861,0.65732 -0.59531,0.27286 -1.22783,0.43409 -0.62012,0.16123 -1.26504,0.16123 -1.40147,0 -2.6417,-0.47129 -1.22783,-0.47129 -2.15801,-1.36426 -0.91777,-0.90537 -1.45107,-2.20762 -0.5333,-1.30224 -0.5333,-2.96416 0,-1.55029 0.5333,-2.84013 0.5333,-1.30225 1.45107,-2.23243 0.93018,-0.93017 2.15801,-1.43867 1.24023,-0.5209 2.6417,-0.5209 0.64492,0 1.27744,0.16123 0.63252,0.16123 1.22783,0.44649 0.59531,0.28525 1.12861,0.66972 0.54571,0.38448 1.017,0.83096 l 1.31464,-1.5751 h 0.81856 z m -3.41065,-6.75928 q 0,-0.69453 -0.27285,-1.33945 -0.26045,-0.65733 -0.71933,-1.15342 -0.45889,-0.5085 -1.07901,-0.80615 -0.60771,-0.31006 -1.30224,-0.31006 -0.69453,0 -1.31465,0.23564 -0.60772,0.23565 -1.0666,0.69454 -0.44649,0.45888 -0.70694,1.14101 -0.26045,0.66973 -0.26045,1.53789 0,0.86817 0.26045,1.55029 0.26045,0.66973 0.70694,1.12862 0.45888,0.45888 1.0666,0.69453 0.62012,0.23564 1.31465,0.23564 0.69453,0 1.30224,-0.29765 0.62012,-0.31006 1.07901,-0.80615 0.45888,-0.5085 0.71933,-1.15342 0.27285,-0.65733 0.27285,-1.35186 z" />
    </g>
    <text
       id="text4618-7-8"
       y="215.26672"
       x="90.644699"
       style="font-style:normal;font-weight:normal;font-size:10.58333302px;line-height:1.25;font-family:sans-serif;letter-spacing:0px;word-spacing:0px;fill:#000000;fill-opacity:1;stroke:none;stroke-width:0.26458332"
       xml:space="preserve"><tspan
         style="stroke-width:0.26458332"
         y="215.26672"
         x="90.644699"
         id="tspan4616-5-1"> </tspan></text>
  </g>
</svg>
